<svg width="142" height="139" viewBox="0 0 142 139" fill="none" xmlns="http://www.w3.org/2000/svg">
<g clip-path="url(#clip0_20_649)">
<path d="M40.4485 133.139C38.5248 132.533 36.6517 131.775 34.8799 130.865C36.7023 131.674 38.5754 132.482 40.4485 133.139Z" fill="#FF9933"/>
<path d="M57.7622 136.474C54.826 136.474 52.0923 136.272 48.9536 135.463C51.8898 136.019 54.826 136.373 57.7622 136.474Z" fill="#FF9933"/>
<path d="M71.4811 135.413C68.4943 136.019 65.5075 136.474 62.3688 136.474H62.2676C65.4063 136.322 68.4437 135.968 71.4811 135.413Z" fill="#FF9933"/>
<path d="M101.552 122.124C94.0089 127.682 85.9597 131.977 76.5942 134.2C85.0484 131.926 92.9964 128.036 100.134 123.135C100.59 122.831 101.096 122.478 101.552 122.124Z" fill="#FF9933"/>
<path d="M115.676 42.2911C115.524 42.5438 115.372 42.8469 115.169 43.0996C107.677 55.3777 97.1473 64.8767 86.415 72.9611C90.0093 70.1821 93.4518 67.4031 96.5904 64.5736C100.792 60.7841 104.538 56.944 107.728 53.205C110.917 49.466 113.651 45.727 115.676 42.2911Z" fill="#FF9933"/>
<path d="M123.269 24.4551C123.269 24.4551 123.269 24.5056 123.269 24.5561V24.6067C123.269 24.7077 123.219 24.8088 123.168 24.9098C122.966 25.6172 122.713 26.6277 122.308 27.8404C122.409 27.4362 122.561 27.032 122.662 26.6783C122.966 25.4151 123.168 24.6572 123.269 24.4551Z" fill="#FF9933"/>
<path d="M125.295 5.05269C123.877 7.07377 122.206 8.84222 120.333 10.4086C117.347 12.8844 113.955 14.7539 110.462 16.2697C106.969 17.7855 103.324 18.9476 99.6788 19.9077C96.0339 20.8677 92.3384 21.7266 88.6428 22.4845C81.2517 24.0003 73.8607 25.3141 66.5202 27.032C59.2303 28.7499 52.0418 30.8215 45.2075 33.7015C41.8157 35.1668 38.5252 36.8342 35.3865 38.7543C33.8172 39.7143 32.2984 40.7753 30.881 41.8364C30.1216 42.3922 29.3623 42.9985 28.6535 43.5543C27.9954 44.1606 27.2867 44.6659 26.5779 45.3228C21.1106 50.1734 16.5038 55.8829 13.4157 62.2999C11.897 65.5336 10.7327 68.8684 9.97331 72.3548C9.26457 75.7906 8.91021 79.3275 9.06208 82.8139C9.1127 84.5823 9.36582 86.3002 9.61894 88.0181C9.97331 89.7361 10.3277 91.454 10.8845 93.0709C11.3908 94.7383 12.0489 96.3551 12.8082 97.9215L13.3651 99.0836C13.5676 99.4878 13.7701 99.8415 13.8713 100.296C14.0738 101.206 14.1751 102.115 13.7195 103.479L13.6689 103.58C13.3651 104.439 12.5045 104.945 11.5933 104.793C8.75833 104.288 7.94835 102.317 7.13837 100.498C6.27776 98.6794 5.56903 96.7593 5.01217 94.8393C3.84782 90.9992 3.18971 86.9571 3.08846 82.9654C2.98721 78.9233 3.49345 74.9316 4.40468 71.0411C5.41716 67.1505 6.88525 63.462 8.75833 59.9756C12.5045 53.0029 17.7694 46.9902 23.8443 42.1901C24.6036 41.5838 25.4136 40.9774 26.173 40.4216C26.9323 39.8153 27.7423 39.3606 28.5017 38.8048C30.1722 37.6932 31.7922 36.6826 33.4628 35.7732C36.8546 33.9037 40.3476 32.3373 43.9419 30.9731C51.1305 28.2446 58.5216 26.4256 65.9127 24.9098C73.3038 23.4445 80.7455 22.1814 88.1366 20.8171C95.4771 19.4024 102.868 17.7855 109.702 14.8549C113.094 13.3897 116.385 11.5707 119.118 9.19591C120.485 8.03379 121.751 6.66956 122.865 5.2548C123.624 4.24426 124.333 3.18319 124.94 2.07159C125.193 2.93055 125.244 3.9411 125.295 5.05269Z" fill="#FF9933"/>
<path d="M129.648 4.04217C128.838 2.77899 127.977 1.56634 127.066 0.35369C126.965 0.202108 126.813 0.101054 126.661 0C126.762 0 126.914 0.0505271 127.015 0.101054C127.167 0.202108 127.319 0.303162 127.37 0.454744C128.18 1.61687 128.939 2.82952 129.648 4.04217Z" fill="#FF9933"/>
<path d="M141.342 52.8513C138.052 69.4747 138.001 69.4747 134.407 79.2265C130.104 90.9487 128.484 93.5256 121.143 102.722C115.372 109.997 111.525 114.595 101.754 121.922C101.704 121.972 101.602 122.023 101.552 122.073C101.096 122.427 100.59 122.781 100.084 123.084C92.9456 127.985 85.0483 131.876 76.5435 134.149H76.4929C74.8223 134.554 73.1517 134.958 71.4305 135.312C68.393 135.867 65.305 136.221 62.2169 136.373C60.597 136.373 59.1289 136.373 57.6608 136.373C54.7246 136.272 51.7884 135.918 48.8522 135.362C48.8016 135.362 48.8016 135.362 48.751 135.312C45.9667 134.604 43.1317 133.897 40.3474 133.038C38.4237 132.381 36.6012 131.623 34.7788 130.764C33.5638 130.107 32.3488 129.551 31.1339 128.895C30.2226 128.389 29.3114 127.884 28.4002 127.328C28.4002 127.328 28.3496 127.328 28.3496 127.278C27.3371 126.57 25.9196 125.459 25.0084 124.802L22.8822 122.932L22.1734 123.387C17.111 127.53 12.808 131.876 8.75811 136.069C8.65686 136.17 8.55561 136.322 8.45436 136.423C8.25187 136.625 8.04937 136.827 7.8975 137.029C7.695 137.232 7.49251 137.434 7.29001 137.636C7.18877 137.787 7.03689 137.888 6.88502 138.04C6.17629 138.596 5.26506 138.949 4.25258 138.949C1.87326 138.949 -0.101074 137.029 -0.101074 134.604C-0.101074 133.947 -0.101074 133.594 0.202669 132.987C0.202669 132.987 0.303917 132.684 0.354541 132.684C2.73386 130.259 1.87326 131.118 2.58199 130.461C2.73386 130.309 2.93636 130.158 3.08823 129.956C7.39126 125.913 12.5549 122.73 17.6679 118.941C27.8939 111.412 39.0312 104.793 50.3709 97.8204C61.6601 90.8477 72.6961 82.9655 82.669 75.639C83.9346 74.7296 85.1496 73.8201 86.3645 72.9106C97.0462 64.8262 107.627 55.3271 115.119 43.0491C115.271 42.7459 115.473 42.4933 115.625 42.2406C115.726 42.0891 115.777 41.9375 115.878 41.8364C116.081 41.4827 116.283 41.129 116.486 40.7753C116.638 40.5227 116.739 40.3206 116.891 40.068C118.359 37.4911 119.473 35.0658 120.333 32.9436C120.586 32.3373 120.789 31.8321 120.991 31.2763C121.042 31.0741 121.143 30.9226 121.194 30.771C121.396 30.2657 121.548 29.811 121.7 29.3562C121.801 29.0025 121.953 28.6488 122.054 28.2952C122.105 28.0931 122.156 27.9415 122.206 27.7899C122.611 26.5772 122.864 25.6172 123.067 24.8593C123.117 24.7583 123.117 24.6572 123.168 24.5562V24.5056C123.168 24.5056 123.168 24.4551 123.168 24.4046V24.354C123.168 24.354 123.168 24.354 123.168 24.3035C124.737 18.1392 125.244 12.4802 125.244 7.78116C125.244 6.82115 125.244 5.86113 125.193 5.00217C125.142 3.94111 125.092 2.88004 124.991 1.97055C125.244 1.46528 125.497 1.01053 125.699 0.505264C125.851 0.151574 126.206 -0.0505342 126.611 -7.15387e-06C126.762 0.101047 126.914 0.202101 127.016 0.353682C127.927 1.56633 128.737 2.77898 129.597 4.04216C133.546 10.7117 136.583 17.9371 138.608 25.4151C141.038 34.3079 143.114 43.807 141.342 52.8513Z" fill="url(#paint0_linear_20_649)"/>
</g>
<defs>
<linearGradient id="paint0_linear_20_649" x1="0.00017356" y1="69.504" x2="142.017" y2="69.504" gradientUnits="userSpaceOnUse">
<stop stop-color="#258717"/>
<stop offset="1" stop-color="#48A418"/>
</linearGradient>
<clipPath id="clip0_20_649">
<rect width="142" height="139" fill="white"/>
</clipPath>
</defs>
</svg>
