<svg width="165" height="181" viewBox="0 0 165 181" fill="none" xmlns="http://www.w3.org/2000/svg">
<path d="M16.0477 140.757L15.4277 142.757H19.3677L18.7477 140.757C18.5077 140.023 18.281 139.297 18.0677 138.577C17.8543 137.843 17.641 137.097 17.4277 136.337H17.3477C17.1477 137.097 16.941 137.843 16.7277 138.577C16.5143 139.297 16.2877 140.023 16.0477 140.757ZM12.0477 148.097L16.4877 134.977H18.3677L22.8077 148.097H21.0277L19.7877 144.097H15.0077L13.7477 148.097H12.0477ZM24.9896 148.097V138.377H26.3496L26.4896 139.777H26.5496C27.0162 139.31 27.5096 138.923 28.0296 138.617C28.5496 138.297 29.1429 138.137 29.8096 138.137C30.8362 138.137 31.5829 138.463 32.0496 139.117C32.5296 139.757 32.7696 140.697 32.7696 141.937V148.097H31.1296V142.157C31.1296 141.25 30.9829 140.59 30.6896 140.177C30.3962 139.763 29.9296 139.557 29.2896 139.557C28.7962 139.557 28.3496 139.683 27.9496 139.937C27.5629 140.19 27.1229 140.563 26.6296 141.057V148.097H24.9896ZM36.4101 148.097V138.377H37.7701L37.9101 139.777H37.9701C38.4368 139.31 38.9301 138.923 39.4501 138.617C39.9701 138.297 40.5634 138.137 41.2301 138.137C42.2568 138.137 43.0034 138.463 43.4701 139.117C43.9501 139.757 44.1901 140.697 44.1901 141.937V148.097H42.5501V142.157C42.5501 141.25 42.4034 140.59 42.1101 140.177C41.8168 139.763 41.3501 139.557 40.7101 139.557C40.2168 139.557 39.7701 139.683 39.3701 139.937C38.9834 140.19 38.5434 140.563 38.0501 141.057V148.097H36.4101ZM51.6106 148.337C50.8239 148.337 50.0839 148.137 49.3906 147.737C48.7106 147.337 48.1573 146.757 47.7306 145.997C47.3173 145.237 47.1106 144.323 47.1106 143.257C47.1106 142.163 47.3173 141.237 47.7306 140.477C48.1573 139.717 48.7106 139.137 49.3906 138.737C50.0839 138.337 50.8239 138.137 51.6106 138.137C52.4106 138.137 53.1506 138.337 53.8306 138.737C54.5106 139.137 55.0573 139.717 55.4706 140.477C55.8973 141.237 56.1106 142.163 56.1106 143.257C56.1106 144.323 55.8973 145.237 55.4706 145.997C55.0573 146.757 54.5106 147.337 53.8306 147.737C53.1506 148.137 52.4106 148.337 51.6106 148.337ZM51.6106 146.977C52.4506 146.977 53.1239 146.637 53.6306 145.957C54.1506 145.263 54.4106 144.363 54.4106 143.257C54.4106 142.137 54.1506 141.23 53.6306 140.537C53.1239 139.843 52.4506 139.497 51.6106 139.497C50.7839 139.497 50.1106 139.843 49.5906 140.537C49.0706 141.23 48.8106 142.137 48.8106 143.257C48.8106 144.363 49.0706 145.263 49.5906 145.957C50.1106 146.637 50.7839 146.977 51.6106 146.977ZM61.9935 148.337C60.9668 148.337 60.2135 148.017 59.7335 147.377C59.2535 146.723 59.0135 145.777 59.0135 144.537V138.377H60.6735V144.317C60.6735 145.223 60.8135 145.883 61.0935 146.297C61.3868 146.71 61.8535 146.917 62.4935 146.917C63.0001 146.917 63.4468 146.79 63.8335 146.537C64.2335 146.27 64.6601 145.85 65.1135 145.277V138.377H66.7535V148.097H65.3935L65.2535 146.577H65.1935C64.7401 147.11 64.2601 147.537 63.7535 147.857C63.2468 148.177 62.6601 148.337 61.9935 148.337ZM70.5154 148.097V138.377H71.8754L72.0154 139.777H72.0754C72.5421 139.31 73.0354 138.923 73.5554 138.617C74.0754 138.297 74.6687 138.137 75.3354 138.137C76.3621 138.137 77.1087 138.463 77.5754 139.117C78.0554 139.757 78.2954 140.697 78.2954 141.937V148.097H76.6554V142.157C76.6554 141.25 76.5087 140.59 76.2154 140.177C75.9221 139.763 75.4554 139.557 74.8154 139.557C74.3221 139.557 73.8754 139.683 73.4754 139.937C73.0887 140.19 72.6487 140.563 72.1554 141.057V148.097H70.5154ZM85.7759 148.337C84.9226 148.337 84.1492 148.137 83.4559 147.737C82.7626 147.337 82.2159 146.757 81.8159 145.997C81.4159 145.237 81.2159 144.323 81.2159 143.257C81.2159 142.163 81.4292 141.237 81.8559 140.477C82.2959 139.717 82.8692 139.137 83.5759 138.737C84.2959 138.337 85.0692 138.137 85.8959 138.137C86.5359 138.137 87.0826 138.25 87.5359 138.477C88.0026 138.703 88.4026 138.97 88.7359 139.277L87.8959 140.357C87.6159 140.103 87.3159 139.897 86.9959 139.737C86.6892 139.577 86.3426 139.497 85.9559 139.497C85.3692 139.497 84.8426 139.657 84.3759 139.977C83.9226 140.283 83.5626 140.723 83.2959 141.297C83.0426 141.857 82.9159 142.51 82.9159 143.257C82.9159 144.363 83.1892 145.263 83.7359 145.957C84.2959 146.637 85.0226 146.977 85.9159 146.977C86.3692 146.977 86.7892 146.883 87.1759 146.697C87.5626 146.497 87.9026 146.263 88.1959 145.997L88.9159 147.097C88.4759 147.483 87.9892 147.79 87.4559 148.017C86.9226 148.23 86.3626 148.337 85.7759 148.337ZM95.0503 148.337C94.1837 148.337 93.397 148.137 92.6903 147.737C91.9837 147.323 91.4237 146.737 91.0103 145.977C90.597 145.217 90.3903 144.31 90.3903 143.257C90.3903 142.19 90.597 141.277 91.0103 140.517C91.437 139.757 91.9837 139.17 92.6503 138.757C93.317 138.343 94.017 138.137 94.7503 138.137C95.9903 138.137 96.9437 138.55 97.6103 139.377C98.2903 140.203 98.6303 141.31 98.6303 142.697C98.6303 142.87 98.6237 143.043 98.6103 143.217C98.6103 143.377 98.597 143.517 98.5703 143.637H92.0103C92.077 144.663 92.397 145.483 92.9703 146.097C93.557 146.71 94.317 147.017 95.2503 147.017C95.717 147.017 96.1437 146.95 96.5303 146.817C96.9303 146.67 97.3103 146.483 97.6703 146.257L98.2503 147.337C97.837 147.603 97.3637 147.837 96.8303 148.037C96.3103 148.237 95.717 148.337 95.0503 148.337ZM91.9903 142.457H97.1903C97.1903 141.47 96.977 140.723 96.5503 140.217C96.137 139.697 95.5503 139.437 94.7903 139.437C94.1103 139.437 93.497 139.703 92.9503 140.237C92.417 140.757 92.097 141.497 91.9903 142.457ZM101.515 148.097V138.377H102.875L103.015 139.777H103.075C103.502 139.31 103.969 138.923 104.475 138.617C104.982 138.297 105.522 138.137 106.095 138.137C106.842 138.137 107.422 138.303 107.835 138.637C108.262 138.957 108.575 139.41 108.775 139.997C109.282 139.45 109.795 139.003 110.315 138.657C110.835 138.31 111.389 138.137 111.975 138.137C112.975 138.137 113.715 138.463 114.195 139.117C114.689 139.757 114.935 140.697 114.935 141.937V148.097H113.295V142.157C113.295 141.25 113.149 140.59 112.855 140.177C112.562 139.763 112.109 139.557 111.495 139.557C110.775 139.557 109.962 140.057 109.055 141.057V148.097H107.415V142.157C107.415 141.25 107.269 140.59 106.975 140.177C106.682 139.763 106.222 139.557 105.595 139.557C104.875 139.557 104.062 140.057 103.155 141.057V148.097H101.515ZM122.52 148.337C121.654 148.337 120.867 148.137 120.16 147.737C119.454 147.323 118.894 146.737 118.48 145.977C118.067 145.217 117.86 144.31 117.86 143.257C117.86 142.19 118.067 141.277 118.48 140.517C118.907 139.757 119.454 139.17 120.12 138.757C120.787 138.343 121.487 138.137 122.22 138.137C123.46 138.137 124.414 138.55 125.08 139.377C125.76 140.203 126.1 141.31 126.1 142.697C126.1 142.87 126.094 143.043 126.08 143.217C126.08 143.377 126.067 143.517 126.04 143.637H119.48C119.547 144.663 119.867 145.483 120.44 146.097C121.027 146.71 121.787 147.017 122.72 147.017C123.187 147.017 123.614 146.95 124 146.817C124.4 146.67 124.78 146.483 125.14 146.257L125.72 147.337C125.307 147.603 124.834 147.837 124.3 148.037C123.78 148.237 123.187 148.337 122.52 148.337ZM119.46 142.457H124.66C124.66 141.47 124.447 140.723 124.02 140.217C123.607 139.697 123.02 139.437 122.26 139.437C121.58 139.437 120.967 139.703 120.42 140.237C119.887 140.757 119.567 141.497 119.46 142.457ZM128.985 148.097V138.377H130.345L130.485 139.777H130.545C131.012 139.31 131.505 138.923 132.025 138.617C132.545 138.297 133.138 138.137 133.805 138.137C134.832 138.137 135.578 138.463 136.045 139.117C136.525 139.757 136.765 140.697 136.765 141.937V148.097H135.125V142.157C135.125 141.25 134.978 140.59 134.685 140.177C134.392 139.763 133.925 139.557 133.285 139.557C132.792 139.557 132.345 139.683 131.945 139.937C131.558 140.19 131.118 140.563 130.625 141.057V148.097H128.985ZM143.466 148.337C142.426 148.337 141.699 148.037 141.286 147.437C140.886 146.837 140.686 146.057 140.686 145.097V139.717H139.246V138.477L140.766 138.377L140.966 135.657H142.346V138.377H144.966V139.717H142.346V145.117C142.346 145.717 142.452 146.183 142.666 146.517C142.892 146.837 143.286 146.997 143.846 146.997C144.019 146.997 144.206 146.97 144.406 146.917C144.606 146.85 144.786 146.79 144.946 146.737L145.266 147.977C144.999 148.07 144.706 148.15 144.386 148.217C144.079 148.297 143.772 148.337 143.466 148.337ZM149.991 148.337C149.298 148.337 148.638 148.21 148.011 147.957C147.384 147.69 146.838 147.37 146.371 146.997L147.191 145.897C147.618 146.23 148.058 146.51 148.511 146.737C148.964 146.95 149.478 147.057 150.051 147.057C150.691 147.057 151.171 146.91 151.491 146.617C151.811 146.31 151.971 145.95 151.971 145.537C151.971 145.203 151.858 144.923 151.631 144.697C151.418 144.47 151.138 144.283 150.791 144.137C150.458 143.977 150.111 143.83 149.751 143.697C149.298 143.523 148.851 143.33 148.411 143.117C147.971 142.89 147.611 142.603 147.331 142.257C147.051 141.897 146.911 141.443 146.911 140.897C146.911 140.11 147.204 139.457 147.791 138.937C148.391 138.403 149.218 138.137 150.271 138.137C150.871 138.137 151.431 138.243 151.951 138.457C152.471 138.67 152.918 138.93 153.291 139.237L152.491 140.277C152.158 140.023 151.811 139.817 151.451 139.657C151.091 139.497 150.698 139.417 150.271 139.417C149.658 139.417 149.204 139.557 148.911 139.837C148.631 140.117 148.491 140.443 148.491 140.817C148.491 141.123 148.591 141.377 148.791 141.577C148.991 141.763 149.251 141.93 149.571 142.077C149.891 142.21 150.231 142.35 150.591 142.497C151.058 142.67 151.518 142.87 151.971 143.097C152.424 143.31 152.798 143.603 153.091 143.977C153.398 144.337 153.551 144.823 153.551 145.437C153.551 145.957 153.411 146.437 153.131 146.877C152.864 147.317 152.464 147.67 151.931 147.937C151.411 148.203 150.764 148.337 149.991 148.337Z" fill="#57AC49"/>
<path d="M115.686 21C114.516 21 113.378 21.2688 112.284 21.7883L78.3867 34.3842H63.4497C56.063 34.3842 49.5313 38.081 45.6351 43.7063H38.0983C37.198 43.7063 36.3889 44.2513 36.0576 45.0811C34.6922 48.4977 34 52.1061 34 55.8055C34 59.5049 34.6922 63.1127 36.0569 66.5299C36.3888 67.3598 37.1979 67.9048 38.0976 67.9048H45.6344C49.1406 72.9656 54.7793 76.4661 61.2554 77.117V103.823C61.2554 105.025 62.2382 106 63.4503 106H84.1218C85.3338 106 86.3167 105.025 86.3167 103.823V96.8025C86.3167 95.8902 85.7428 95.0751 84.8796 94.7601L80.9794 93.3383V91.2904C82.0927 91.1852 82.9633 90.2561 82.9633 89.1247C82.9633 87.9932 82.0927 87.0641 80.9794 86.9589V84.6879C82.0927 84.5827 82.9633 83.6536 82.9633 82.5221C82.9633 81.3906 82.0927 80.4608 80.9794 80.3563V78.1892L112.335 89.8406C112.347 89.8453 112.358 89.848 112.37 89.852C113.438 90.3447 114.547 90.5987 115.686 90.5987C120.15 90.5987 124.168 86.719 127.002 79.6732C129.58 73.2616 131 64.7828 131 55.8C131 46.8171 129.58 38.3378 127 31.9267C124.168 24.8809 120.148 21.0012 115.685 21.0012L115.686 21ZM115.686 25.3523C118.158 25.3523 120.864 28.4123 122.925 33.5376C125.302 39.4491 126.612 47.3549 126.612 55.7994C126.612 64.244 125.302 72.1498 122.925 78.0613C120.864 83.1866 118.158 86.2466 115.686 86.2466C113.214 86.2466 110.507 83.1866 108.446 78.0613C106.069 72.1498 104.76 64.244 104.76 55.7994C104.76 47.3549 106.069 39.4484 108.446 33.5376C110.508 28.4123 113.215 25.3523 115.686 25.3523ZM105.785 28.8508C105.286 29.7959 104.813 30.8214 104.369 31.9248C101.79 38.3371 100.37 46.8159 100.37 55.7998C100.37 64.7836 101.79 73.262 104.369 79.673C104.815 80.7817 105.29 81.812 105.792 82.7612L79.7509 73.0857C79.4589 72.943 79.1311 72.8605 78.7837 72.8605C78.7188 72.8605 78.8094 72.8913 78.7458 72.8967C77.3216 63.102 76.1346 55.323 78.6951 45.2826C79.3542 42.9325 79.8348 40.3114 80.5513 38.2268L105.784 28.8496L105.785 28.8508ZM63.4499 38.7366H75.7866C75.408 40.7683 74.6618 42.4971 74.4097 44.2848C71.197 56.791 72.907 63.2193 74.2839 72.7209L63.6886 72.8737C63.6102 72.865 63.5305 72.8603 63.45 72.8603C63.3899 72.8603 63.331 72.8644 63.2722 72.869C53.8638 72.7739 46.2384 65.1576 46.2384 55.8048C46.2384 46.3928 53.9597 38.7358 63.4507 38.7358L63.4499 38.7366ZM110.469 44.9269C109.257 44.9269 108.274 45.9016 108.274 47.1035C108.274 48.3054 109.257 49.2801 110.469 49.2801C114.094 49.2801 117.043 52.2054 117.043 55.8003C117.043 59.3952 114.094 62.3198 110.469 62.3198C109.257 62.3198 108.274 63.2944 108.274 64.4964C108.274 65.6983 109.257 66.673 110.469 66.673C116.514 66.673 121.432 61.7957 121.432 55.8012C121.432 49.8057 116.514 44.9286 110.469 44.9286V44.9269ZM39.636 48.0587H43.3117C42.3681 50.4625 41.849 53.0746 41.849 55.8056C41.849 58.5365 42.3681 61.1488 43.3117 63.5526H39.636C38.8086 61.0604 38.3902 58.4608 38.3902 55.8056C38.3902 53.1497 38.8093 50.551 39.6366 48.0587H39.636ZM65.6441 77.2275H76.589V80.3479C75.377 80.3479 74.3941 81.3226 74.3941 82.5245C74.3941 83.7265 75.3769 84.7011 76.589 84.7011V86.9506C75.377 86.9506 74.3941 87.9253 74.3941 89.1272C74.3941 90.3291 75.3769 91.3038 76.589 91.3038V94.8592C76.589 95.7715 77.1628 96.5873 78.026 96.9023L81.9262 98.3234V101.649H65.644L65.6441 77.2275Z" fill="#F5C46A"/>
<rect x="1.74234" y="1.42801" width="161.267" height="178.144" rx="24.8464" stroke="#57AC49" stroke-width="2.8128"/>
</svg>
