<svg width="68" height="68" viewBox="0 0 68 68" fill="none" xmlns="http://www.w3.org/2000/svg">
<path d="M62.0002 64H66.0002C67.1044 64 68 64.8955 68 66.0002C68 67.1045 67.1045 68 66.0002 68H1.99981C0.895563 68 0 67.1045 0 66.0002C0 64.8956 0.895539 64 1.99981 64H8.00011V24.0013C8.00011 22.8967 8.89565 22.0011 9.99992 22.0011H34.0004C35.1051 22.0011 36.0002 22.8966 36.0002 24.0013V32.0012H60.0006C61.1053 32.0012 62.0009 32.8962 62.0009 34.0009L62.0002 64ZM31.9999 26.0012H11.9994V64H21.9993V45.0006C21.9993 43.8959 22.8948 43.0004 23.9996 43.0004H31.9997L31.9999 26.0012ZM45.9995 64H57.9996V36.0006H35.9991V43.0005H43.9992C45.1039 43.0005 45.9995 43.896 45.9995 45.0007V64ZM25.9989 64H41.9996V47.0005H25.9989V64ZM50.8263 0.0733003C52.3205 -0.336036 53.6923 1.03569 53.2833 2.53022C53.0964 3.21371 53.0001 3.92381 53.0001 4.64848C53.0001 9.06775 56.5828 12.6502 61.002 12.6502C61.7273 12.6502 62.4373 12.5543 63.1209 12.3675C64.615 11.9586 65.9868 13.3303 65.5779 14.8244C64.1615 19.9987 59.4429 23.6514 54.0008 23.6514C47.372 23.6514 41.9988 18.2778 41.9988 11.6497C41.9988 6.20793 45.6511 1.48886 50.8261 0.0730454L50.8263 0.0733003ZM45.999 11.65C45.999 16.0692 49.5816 19.6517 54.0009 19.6517C56.5097 19.6517 58.7889 18.4867 60.2678 16.6284C54.2242 16.2637 49.3871 11.4266 49.0223 5.38286C47.1639 6.8623 45.999 9.14133 45.999 11.65Z" fill="#57AC49"/>
</svg>
