<svg width="165" height="181" viewBox="0 0 165 181" fill="none" xmlns="http://www.w3.org/2000/svg">
<path d="M43.8092 138.367C42.5791 138.367 41.4765 138.067 40.5013 137.467C39.5412 136.852 38.7762 135.974 38.2061 134.834C37.651 133.694 37.3735 132.321 37.3735 130.716C37.3735 129.126 37.6585 127.761 38.2286 126.621C38.7987 125.48 39.5787 124.603 40.5689 123.988C41.559 123.373 42.6766 123.065 43.9217 123.065C44.8218 123.065 45.6169 123.253 46.307 123.628C46.997 123.988 47.5521 124.408 47.9721 124.888L46.9595 126.103C46.5695 125.683 46.1269 125.345 45.6319 125.09C45.1368 124.835 44.5743 124.708 43.9442 124.708C43.0141 124.708 42.1965 124.955 41.4915 125.45C40.8014 125.931 40.2613 126.613 39.8713 127.498C39.4962 128.383 39.3087 129.441 39.3087 130.671C39.3087 131.901 39.4962 132.974 39.8713 133.889C40.2463 134.789 40.7714 135.487 41.4464 135.982C42.1365 136.477 42.9466 136.724 43.8767 136.724C44.5818 136.724 45.2118 136.574 45.7669 136.274C46.322 135.974 46.832 135.569 47.2971 135.059L48.3322 136.229C47.7471 136.904 47.087 137.429 46.352 137.804C45.6169 138.179 44.7693 138.367 43.8092 138.367ZM51.387 138.097V122.075H53.2322V126.441L53.1647 128.691C53.6897 128.196 54.2373 127.776 54.8073 127.431C55.3924 127.071 56.06 126.891 56.8101 126.891C57.9652 126.891 58.8053 127.258 59.3303 127.993C59.8704 128.713 60.1404 129.771 60.1404 131.166V138.097H58.2952V131.414C58.2952 130.393 58.1302 129.651 57.8002 129.186C57.4701 128.721 56.9451 128.488 56.225 128.488C55.6699 128.488 55.1674 128.631 54.7173 128.916C54.2823 129.201 53.7872 129.621 53.2322 130.176V138.097H51.387ZM66.6303 138.367C65.7152 138.367 64.9501 138.097 64.3351 137.557C63.735 137.002 63.435 136.237 63.435 135.261C63.435 134.061 63.9675 133.146 65.0327 132.516C66.1128 131.871 67.8155 131.421 70.1407 131.166C70.1407 130.701 70.0732 130.258 69.9382 129.838C69.8182 129.418 69.5931 129.081 69.2631 128.826C68.9481 128.556 68.4905 128.421 67.8905 128.421C67.2604 128.421 66.6678 128.541 66.1128 128.781C65.5577 129.021 65.0627 129.291 64.6276 129.591L63.9075 128.308C64.4176 127.978 65.0402 127.663 65.7752 127.363C66.5253 127.048 67.3354 126.891 68.2055 126.891C69.5406 126.891 70.5082 127.303 71.1083 128.128C71.7084 128.938 72.0084 130.026 72.0084 131.391V138.097H70.4782L70.3207 136.792H70.2532C69.7432 137.212 69.1806 137.579 68.5655 137.894C67.9655 138.209 67.3204 138.367 66.6303 138.367ZM67.1704 136.882C67.6954 136.882 68.1905 136.754 68.6555 136.499C69.1206 136.244 69.6156 135.884 70.1407 135.419V132.381C68.3255 132.606 67.0504 132.944 66.3153 133.394C65.5952 133.844 65.2352 134.421 65.2352 135.126C65.2352 135.742 65.4227 136.192 65.7977 136.477C66.1728 136.747 66.6303 136.882 67.1704 136.882ZM79.0674 138.367C77.8973 138.367 77.0797 138.029 76.6146 137.354C76.1646 136.679 75.9396 135.802 75.9396 134.721V128.668H74.3194V127.273L76.0296 127.161L76.2546 124.1H77.8073V127.161H80.7551V128.668H77.8073V134.744C77.8073 135.419 77.9273 135.944 78.1673 136.319C78.4223 136.679 78.8649 136.859 79.4949 136.859C79.69 136.859 79.9 136.829 80.125 136.769C80.35 136.694 80.5526 136.627 80.7326 136.567L81.0926 137.962C80.7926 138.067 80.4625 138.157 80.1025 138.232C79.7575 138.322 79.4124 138.367 79.0674 138.367ZM90.4315 138.097L87.3936 127.161H89.2838L90.904 133.484C91.024 133.994 91.1365 134.504 91.2415 135.014C91.3466 135.509 91.4516 136.012 91.5566 136.522H91.6466C91.7666 136.012 91.8866 135.509 92.0066 135.014C92.1266 134.504 92.2542 133.994 92.3892 133.484L94.0768 127.161H95.877L97.5872 133.484C97.7222 133.994 97.8497 134.504 97.9698 135.014C98.1048 135.509 98.2323 136.012 98.3523 136.522H98.4423C98.5623 136.012 98.6748 135.509 98.7798 135.014C98.8999 134.504 99.0124 133.994 99.1174 133.484L100.715 127.161H102.47L99.5449 138.097H97.2947L95.7195 132.224C95.5845 131.699 95.457 131.181 95.337 130.671C95.232 130.161 95.112 129.628 94.9769 129.073H94.8869C94.7669 129.628 94.6469 130.168 94.5269 130.694C94.4069 131.204 94.2719 131.721 94.1219 132.246L92.5917 138.097H90.4315ZM105.333 138.097V127.161H107.179V138.097H105.333ZM106.279 124.91C105.918 124.91 105.618 124.805 105.378 124.595C105.153 124.37 105.041 124.07 105.041 123.695C105.041 123.335 105.153 123.043 105.378 122.818C105.618 122.593 105.918 122.48 106.279 122.48C106.639 122.48 106.931 122.593 107.156 122.818C107.396 123.043 107.516 123.335 107.516 123.695C107.516 124.07 107.396 124.37 107.156 124.595C106.931 124.805 106.639 124.91 106.279 124.91ZM114.797 138.367C113.627 138.367 112.809 138.029 112.344 137.354C111.894 136.679 111.669 135.802 111.669 134.721V128.668H110.049V127.273L111.759 127.161L111.984 124.1H113.537V127.161H116.485V128.668H113.537V134.744C113.537 135.419 113.657 135.944 113.897 136.319C114.152 136.679 114.594 136.859 115.225 136.859C115.42 136.859 115.63 136.829 115.855 136.769C116.08 136.694 116.282 136.627 116.462 136.567L116.822 137.962C116.522 138.067 116.192 138.157 115.832 138.232C115.487 138.322 115.142 138.367 114.797 138.367ZM119.44 138.097V122.075H121.286V126.441L121.218 128.691C121.743 128.196 122.291 127.776 122.861 127.431C123.446 127.071 124.113 126.891 124.864 126.891C126.019 126.891 126.859 127.258 127.384 127.993C127.924 128.713 128.194 129.771 128.194 131.166V138.097H126.349V131.414C126.349 130.393 126.184 129.651 125.854 129.186C125.524 128.721 124.999 128.488 124.279 128.488C123.723 128.488 123.221 128.631 122.771 128.916C122.336 129.201 121.841 129.621 121.286 130.176V138.097H119.44ZM77.2262 160.367C76.0711 160.367 75.2235 160.007 74.6835 159.287C74.1434 158.552 73.8734 157.487 73.8734 156.091V149.161H75.7411V155.844C75.7411 156.864 75.8986 157.607 76.2136 158.072C76.5437 158.537 77.0687 158.769 77.7888 158.769C78.3589 158.769 78.8614 158.627 79.2965 158.342C79.7465 158.042 80.2266 157.569 80.7366 156.924V149.161H82.5818V160.097H81.0516L80.8941 158.387H80.8266C80.3166 158.987 79.7765 159.467 79.2064 159.827C78.6364 160.187 77.9763 160.367 77.2262 160.367ZM89.6118 160.367C88.8317 160.367 88.0891 160.224 87.3841 159.939C86.679 159.639 86.0639 159.279 85.5389 158.859L86.4615 157.622C86.9415 157.997 87.4366 158.312 87.9466 158.567C88.4567 158.807 89.0342 158.927 89.6793 158.927C90.3994 158.927 90.9394 158.762 91.2995 158.432C91.6595 158.087 91.8395 157.682 91.8395 157.216C91.8395 156.841 91.712 156.526 91.457 156.271C91.217 156.016 90.9019 155.806 90.5119 155.641C90.1368 155.461 89.7468 155.296 89.3418 155.146C88.8317 154.951 88.3292 154.734 87.8341 154.494C87.339 154.239 86.934 153.916 86.619 153.526C86.3039 153.121 86.1464 152.611 86.1464 151.996C86.1464 151.111 86.4765 150.376 87.1365 149.791C87.8116 149.191 88.7417 148.891 89.9268 148.891C90.6019 148.891 91.232 149.011 91.817 149.251C92.4021 149.491 92.9046 149.783 93.3247 150.128L92.4246 151.298C92.0495 151.013 91.6595 150.781 91.2545 150.601C90.8494 150.421 90.4069 150.331 89.9268 150.331C89.2367 150.331 88.7267 150.488 88.3967 150.803C88.0816 151.118 87.9241 151.486 87.9241 151.906C87.9241 152.251 88.0366 152.536 88.2616 152.761C88.4867 152.971 88.7792 153.159 89.1392 153.324C89.4993 153.474 89.8818 153.631 90.2869 153.796C90.8119 153.991 91.3295 154.216 91.8395 154.471C92.3496 154.711 92.7696 155.041 93.0997 155.461C93.4447 155.866 93.6172 156.414 93.6172 157.104C93.6172 157.689 93.4597 158.229 93.1447 158.724C92.8446 159.219 92.3946 159.617 91.7945 159.917C91.2095 160.217 90.4819 160.367 89.6118 160.367Z" fill="#57AC49"/>
<path d="M115.42 22.5242H50.1651C46.5062 22.5242 42.9975 23.9803 40.4114 26.5714C37.8259 29.1629 36.3756 32.6767 36.3809 36.3395V72.6838C36.3738 76.348 37.8222 79.8643 40.4082 82.4572C42.9944 85.0507 46.5042 86.5082 50.1651 86.5082H54.9455V98.5861C54.9455 102.163 56.2819 104.095 58.315 104.095C59.54 104.095 61.0065 103.399 62.5941 101.931L79.2459 86.5082H115.447C119.103 86.5011 122.606 85.0403 125.186 82.4474C127.765 79.8552 129.21 76.3427 129.203 72.6837V36.3394C129.208 32.6766 127.758 29.1628 125.173 26.5712C122.587 23.9803 119.078 22.524 115.419 22.524L115.42 22.5242ZM123.634 72.6931C123.637 74.8764 122.773 76.9709 121.232 78.5167C119.692 80.0623 117.601 80.932 115.42 80.9339H77.0657L75.469 82.4205L60.5154 96.2078V80.9338H50.1655C47.9828 80.9319 45.8901 80.0609 44.3498 78.5133C42.8088 76.9658 41.9457 74.8686 41.9508 72.684V36.3397C41.9527 34.1596 42.8191 32.0697 44.3594 30.528C45.8991 28.9869 47.9873 28.1197 50.1653 28.1172H115.42C117.598 28.1198 119.686 28.9869 121.226 30.528C122.766 32.0697 123.633 34.1597 123.634 36.3397L123.634 72.6931Z" fill="#F5C46A"/>
<rect x="2.15835" y="1.42801" width="161.267" height="178.144" rx="24.8464" stroke="#57AC49" stroke-width="2.8128"/>
</svg>
