<svg width="175" height="193" viewBox="0 0 175 193" fill="none" xmlns="http://www.w3.org/2000/svg">
<path d="M112.482 46.0335C116.315 39.3941 116.295 31.1909 112.435 24.6021L112.168 23.9199L111.501 23.931C103.865 23.8828 96.6932 28.0664 92.9174 34.6061C89.1988 41.047 89.1349 48.9382 92.5413 55.3969L61.1315 109.8L63.3116 111.059L94.6642 56.7547C102.018 56.3753 108.82 52.375 112.482 46.0328L112.482 46.0335ZM94.0288 52.8208C91.7392 47.4032 92.0654 41.1169 95.0976 35.865C98.0728 30.7118 103.353 27.2868 109.247 26.4614L94.0288 52.8208Z" fill="#F5C46A"/>
<path d="M77.2619 34.9476C75.6762 34.0321 73.8772 33.2579 72.0629 32.7385L71.4534 32.6512L70.9118 33.1311C65.5086 38.5994 63.3442 46.4668 65.4121 53.8709C66.8205 59.4406 70.3338 64.1113 75.2886 66.9719C76.8743 67.8874 78.6733 68.6616 80.4876 69.181L81.1966 69.3258L81.7382 68.8459C87.1414 63.3776 89.3058 55.5102 87.2379 48.1061C85.8296 42.5364 82.2167 37.8082 77.2619 34.9476ZM76.5471 64.792C72.1868 62.2746 68.9975 58.1872 67.6991 53.3417C66.1495 47.5586 67.4972 41.3342 71.1658 36.5812L79.0398 65.9671C78.2887 65.6653 77.3399 65.2493 76.5471 64.7916L76.5471 64.792Z" fill="#F5C46A"/>
<path d="M88.6315 72.6944L88.4867 73.4034L88.9666 73.945C90.3236 75.2566 91.7948 76.3705 93.4792 77.343C98.434 80.2037 104.179 81.0097 109.806 79.5019C117.152 77.5334 123.04 71.6839 125.017 64.3691L124.963 63.5452L124.483 63.0036C123.126 61.692 121.655 60.5781 119.97 59.6056C115.016 56.745 109.271 55.939 103.644 57.4467C96.3972 59.4719 90.509 65.3223 88.6315 72.6944ZM118.811 61.8435C119.505 62.2442 120.24 62.8004 120.877 63.3006L91.8035 71.0907C94.0273 65.6364 98.6877 61.4562 104.414 60.0055C109.259 58.7072 114.352 59.2695 118.811 61.8441L118.811 61.8435Z" fill="#F5C46A"/>
<path d="M62.4997 60.5144C60.914 59.5989 59.115 58.8247 57.3007 58.3053L56.6916 58.2172L56.15 58.6972C50.7468 64.1655 48.5824 72.0328 50.6503 79.437C52.1164 84.9083 55.6297 89.579 60.6832 92.4967C62.2689 93.4122 64.0679 94.1863 65.8823 94.7057L66.5913 94.8506L67.1329 94.3706C72.5361 88.9024 74.7004 81.035 72.6325 73.6309C71.1248 68.0038 67.4545 63.375 62.4997 60.5144ZM61.8421 90.2597C57.4818 87.7422 54.2925 83.6549 52.9941 78.8094C51.4445 73.0263 52.7922 66.8019 56.4608 62.0489L64.3348 91.4348C63.5841 91.1323 62.6349 90.717 61.8421 90.2593L61.8421 90.2597Z" fill="#F5C46A"/>
<path d="M110.203 89.1126L109.724 88.571C108.367 87.2594 106.895 86.1455 105.211 85.173C100.256 82.3123 94.5115 81.5063 88.8844 83.0141C81.5379 84.9826 75.65 90.8321 73.673 98.1469L73.5282 98.8559L74.0081 99.3975C75.3651 100.709 76.8363 101.823 78.5208 102.795C83.4755 105.656 89.2202 106.462 94.8473 104.954C102.194 102.986 108.082 97.1363 110.059 89.8216L110.203 89.1126ZM77.1009 96.5584C79.3246 91.104 83.985 86.9238 89.711 85.4731C94.5562 84.1748 99.6908 84.8931 104.051 87.4106C104.745 87.8113 105.48 88.3675 106.117 88.8677L77.1009 96.5584Z" fill="#F5C46A"/>
<path d="M40.528 146V130.256H49.6V131.936H42.52V137.264H48.52V138.944H42.52V146H40.528ZM52.7105 146V134.336H54.6785V146H52.7105ZM53.7185 131.936C53.3345 131.936 53.0145 131.824 52.7585 131.6C52.5185 131.36 52.3985 131.04 52.3985 130.64C52.3985 130.256 52.5185 129.944 52.7585 129.704C53.0145 129.464 53.3345 129.344 53.7185 129.344C54.1025 129.344 54.4145 129.464 54.6545 129.704C54.9105 129.944 55.0385 130.256 55.0385 130.64C55.0385 131.04 54.9105 131.36 54.6545 131.6C54.4145 131.824 54.1025 131.936 53.7185 131.936ZM59.1319 146V134.336H60.7639L60.9319 136.016H61.0039C61.5639 135.456 62.1559 134.992 62.7799 134.624C63.4039 134.24 64.1159 134.048 64.9159 134.048C66.1479 134.048 67.0439 134.44 67.6039 135.224C68.1799 135.992 68.4679 137.12 68.4679 138.608V146H66.4999V138.872C66.4999 137.784 66.3239 136.992 65.9719 136.496C65.6199 136 65.0599 135.752 64.2919 135.752C63.6999 135.752 63.1639 135.904 62.6839 136.208C62.2199 136.512 61.6919 136.96 61.0999 137.552V146H59.1319ZM76.7561 146.288C75.3001 146.288 74.1321 145.76 73.2521 144.704C72.3721 143.632 71.9321 142.128 71.9321 140.192C71.9321 138.928 72.1641 137.84 72.6281 136.928C73.1081 136 73.7321 135.288 74.5001 134.792C75.2841 134.296 76.1161 134.048 76.9961 134.048C77.6681 134.048 78.2521 134.168 78.7481 134.408C79.2441 134.648 79.7481 134.976 80.2601 135.392L80.1641 133.4V128.912H82.1561V146H80.5241L80.3561 144.632H80.2841C79.8361 145.08 79.3081 145.472 78.7001 145.808C78.0921 146.128 77.4441 146.288 76.7561 146.288ZM77.1881 144.632C78.2121 144.632 79.2041 144.096 80.1641 143.024V136.928C79.6681 136.48 79.1881 136.168 78.7241 135.992C78.2761 135.8 77.8121 135.704 77.3321 135.704C76.7081 135.704 76.1401 135.896 75.6281 136.28C75.1321 136.648 74.7321 137.168 74.4281 137.84C74.1241 138.496 73.9721 139.272 73.9721 140.168C73.9721 141.56 74.2521 142.656 74.8121 143.456C75.3721 144.24 76.1641 144.632 77.1881 144.632ZM92.1116 151.016C91.8556 151.016 91.6076 150.992 91.3676 150.944C91.1436 150.896 90.9356 150.84 90.7436 150.776L91.1276 149.216C91.2556 149.248 91.3996 149.28 91.5596 149.312C91.7196 149.36 91.8716 149.384 92.0156 149.384C92.6716 149.384 93.2156 149.144 93.6476 148.664C94.0796 148.2 94.4156 147.608 94.6556 146.888L94.9196 146.024L90.2396 134.336H92.2796L94.6556 140.792C94.8316 141.288 95.0156 141.824 95.2076 142.4C95.4156 142.976 95.6076 143.536 95.7836 144.08H95.8796C96.0556 143.552 96.2236 143 96.3836 142.424C96.5436 141.848 96.7036 141.304 96.8636 140.792L98.9516 134.336H100.872L96.4796 146.96C96.2076 147.728 95.8796 148.416 95.4956 149.024C95.1276 149.632 94.6636 150.112 94.1036 150.464C93.5596 150.832 92.8956 151.016 92.1116 151.016ZM108.08 146.288C107.136 146.288 106.248 146.048 105.416 145.568C104.6 145.088 103.936 144.392 103.424 143.48C102.928 142.568 102.68 141.472 102.68 140.192C102.68 138.88 102.928 137.768 103.424 136.856C103.936 135.944 104.6 135.248 105.416 134.768C106.248 134.288 107.136 134.048 108.08 134.048C109.04 134.048 109.928 134.288 110.744 134.768C111.56 135.248 112.216 135.944 112.712 136.856C113.224 137.768 113.48 138.88 113.48 140.192C113.48 141.472 113.224 142.568 112.712 143.48C112.216 144.392 111.56 145.088 110.744 145.568C109.928 146.048 109.04 146.288 108.08 146.288ZM108.08 144.656C109.088 144.656 109.896 144.248 110.504 143.432C111.128 142.6 111.44 141.52 111.44 140.192C111.44 138.848 111.128 137.76 110.504 136.928C109.896 136.096 109.088 135.68 108.08 135.68C107.088 135.68 106.28 136.096 105.656 136.928C105.032 137.76 104.72 138.848 104.72 140.192C104.72 141.52 105.032 142.6 105.656 143.432C106.28 144.248 107.088 144.656 108.08 144.656ZM120.475 146.288C119.243 146.288 118.339 145.904 117.763 145.136C117.187 144.352 116.899 143.216 116.899 141.728V134.336H118.891V141.464C118.891 142.552 119.059 143.344 119.395 143.84C119.747 144.336 120.307 144.584 121.075 144.584C121.683 144.584 122.219 144.432 122.683 144.128C123.163 143.808 123.675 143.304 124.219 142.616V134.336H126.187V146H124.555L124.387 144.176H124.315C123.771 144.816 123.195 145.328 122.587 145.712C121.979 146.096 121.275 146.288 120.475 146.288ZM130.637 146V134.336H132.269L132.437 136.448H132.509C132.909 135.712 133.397 135.128 133.973 134.696C134.549 134.264 135.165 134.048 135.821 134.048C136.285 134.048 136.701 134.128 137.069 134.288L136.685 136.016C136.493 135.952 136.317 135.904 136.157 135.872C135.997 135.84 135.797 135.824 135.557 135.824C135.061 135.824 134.541 136.024 133.997 136.424C133.469 136.824 133.005 137.52 132.605 138.512V146H130.637ZM71.2168 170.288C69.9048 170.288 68.7288 169.968 67.6888 169.328C66.6648 168.672 65.8488 167.736 65.2408 166.52C64.6488 165.304 64.3528 163.84 64.3528 162.128C64.3528 160.432 64.6568 158.976 65.2648 157.76C65.8728 156.544 66.7048 155.608 67.7608 154.952C68.8168 154.296 70.0088 153.968 71.3368 153.968C72.2968 153.968 73.1448 154.168 73.8808 154.568C74.6168 154.952 75.2088 155.4 75.6568 155.912L74.5768 157.208C74.1608 156.76 73.6888 156.4 73.1608 156.128C72.6328 155.856 72.0328 155.72 71.3608 155.72C70.3688 155.72 69.4968 155.984 68.7448 156.512C68.0088 157.024 67.4328 157.752 67.0168 158.696C66.6168 159.64 66.4168 160.768 66.4168 162.08C66.4168 163.392 66.6168 164.536 67.0168 165.512C67.4168 166.472 67.9768 167.216 68.6968 167.744C69.4328 168.272 70.2968 168.536 71.2888 168.536C72.0408 168.536 72.7128 168.376 73.3048 168.056C73.8968 167.736 74.4408 167.304 74.9368 166.76L76.0408 168.008C75.4168 168.728 74.7128 169.288 73.9288 169.688C73.1448 170.088 72.2408 170.288 71.2168 170.288ZM79.2989 170V158.336H80.9309L81.0989 160.448H81.1709C81.5709 159.712 82.0589 159.128 82.6349 158.696C83.2109 158.264 83.8269 158.048 84.4829 158.048C84.9469 158.048 85.3629 158.128 85.7309 158.288L85.3469 160.016C85.1549 159.952 84.9789 159.904 84.8189 159.872C84.6589 159.84 84.4589 159.824 84.2189 159.824C83.7229 159.824 83.2029 160.024 82.6589 160.424C82.1309 160.824 81.6669 161.52 81.2669 162.512V170H79.2989ZM92.436 170.288C91.492 170.288 90.604 170.048 89.772 169.568C88.956 169.088 88.292 168.392 87.78 167.48C87.284 166.568 87.036 165.472 87.036 164.192C87.036 162.88 87.284 161.768 87.78 160.856C88.292 159.944 88.956 159.248 89.772 158.768C90.604 158.288 91.492 158.048 92.436 158.048C93.396 158.048 94.284 158.288 95.1 158.768C95.916 159.248 96.572 159.944 97.068 160.856C97.58 161.768 97.836 162.88 97.836 164.192C97.836 165.472 97.58 166.568 97.068 167.48C96.572 168.392 95.916 169.088 95.1 169.568C94.284 170.048 93.396 170.288 92.436 170.288ZM92.436 168.656C93.444 168.656 94.252 168.248 94.86 167.432C95.484 166.6 95.796 165.52 95.796 164.192C95.796 162.848 95.484 161.76 94.86 160.928C94.252 160.096 93.444 159.68 92.436 159.68C91.444 159.68 90.636 160.096 90.012 160.928C89.388 161.76 89.076 162.848 89.076 164.192C89.076 165.52 89.388 166.6 90.012 167.432C90.636 168.248 91.444 168.656 92.436 168.656ZM101.423 174.92V158.336H103.055L103.223 159.68H103.295C103.823 159.232 104.399 158.848 105.023 158.528C105.663 158.208 106.327 158.048 107.015 158.048C108.519 158.048 109.663 158.592 110.447 159.68C111.231 160.752 111.623 162.192 111.623 164C111.623 165.312 111.383 166.44 110.903 167.384C110.439 168.328 109.823 169.048 109.055 169.544C108.303 170.04 107.479 170.288 106.583 170.288C106.039 170.288 105.495 170.168 104.951 169.928C104.423 169.688 103.887 169.36 103.343 168.944L103.391 170.984V174.92H101.423ZM106.247 168.632C107.207 168.632 107.999 168.224 108.623 167.408C109.263 166.576 109.583 165.44 109.583 164C109.583 162.72 109.343 161.688 108.863 160.904C108.399 160.104 107.615 159.704 106.511 159.704C106.015 159.704 105.511 159.84 104.999 160.112C104.503 160.384 103.967 160.776 103.391 161.288V167.408C103.919 167.856 104.431 168.176 104.927 168.368C105.423 168.544 105.863 168.632 106.247 168.632Z" fill="#57AC49"/>
<rect x="1.5" y="1.5" width="172" height="190" rx="26.5" stroke="#57AC49" stroke-width="3"/>
</svg>
