<svg width="165" height="181" viewBox="0 0 165 181" fill="none" xmlns="http://www.w3.org/2000/svg">
<path d="M53.6351 149.097V134.335H62.141V135.91H55.5028V140.906H61.1284V142.481H55.5028V149.097H53.6351ZM69.0028 149.367C68.1177 149.367 67.2851 149.142 66.505 148.692C65.7399 148.242 65.1174 147.589 64.6373 146.734C64.1723 145.879 63.9398 144.851 63.9398 143.651C63.9398 142.421 64.1723 141.378 64.6373 140.523C65.1174 139.668 65.7399 139.016 66.505 138.566C67.2851 138.116 68.1177 137.891 69.0028 137.891C69.9029 137.891 70.7355 138.116 71.5006 138.566C72.2656 139.016 72.8807 139.668 73.3458 140.523C73.8258 141.378 74.0658 142.421 74.0658 143.651C74.0658 144.851 73.8258 145.879 73.3458 146.734C72.8807 147.589 72.2656 148.242 71.5006 148.692C70.7355 149.142 69.9029 149.367 69.0028 149.367ZM69.0028 147.837C69.9479 147.837 70.7055 147.454 71.2755 146.689C71.8606 145.909 72.1531 144.896 72.1531 143.651C72.1531 142.391 71.8606 141.371 71.2755 140.591C70.7055 139.811 69.9479 139.421 69.0028 139.421C68.0727 139.421 67.3151 139.811 66.73 140.591C66.145 141.371 65.8525 142.391 65.8525 143.651C65.8525 144.896 66.145 145.909 66.73 146.689C67.3151 147.454 68.0727 147.837 69.0028 147.837ZM77.429 149.097V138.161H78.9591L79.1167 140.141H79.1842C79.5592 139.451 80.0168 138.903 80.5568 138.498C81.0969 138.093 81.6744 137.891 82.2895 137.891C82.7245 137.891 83.1146 137.966 83.4596 138.116L83.0996 139.736C82.9196 139.676 82.7545 139.631 82.6045 139.601C82.4545 139.571 82.267 139.556 82.042 139.556C81.5769 139.556 81.0894 139.743 80.5793 140.118C80.0843 140.493 79.6492 141.146 79.2742 142.076V149.097H77.429ZM88.9084 149.367C87.7533 149.367 86.9057 149.007 86.3657 148.287C85.8256 147.552 85.5556 146.487 85.5556 145.091V138.161H87.4233V144.844C87.4233 145.864 87.5808 146.607 87.8958 147.072C88.2259 147.537 88.7509 147.769 89.471 147.769C90.0411 147.769 90.5436 147.627 90.9787 147.342C91.4287 147.042 91.9088 146.569 92.4188 145.924V138.161H94.264V149.097H92.7339L92.5763 147.387H92.5088C91.9988 147.987 91.4587 148.467 90.8887 148.827C90.3186 149.187 89.6585 149.367 88.9084 149.367ZM98.4362 149.097V138.161H99.9664L100.124 139.736H100.191C100.671 139.211 101.196 138.776 101.767 138.431C102.337 138.071 102.944 137.891 103.589 137.891C104.429 137.891 105.082 138.078 105.547 138.453C106.027 138.813 106.38 139.323 106.605 139.983C107.175 139.368 107.752 138.866 108.337 138.476C108.922 138.086 109.545 137.891 110.205 137.891C111.33 137.891 112.163 138.258 112.703 138.993C113.258 139.713 113.535 140.771 113.535 142.166V149.097H111.69V142.414C111.69 141.393 111.525 140.651 111.195 140.186C110.865 139.721 110.355 139.488 109.665 139.488C108.855 139.488 107.94 140.051 106.92 141.176V149.097H105.074V142.414C105.074 141.393 104.909 140.651 104.579 140.186C104.249 139.721 103.732 139.488 103.027 139.488C102.217 139.488 101.302 140.051 100.281 141.176V149.097H98.4362Z" fill="#57AC49"/>
<path d="M98.1665 53.5991H113.334C115 53.5991 116.541 52.7096 117.375 51.2659C118.208 49.8222 118.208 48.0431 117.375 46.5987C116.541 45.155 115 44.2655 113.334 44.2655H98.1665C96.499 44.2655 94.9585 45.155 94.1251 46.5987C93.291 48.0433 93.291 49.8223 94.1251 51.2659C94.9585 52.7097 96.4992 53.5991 98.1665 53.5991Z" fill="#F5C46A"/>
<path d="M98.1665 74.5997H113.334C115 74.5997 116.541 73.7102 117.375 72.2665C118.208 70.8219 118.208 69.0429 117.375 67.5993C116.541 66.1555 115 65.2661 113.334 65.2661H98.1665C96.499 65.2661 94.9585 66.1556 94.1251 67.5993C93.291 69.043 93.291 70.8221 94.1251 72.2665C94.9585 73.7102 96.4992 74.5997 98.1665 74.5997Z" fill="#F5C46A"/>
<path d="M59.0822 74.5997H71.9163C74.8549 74.5964 77.6724 73.4278 79.7502 71.35C81.8279 69.2715 82.9965 66.454 82.9999 63.516V55.3485C82.9966 52.4105 81.828 49.5932 79.7502 47.5146C77.6725 45.4369 74.8551 44.2682 71.9163 44.2649H59.0822C56.1435 44.2682 53.326 45.4368 51.2482 47.5146C49.1705 49.5931 48.0019 52.4105 47.9985 55.3485V63.516C48.0018 66.454 49.1704 69.2714 51.2482 71.35C53.3259 73.4277 56.1433 74.5963 59.0822 74.5997ZM57.3324 55.3487C57.3324 54.3827 58.1162 53.599 59.0822 53.599H71.9163C72.8823 53.599 73.666 54.3827 73.666 55.3487V63.5162C73.666 64.4823 72.8823 65.266 71.9163 65.266H59.0822C58.1162 65.266 57.3324 64.4823 57.3324 63.5162V55.3487Z" fill="#F5C46A"/>
<path d="M113.334 23.265H52.6654C50.9987 23.265 49.458 24.1545 48.624 25.599C47.7907 27.0427 47.7907 28.8218 48.624 30.2654C49.4582 31.7091 50.9987 32.5985 52.6654 32.5985H113.334C115 32.5985 116.541 31.709 117.375 30.2654C118.208 28.8216 118.208 27.0426 117.375 25.599C116.541 24.1544 115 23.265 113.334 23.265Z" fill="#F5C46A"/>
<path d="M52.6654 95.6002H113.334C115 95.6002 116.541 94.7107 117.375 93.2662C118.208 91.8225 118.208 90.0434 117.375 88.5998C116.541 87.1561 115 86.2666 113.334 86.2666H52.6654C50.9987 86.2666 49.458 87.1561 48.624 88.5998C47.7907 90.0436 47.7907 91.8226 48.624 93.2662C49.4582 94.7107 50.9987 95.6002 52.6654 95.6002Z" fill="#F5C46A"/>
<rect x="2.32632" y="1.42801" width="161.267" height="178.144" rx="24.8464" stroke="#57AC49" stroke-width="2.8128"/>
</svg>
