<svg width="165" height="181" viewBox="0 0 165 181" fill="none" xmlns="http://www.w3.org/2000/svg">
<path d="M33.7443 138.097V123.335H35.612V138.097H33.7443ZM39.9586 138.097V127.161H41.4887L41.6463 128.736H41.7138C42.2388 128.211 42.7939 127.776 43.3789 127.431C43.964 127.071 44.6316 126.891 45.3817 126.891C46.5368 126.891 47.3769 127.258 47.9019 127.993C48.442 128.713 48.712 129.771 48.712 131.166V138.097H46.8668V131.414C46.8668 130.393 46.7018 129.651 46.3718 129.186C46.0417 128.721 45.5167 128.488 44.7966 128.488C44.2415 128.488 43.739 128.631 43.2889 128.916C42.8539 129.201 42.3588 129.621 41.8038 130.176V138.097H39.9586ZM53.0626 138.097V128.668H51.5775V127.273L53.0626 127.161V125.428C53.0626 124.318 53.3176 123.44 53.8277 122.795C54.3528 122.135 55.1628 121.805 56.258 121.805C56.603 121.805 56.933 121.843 57.2481 121.918C57.5631 121.978 57.8406 122.06 58.0807 122.165L57.6756 123.583C57.2706 123.403 56.858 123.313 56.438 123.313C55.4179 123.313 54.9078 124.018 54.9078 125.428V127.161H57.2256V128.668H54.9078V138.097H53.0626ZM63.8343 138.367C62.9492 138.367 62.1166 138.142 61.3366 137.692C60.5715 137.242 59.9489 136.589 59.4689 135.734C59.0038 134.879 58.7713 133.851 58.7713 132.651C58.7713 131.421 59.0038 130.378 59.4689 129.523C59.9489 128.668 60.5715 128.016 61.3366 127.566C62.1166 127.116 62.9492 126.891 63.8343 126.891C64.7344 126.891 65.567 127.116 66.3321 127.566C67.0972 128.016 67.7122 128.668 68.1773 129.523C68.6573 130.378 68.8974 131.421 68.8974 132.651C68.8974 133.851 68.6573 134.879 68.1773 135.734C67.7122 136.589 67.0972 137.242 66.3321 137.692C65.567 138.142 64.7344 138.367 63.8343 138.367ZM63.8343 136.837C64.7794 136.837 65.537 136.454 66.1071 135.689C66.6921 134.909 66.9847 133.896 66.9847 132.651C66.9847 131.391 66.6921 130.371 66.1071 129.591C65.537 128.811 64.7794 128.421 63.8343 128.421C62.9042 128.421 62.1466 128.811 61.5616 129.591C60.9765 130.371 60.684 131.391 60.684 132.651C60.684 133.896 60.9765 134.909 61.5616 135.689C62.1466 136.454 62.9042 136.837 63.8343 136.837ZM72.2605 138.097V127.161H73.7907L73.9482 129.141H74.0157C74.3907 128.451 74.8483 127.903 75.3883 127.498C75.9284 127.093 76.506 126.891 77.121 126.891C77.5561 126.891 77.9461 126.966 78.2912 127.116L77.9311 128.736C77.7511 128.676 77.5861 128.631 77.4361 128.601C77.286 128.571 77.0985 128.556 76.8735 128.556C76.4085 128.556 75.9209 128.743 75.4108 129.118C74.9158 129.493 74.4807 130.146 74.1057 131.076V138.097H72.2605ZM80.5446 138.097V127.161H82.0748L82.2323 128.736H82.2998C82.7799 128.211 83.3049 127.776 83.875 127.431C84.4451 127.071 85.0526 126.891 85.6977 126.891C86.5378 126.891 87.1904 127.078 87.6554 127.453C88.1355 127.813 88.488 128.323 88.713 128.983C89.2831 128.368 89.8606 127.866 90.4457 127.476C91.0308 127.086 91.6533 126.891 92.3134 126.891C93.4385 126.891 94.2711 127.258 94.8112 127.993C95.3662 128.713 95.6438 129.771 95.6438 131.166V138.097H93.7986V131.414C93.7986 130.393 93.6335 129.651 93.3035 129.186C92.9735 128.721 92.4634 128.488 91.7733 128.488C90.9633 128.488 90.0482 129.051 89.0281 130.176V138.097H87.1829V131.414C87.1829 130.393 87.0178 129.651 86.6878 129.186C86.3578 128.721 85.8402 128.488 85.1351 128.488C84.3251 128.488 83.41 129.051 82.3898 130.176V138.097H80.5446ZM107.193 138.367C106.277 138.367 105.512 138.097 104.897 137.557C104.297 137.002 103.997 136.237 103.997 135.261C103.997 134.061 104.53 133.146 105.595 132.516C106.675 131.871 108.378 131.421 110.703 131.166C110.703 130.701 110.635 130.258 110.5 129.838C110.38 129.418 110.155 129.081 109.825 128.826C109.51 128.556 109.053 128.421 108.453 128.421C107.823 128.421 107.23 128.541 106.675 128.781C106.12 129.021 105.625 129.291 105.19 129.591L104.47 128.308C104.98 127.978 105.602 127.663 106.337 127.363C107.088 127.048 107.898 126.891 108.768 126.891C110.103 126.891 111.071 127.303 111.671 128.128C112.271 128.938 112.571 130.026 112.571 131.391V138.097H111.041L110.883 136.792H110.815C110.305 137.212 109.743 137.579 109.128 137.894C108.528 138.209 107.883 138.367 107.193 138.367ZM107.733 136.882C108.258 136.882 108.753 136.754 109.218 136.499C109.683 136.244 110.178 135.884 110.703 135.419V132.381C108.888 132.606 107.613 132.944 106.878 133.394C106.157 133.844 105.797 134.421 105.797 135.126C105.797 135.742 105.985 136.192 106.36 136.477C106.735 136.747 107.193 136.882 107.733 136.882ZM116.494 138.097V127.161H118.34V138.097H116.494ZM117.44 124.91C117.079 124.91 116.779 124.805 116.539 124.595C116.314 124.37 116.202 124.07 116.202 123.695C116.202 123.335 116.314 123.043 116.539 122.818C116.779 122.593 117.079 122.48 117.44 122.48C117.8 122.48 118.092 122.593 118.317 122.818C118.557 123.043 118.677 123.335 118.677 123.695C118.677 124.07 118.557 124.37 118.317 124.595C118.092 124.805 117.8 124.91 117.44 124.91ZM126.251 138.367C124.885 138.367 123.79 137.872 122.965 136.882C122.14 135.877 121.728 134.466 121.728 132.651C121.728 131.466 121.945 130.446 122.38 129.591C122.83 128.721 123.415 128.053 124.135 127.588C124.87 127.123 125.65 126.891 126.476 126.891C127.106 126.891 127.653 127.003 128.118 127.228C128.583 127.453 129.056 127.761 129.536 128.151L129.446 126.283V122.075H131.314V138.097H129.783L129.626 136.814H129.558C129.138 137.234 128.643 137.602 128.073 137.917C127.503 138.217 126.896 138.367 126.251 138.367ZM126.656 136.814C127.616 136.814 128.546 136.312 129.446 135.307V129.591C128.981 129.171 128.531 128.878 128.096 128.713C127.676 128.533 127.241 128.443 126.791 128.443C126.206 128.443 125.673 128.623 125.193 128.983C124.728 129.328 124.353 129.816 124.068 130.446C123.783 131.061 123.64 131.789 123.64 132.629C123.64 133.934 123.903 134.961 124.428 135.712C124.953 136.447 125.695 136.814 126.656 136.814ZM37.6949 164.71V149.161H39.2251L39.3826 150.421H39.4501C39.9452 150.001 40.4852 149.641 41.0703 149.341C41.6703 149.041 42.2929 148.891 42.938 148.891C44.3481 148.891 45.4207 149.401 46.1558 150.421C46.8909 151.426 47.2584 152.776 47.2584 154.471C47.2584 155.701 47.0334 156.759 46.5834 157.644C46.1483 158.529 45.5708 159.204 44.8507 159.669C44.1456 160.134 43.373 160.367 42.5329 160.367C42.0229 160.367 41.5128 160.254 41.0028 160.029C40.5077 159.804 40.0052 159.497 39.4951 159.107L39.5401 161.019V164.71H37.6949ZM42.2179 158.814C43.118 158.814 43.8606 158.432 44.4456 157.667C45.0457 156.886 45.3457 155.821 45.3457 154.471C45.3457 153.271 45.1207 152.303 44.6707 151.568C44.2356 150.818 43.5005 150.443 42.4654 150.443C42.0004 150.443 41.5278 150.571 41.0478 150.826C40.5827 151.081 40.0802 151.448 39.5401 151.928V157.667C40.0352 158.087 40.5152 158.387 40.9803 158.567C41.4453 158.732 41.8579 158.814 42.2179 158.814ZM50.6597 160.097V149.161H52.1899L52.3474 151.141H52.4149C52.79 150.451 53.2475 149.903 53.7876 149.498C54.3276 149.093 54.9052 148.891 55.5203 148.891C55.9553 148.891 56.3453 148.966 56.6904 149.116L56.3303 150.736C56.1503 150.676 55.9853 150.631 55.8353 150.601C55.6853 150.571 55.4978 150.556 55.2727 150.556C54.8077 150.556 54.3201 150.743 53.8101 151.118C53.315 151.493 52.88 152.146 52.5049 153.076V160.097H50.6597ZM62.9771 160.367C62.092 160.367 61.2594 160.142 60.4793 159.692C59.7142 159.242 59.0917 158.589 58.6116 157.734C58.1466 156.879 57.914 155.851 57.914 154.651C57.914 153.421 58.1466 152.378 58.6116 151.523C59.0917 150.668 59.7142 150.016 60.4793 149.566C61.2594 149.116 62.092 148.891 62.9771 148.891C63.8772 148.891 64.7098 149.116 65.4748 149.566C66.2399 150.016 66.855 150.668 67.32 151.523C67.8001 152.378 68.0401 153.421 68.0401 154.651C68.0401 155.851 67.8001 156.879 67.32 157.734C66.855 158.589 66.2399 159.242 65.4748 159.692C64.7098 160.142 63.8772 160.367 62.9771 160.367ZM62.9771 158.837C63.9222 158.837 64.6798 158.454 65.2498 157.689C65.8349 156.909 66.1274 155.896 66.1274 154.651C66.1274 153.391 65.8349 152.371 65.2498 151.591C64.6798 150.811 63.9222 150.421 62.9771 150.421C62.047 150.421 61.2894 150.811 60.7043 151.591C60.1193 152.371 59.8267 153.391 59.8267 154.651C59.8267 155.896 60.1193 156.909 60.7043 157.689C61.2894 158.454 62.047 158.837 62.9771 158.837ZM75.0937 165.137C73.7585 165.137 72.6709 164.882 71.8308 164.372C70.9907 163.862 70.5707 163.135 70.5707 162.19C70.5707 161.724 70.7132 161.274 70.9982 160.839C71.2833 160.419 71.6733 160.044 72.1683 159.714V159.624C71.8983 159.459 71.6658 159.227 71.4708 158.927C71.2908 158.627 71.2007 158.267 71.2007 157.847C71.2007 157.382 71.3283 156.976 71.5833 156.631C71.8383 156.286 72.1083 156.016 72.3934 155.821V155.731C72.0333 155.431 71.7033 155.026 71.4033 154.516C71.1182 154.006 70.9757 153.429 70.9757 152.784C70.9757 151.988 71.1632 151.298 71.5383 150.713C71.9133 150.128 72.4159 149.678 73.0459 149.363C73.676 149.048 74.3586 148.891 75.0937 148.891C75.3937 148.891 75.6787 148.921 75.9487 148.981C76.2188 149.026 76.4513 149.086 76.6463 149.161H80.4492V150.578H78.199C78.454 150.818 78.664 151.141 78.8291 151.546C79.0091 151.936 79.0991 152.363 79.0991 152.829C79.0991 153.609 78.9191 154.284 78.559 154.854C78.199 155.424 77.7189 155.866 77.1189 156.181C76.5188 156.481 75.8437 156.631 75.0937 156.631C74.5086 156.631 73.961 156.504 73.451 156.249C73.256 156.414 73.0909 156.601 72.9559 156.811C72.8209 157.006 72.7534 157.254 72.7534 157.554C72.7534 157.899 72.8884 158.184 73.1585 158.409C73.4435 158.634 73.9535 158.747 74.6886 158.747H76.8038C78.079 158.747 79.0316 158.957 79.6616 159.377C80.3067 159.782 80.6292 160.442 80.6292 161.357C80.6292 162.032 80.4042 162.655 79.9542 163.225C79.5041 163.795 78.8666 164.252 78.0415 164.597C77.2164 164.957 76.2338 165.137 75.0937 165.137ZM75.0937 155.394C75.7237 155.394 76.2638 155.161 76.7138 154.696C77.1789 154.216 77.4114 153.579 77.4114 152.784C77.4114 151.988 77.1864 151.366 76.7363 150.916C76.2863 150.466 75.7387 150.241 75.0937 150.241C74.4486 150.241 73.901 150.466 73.451 150.916C73.0009 151.366 72.7759 151.988 72.7759 152.784C72.7759 153.579 73.0009 154.216 73.451 154.696C73.916 155.161 74.4636 155.394 75.0937 155.394ZM75.3637 163.855C76.4138 163.855 77.2539 163.622 77.884 163.157C78.514 162.707 78.8291 162.197 78.8291 161.627C78.8291 161.117 78.634 160.764 78.244 160.569C77.869 160.374 77.3289 160.277 76.6238 160.277H74.7336C74.5236 160.277 74.2911 160.262 74.036 160.232C73.796 160.202 73.556 160.157 73.316 160.097C72.9259 160.382 72.6409 160.682 72.4609 160.997C72.2809 161.312 72.1908 161.627 72.1908 161.942C72.1908 162.527 72.4684 162.992 73.0234 163.337C73.5935 163.682 74.3736 163.855 75.3637 163.855ZM83.2254 160.097V149.161H84.7555L84.9131 151.141H84.9806C85.3556 150.451 85.8132 149.903 86.3532 149.498C86.8933 149.093 87.4708 148.891 88.0859 148.891C88.5209 148.891 88.911 148.966 89.256 149.116L88.896 150.736C88.716 150.676 88.5509 150.631 88.4009 150.601C88.2509 150.571 88.0634 150.556 87.8384 150.556C87.3733 150.556 86.8858 150.743 86.3757 151.118C85.8807 151.493 85.4456 152.146 85.0706 153.076V160.097H83.2254ZM93.4804 160.367C92.5653 160.367 91.8002 160.097 91.1852 159.557C90.5851 159.002 90.2851 158.237 90.2851 157.261C90.2851 156.061 90.8176 155.146 91.8827 154.516C92.9629 153.871 94.6655 153.421 96.9908 153.166C96.9908 152.701 96.9233 152.258 96.7883 151.838C96.6683 151.418 96.4432 151.081 96.1132 150.826C95.7982 150.556 95.3406 150.421 94.7405 150.421C94.1105 150.421 93.5179 150.541 92.9629 150.781C92.4078 151.021 91.9127 151.291 91.4777 151.591L90.7576 150.308C91.2677 149.978 91.8902 149.663 92.6253 149.363C93.3754 149.048 94.1855 148.891 95.0556 148.891C96.3907 148.891 97.3583 149.303 97.9584 150.128C98.5585 150.938 98.8585 152.026 98.8585 153.391V160.097H97.3283L97.1708 158.792H97.1033C96.5932 159.212 96.0307 159.579 95.4156 159.894C94.8156 160.209 94.1705 160.367 93.4804 160.367ZM94.0205 158.882C94.5455 158.882 95.0406 158.754 95.5056 158.499C95.9707 158.244 96.4657 157.884 96.9908 157.419V154.381C95.1756 154.606 93.9005 154.944 93.1654 155.394C92.4453 155.844 92.0853 156.421 92.0853 157.126C92.0853 157.742 92.2728 158.192 92.6478 158.477C93.0229 158.747 93.4804 158.882 94.0205 158.882ZM102.782 160.097V149.161H104.312L104.47 150.736H104.537C105.017 150.211 105.543 149.776 106.113 149.431C106.683 149.071 107.29 148.891 107.935 148.891C108.775 148.891 109.428 149.078 109.893 149.453C110.373 149.813 110.726 150.323 110.951 150.983C111.521 150.368 112.098 149.866 112.683 149.476C113.268 149.086 113.891 148.891 114.551 148.891C115.676 148.891 116.509 149.258 117.049 149.993C117.604 150.713 117.881 151.771 117.881 153.166V160.097H116.036V153.414C116.036 152.393 115.871 151.651 115.541 151.186C115.211 150.721 114.701 150.488 114.011 150.488C113.201 150.488 112.286 151.051 111.266 152.176V160.097H109.42V153.414C109.42 152.393 109.255 151.651 108.925 151.186C108.595 150.721 108.078 150.488 107.373 150.488C106.563 150.488 105.648 151.051 104.627 152.176V160.097H102.782ZM124.78 160.367C124 160.367 123.257 160.224 122.552 159.939C121.847 159.639 121.232 159.279 120.707 158.859L121.63 157.622C122.11 157.997 122.605 158.312 123.115 158.567C123.625 158.807 124.202 158.927 124.847 158.927C125.567 158.927 126.107 158.762 126.468 158.432C126.828 158.087 127.008 157.682 127.008 157.216C127.008 156.841 126.88 156.526 126.625 156.271C126.385 156.016 126.07 155.806 125.68 155.641C125.305 155.461 124.915 155.296 124.51 155.146C124 154.951 123.497 154.734 123.002 154.494C122.507 154.239 122.102 153.916 121.787 153.526C121.472 153.121 121.314 152.611 121.314 151.996C121.314 151.111 121.645 150.376 122.305 149.791C122.98 149.191 123.91 148.891 125.095 148.891C125.77 148.891 126.4 149.011 126.985 149.251C127.57 149.491 128.073 149.783 128.493 150.128L127.593 151.298C127.218 151.013 126.828 150.781 126.423 150.601C126.017 150.421 125.575 150.331 125.095 150.331C124.405 150.331 123.895 150.488 123.565 150.803C123.25 151.118 123.092 151.486 123.092 151.906C123.092 152.251 123.205 152.536 123.43 152.761C123.655 152.971 123.947 153.159 124.307 153.324C124.667 153.474 125.05 153.631 125.455 153.796C125.98 153.991 126.498 154.216 127.008 154.471C127.518 154.711 127.938 155.041 128.268 155.461C128.613 155.866 128.785 156.414 128.785 157.104C128.785 157.689 128.628 158.229 128.313 158.724C128.013 159.219 127.563 159.617 126.963 159.917C126.378 160.217 125.65 160.367 124.78 160.367Z" fill="#57AC49"/>
<path fill-rule="evenodd" clip-rule="evenodd" d="M57.6489 22.524H57.3303C55.156 22.524 53.2807 22.524 51.7413 22.663C50.1141 22.8112 48.5028 23.1373 46.9841 24.0145C45.2932 24.9903 43.8888 26.3947 42.9129 28.0856C42.0356 29.6043 41.7095 31.2156 41.5614 32.8428C41.4224 34.3821 41.4224 36.2575 41.4224 38.4317V88.1875C41.4224 90.3617 41.4224 92.2369 41.5614 93.7764C41.7096 95.4035 42.0356 97.0148 42.9129 98.5335C43.8887 100.224 45.2931 101.629 46.9841 102.605C48.5028 103.482 50.1141 103.809 51.7413 103.956C53.2806 104.095 55.156 104.095 57.3303 104.095H57.6489C59.8231 104.095 61.6984 104.095 63.237 103.956C64.865 103.809 66.4764 103.482 67.9951 102.605C68.6597 102.221 69.2812 101.77 69.849 101.263C70.4167 101.77 71.0375 102.221 71.7029 102.605C73.2216 103.482 74.8329 103.809 76.46 103.956C77.9986 104.095 79.8748 104.095 82.049 104.095H82.3669C84.5411 104.095 86.4172 104.095 87.9559 103.956C89.583 103.809 91.1943 103.482 92.713 102.605C93.3785 102.221 93.9992 101.77 94.5669 101.263C95.1355 101.77 95.7554 102.221 96.4208 102.605C97.9395 103.482 99.5517 103.809 101.179 103.956C102.717 104.096 104.593 104.095 106.767 104.095H107.086C109.26 104.095 111.135 104.096 112.675 103.956C114.302 103.809 115.913 103.482 117.432 102.605C119.123 101.629 120.527 100.224 121.504 98.5335C122.38 97.0148 122.707 95.4036 122.855 93.7764C122.994 92.237 122.994 90.3625 122.994 88.1883V38.4326C122.994 36.2583 122.994 34.3831 122.855 32.8436C122.707 31.2165 122.38 29.6052 121.504 28.0865C120.527 26.3957 119.123 24.9913 117.432 24.0154C115.913 23.1381 114.302 22.812 112.675 22.6639C111.135 22.5248 109.26 22.5248 107.086 22.5248H106.767C104.593 22.5248 102.718 22.5248 101.179 22.6639C99.5518 22.812 97.9396 23.1381 96.4208 24.0154C95.7554 24.3994 95.1355 24.8496 94.567 25.357C93.9992 24.8496 93.3785 24.3994 92.7131 24.0154C91.1944 23.1381 89.5831 22.812 87.9559 22.6639C86.4173 22.5248 84.5411 22.5248 82.3677 22.5248H82.0491C79.8749 22.5248 77.9987 22.5248 76.4601 22.6639C74.833 22.812 73.2216 23.1381 71.7029 24.0154C71.0375 24.3994 70.4168 24.8496 69.849 25.357C69.2813 24.8496 68.6597 24.3994 67.9951 24.0154C66.4764 23.1381 64.8651 22.812 63.2371 22.6639C61.6985 22.5248 59.8232 22.5248 57.6489 22.5248L57.6489 22.524ZM66.1412 38.2993C66.1404 36.0854 66.1329 34.628 66.0319 33.5123C65.931 32.3991 65.7605 31.9952 65.6438 31.7933C65.3185 31.2297 64.8509 30.7612 64.2873 30.436C64.0854 30.3193 63.6807 30.1496 62.5675 30.0487C61.4038 29.9427 59.8678 29.9394 57.4891 29.9394C55.1113 29.9394 53.5752 29.9427 52.4107 30.0487C51.2976 30.1496 50.8937 30.3193 50.6917 30.436C50.1281 30.7613 49.6597 31.2297 49.3344 31.7933C49.2177 31.9952 49.0481 32.3991 48.9471 33.5123C48.8412 34.6767 48.8379 36.2128 48.8379 38.5906V79.3757H66.1411L66.1412 38.2993ZM66.1412 86.7923H48.8379V88.0287C48.8379 90.4065 48.8412 91.9426 48.9472 93.107C49.0482 94.2202 49.2178 94.6241 49.3345 94.826C49.6598 95.3896 50.1282 95.8581 50.6918 96.1833C50.8937 96.3 51.2976 96.4705 52.4108 96.5715C53.5753 96.6766 55.1113 96.6799 57.4892 96.6799C59.8679 96.6799 61.404 96.6766 62.5676 96.5715C63.6807 96.4705 64.0855 96.3 64.2874 96.1833C64.851 95.858 65.3186 95.3896 65.6439 94.826C65.7606 94.6241 65.9311 94.2202 66.032 93.107C66.1338 91.9864 66.1404 90.5207 66.1413 88.2912L66.1412 86.7923ZM73.5567 86.7923H90.8592V88.0287C90.8592 90.4065 90.8558 91.9426 90.7499 93.107C90.6489 94.2202 90.4793 94.6241 90.3626 94.826C90.0373 95.3896 89.5689 95.8581 89.0053 96.1833C88.8033 96.3 88.3995 96.4697 87.2863 96.5706C86.1226 96.6766 84.5866 96.6799 82.2079 96.6799C79.8292 96.6799 78.2931 96.6766 77.1295 96.5706C76.0164 96.4697 75.6125 96.3 75.4105 96.1833C74.8469 95.858 74.3785 95.3896 74.0532 94.826C73.9365 94.6241 73.7669 94.2202 73.6659 93.107C73.5641 91.9831 73.5567 90.5133 73.5567 88.2745L73.5567 86.7923ZM90.8592 79.3768H73.5567V38.2993C73.5567 36.0854 73.5642 34.628 73.666 33.5123C73.767 32.3991 73.9366 31.9952 74.0533 31.7933C74.3786 31.2297 74.847 30.7612 75.4106 30.436C75.6126 30.3193 76.0165 30.1496 77.1296 30.0487C78.2933 29.9427 79.8293 29.9394 82.208 29.9394C84.5867 29.9394 86.1228 29.9427 87.2864 30.0487C88.3995 30.1496 88.8034 30.3193 89.0054 30.436C89.569 30.7613 90.0374 31.2297 90.3627 31.7933C90.4794 31.9952 90.6491 32.3991 90.75 33.5123C90.8559 34.6767 90.8592 36.2128 90.8592 38.5906L90.8592 79.3768ZM98.2747 86.7923V88.0287C98.2747 90.4065 98.2789 91.9426 98.384 93.107C98.4849 94.2202 98.6554 94.6241 98.7721 94.826C99.0974 95.3896 99.565 95.8581 100.129 96.1833C100.331 96.3 100.735 96.4705 101.848 96.5715C103.012 96.6766 104.548 96.6799 106.927 96.6799C109.305 96.6799 110.841 96.6766 112.005 96.5715C113.118 96.4705 113.522 96.3 113.724 96.1833C114.288 95.858 114.756 95.3896 115.081 94.826C115.198 94.6241 115.368 94.2202 115.469 93.107C115.575 91.9426 115.578 90.4065 115.578 88.0287V86.7923H98.2747ZM115.578 79.3768H98.2747V38.5917C98.2747 36.2138 98.2789 34.6778 98.384 33.5133C98.4849 32.4002 98.6554 31.9963 98.7721 31.7943C99.0974 31.2307 99.565 30.7623 100.129 30.4371C100.331 30.3204 100.735 30.1507 101.848 30.0497C103.012 29.9438 104.548 29.9405 106.927 29.9405C109.305 29.9405 110.841 29.9438 112.005 30.0497C113.118 30.1507 113.522 30.3204 113.724 30.4371C114.288 30.7623 114.756 31.2307 115.081 31.7943C115.198 31.9963 115.368 32.4002 115.469 33.5133C115.575 34.6778 115.578 36.2138 115.578 38.5917L115.578 79.3768Z" fill="#F5C46A"/>
<rect x="1.57437" y="1.42801" width="161.267" height="178.144" rx="24.8464" stroke="#57AC49" stroke-width="2.8128"/>
</svg>
