<svg width="165" height="181" viewBox="0 0 165 181" fill="none" xmlns="http://www.w3.org/2000/svg">
<path d="M20.9213 138.097V123.335H22.7889V138.097H20.9213ZM30.8709 138.367C29.5058 138.367 28.4107 137.872 27.5856 136.882C26.7605 135.877 26.3479 134.466 26.3479 132.651C26.3479 131.466 26.5655 130.446 27.0005 129.591C27.4506 128.721 28.0356 128.053 28.7557 127.588C29.4908 127.123 30.2709 126.891 31.0959 126.891C31.726 126.891 32.2736 127.003 32.7386 127.228C33.2037 127.453 33.6762 127.761 34.1563 128.151L34.0663 126.283V122.075H35.934V138.097H34.4038L34.2463 136.814H34.1788C33.7587 137.234 33.2637 137.602 32.6936 137.917C32.1236 138.217 31.516 138.367 30.8709 138.367ZM31.276 136.814C32.2361 136.814 33.1662 136.312 34.0663 135.307V129.591C33.6012 129.171 33.1512 128.878 32.7161 128.713C32.2961 128.533 31.861 128.443 31.411 128.443C30.8259 128.443 30.2934 128.623 29.8133 128.983C29.3483 129.328 28.9732 129.816 28.6882 130.446C28.4032 131.061 28.2606 131.789 28.2606 132.629C28.2606 133.934 28.5232 134.961 29.0482 135.712C29.5733 136.447 30.3159 136.814 31.276 136.814ZM44.5333 138.367C43.5582 138.367 42.6731 138.142 41.878 137.692C41.0829 137.227 40.4529 136.567 39.9878 135.712C39.5228 134.856 39.2902 133.836 39.2902 132.651C39.2902 131.451 39.5228 130.423 39.9878 129.568C40.4679 128.713 41.0829 128.053 41.833 127.588C42.5831 127.123 43.3707 126.891 44.1958 126.891C45.5909 126.891 46.6635 127.356 47.4136 128.286C48.1787 129.216 48.5612 130.461 48.5612 132.021C48.5612 132.216 48.5537 132.411 48.5387 132.606C48.5387 132.786 48.5237 132.944 48.4937 133.079H41.1129C41.1879 134.234 41.548 135.156 42.1931 135.847C42.8531 136.537 43.7082 136.882 44.7583 136.882C45.2834 136.882 45.7634 136.807 46.1985 136.657C46.6485 136.492 47.0761 136.282 47.4811 136.027L48.1337 137.242C47.6686 137.542 47.1361 137.804 46.536 138.029C45.951 138.254 45.2834 138.367 44.5333 138.367ZM41.0904 131.751H46.9411C46.9411 130.641 46.701 129.801 46.221 129.231C45.7559 128.646 45.0959 128.353 44.2408 128.353C43.4757 128.353 42.7856 128.653 42.1706 129.253C41.5705 129.838 41.2105 130.671 41.0904 131.751ZM51.7466 138.097V127.161H53.2768L53.4343 128.736H53.5018C54.0269 128.211 54.582 127.776 55.167 127.431C55.7521 127.071 56.4196 126.891 57.1697 126.891C58.3248 126.891 59.1649 127.258 59.69 127.993C60.2301 128.713 60.5001 129.771 60.5001 131.166V138.097H58.6549V131.414C58.6549 130.393 58.4899 129.651 58.1598 129.186C57.8298 128.721 57.3047 128.488 56.5847 128.488C56.0296 128.488 55.5271 128.631 55.077 128.916C54.642 129.201 54.1469 129.621 53.5918 130.176V138.097H51.7466ZM67.9785 138.367C66.8084 138.367 65.9908 138.029 65.5258 137.354C65.0757 136.679 64.8507 135.802 64.8507 134.721V128.668H63.2305V127.273L64.9407 127.161L65.1657 124.1H66.7184V127.161H69.6662V128.668H66.7184V134.744C66.7184 135.419 66.8384 135.944 67.0784 136.319C67.3335 136.679 67.776 136.859 68.4061 136.859C68.6011 136.859 68.8111 136.829 69.0361 136.769C69.2612 136.694 69.4637 136.627 69.6437 136.567L70.0037 137.962C69.7037 138.067 69.3737 138.157 69.0136 138.232C68.6686 138.322 68.3236 138.367 67.9785 138.367ZM72.622 138.097V127.161H74.4672V138.097H72.622ZM73.5671 124.91C73.2071 124.91 72.9071 124.805 72.667 124.595C72.442 124.37 72.3295 124.07 72.3295 123.695C72.3295 123.335 72.442 123.043 72.667 122.818C72.9071 122.593 73.2071 122.48 73.5671 122.48C73.9272 122.48 74.2197 122.593 74.4447 122.818C74.6847 123.043 74.8048 123.335 74.8048 123.695C74.8048 124.07 74.6847 124.37 74.4447 124.595C74.2197 124.805 73.9272 124.91 73.5671 124.91ZM78.9578 138.097V128.668H77.4726V127.273L78.9578 127.161V125.428C78.9578 124.318 79.2128 123.44 79.7229 122.795C80.2479 122.135 81.058 121.805 82.1531 121.805C82.4981 121.805 82.8282 121.843 83.1432 121.918C83.4582 121.978 83.7358 122.06 83.9758 122.165L83.5708 123.583C83.1657 123.403 82.7532 123.313 82.3331 123.313C81.313 123.313 80.803 124.018 80.803 125.428V127.161H83.1207V128.668H80.803V138.097H78.9578ZM85.8763 142.8C85.6363 142.8 85.4037 142.777 85.1787 142.732C84.9687 142.687 84.7737 142.635 84.5937 142.575L84.9537 141.112C85.0737 141.142 85.2087 141.172 85.3587 141.202C85.5088 141.247 85.6513 141.27 85.7863 141.27C86.4013 141.27 86.9114 141.045 87.3164 140.595C87.7215 140.16 88.0365 139.604 88.2615 138.929L88.5091 138.119L84.1211 127.161H86.0338L88.2615 133.214C88.4266 133.679 88.5991 134.181 88.7791 134.721C88.9741 135.261 89.1541 135.787 89.3192 136.297H89.4092C89.5742 135.802 89.7317 135.284 89.8817 134.744C90.0317 134.204 90.1817 133.694 90.3318 133.214L92.2895 127.161H94.0897L89.9717 138.997C89.7167 139.717 89.4092 140.362 89.0491 140.932C88.7041 141.502 88.269 141.952 87.744 142.282C87.2339 142.627 86.6114 142.8 85.8763 142.8ZM103.629 138.367C102.939 138.367 102.436 138.157 102.121 137.737C101.821 137.302 101.671 136.687 101.671 135.892V122.075H103.516V136.027C103.516 136.312 103.569 136.522 103.674 136.657C103.779 136.777 103.899 136.837 104.034 136.837C104.094 136.837 104.146 136.837 104.191 136.837C104.251 136.822 104.334 136.807 104.439 136.792L104.687 138.187C104.567 138.247 104.424 138.292 104.259 138.322C104.094 138.352 103.884 138.367 103.629 138.367ZM112.143 138.367C111.258 138.367 110.425 138.142 109.645 137.692C108.88 137.242 108.257 136.589 107.777 135.734C107.312 134.879 107.08 133.851 107.08 132.651C107.08 131.421 107.312 130.378 107.777 129.523C108.257 128.668 108.88 128.016 109.645 127.566C110.425 127.116 111.258 126.891 112.143 126.891C113.043 126.891 113.875 127.116 114.64 127.566C115.406 128.016 116.021 128.668 116.486 129.523C116.966 130.378 117.206 131.421 117.206 132.651C117.206 133.851 116.966 134.879 116.486 135.734C116.021 136.589 115.406 137.242 114.64 137.692C113.875 138.142 113.043 138.367 112.143 138.367ZM112.143 136.837C113.088 136.837 113.845 136.454 114.415 135.689C115 134.909 115.293 133.896 115.293 132.651C115.293 131.391 115 130.371 114.415 129.591C113.845 128.811 113.088 128.421 112.143 128.421C111.213 128.421 110.455 128.811 109.87 129.591C109.285 130.371 108.992 131.391 108.992 132.651C108.992 133.896 109.285 134.909 109.87 135.689C110.455 136.454 111.213 136.837 112.143 136.837ZM124.889 138.367C123.929 138.367 123.059 138.142 122.279 137.692C121.499 137.242 120.884 136.589 120.434 135.734C119.984 134.879 119.759 133.851 119.759 132.651C119.759 131.421 119.999 130.378 120.479 129.523C120.974 128.668 121.619 128.016 122.414 127.566C123.224 127.116 124.094 126.891 125.024 126.891C125.744 126.891 126.359 127.018 126.87 127.273C127.395 127.528 127.845 127.828 128.22 128.173L127.275 129.388C126.96 129.103 126.622 128.871 126.262 128.691C125.917 128.511 125.527 128.421 125.092 128.421C124.432 128.421 123.839 128.601 123.314 128.961C122.804 129.306 122.399 129.801 122.099 130.446C121.814 131.076 121.671 131.811 121.671 132.651C121.671 133.896 121.979 134.909 122.594 135.689C123.224 136.454 124.042 136.837 125.047 136.837C125.557 136.837 126.029 136.732 126.464 136.522C126.9 136.297 127.282 136.034 127.612 135.734L128.422 136.972C127.927 137.407 127.38 137.752 126.78 138.007C126.179 138.247 125.549 138.367 124.889 138.367ZM133.615 138.367C132.7 138.367 131.935 138.097 131.319 137.557C130.719 137.002 130.419 136.237 130.419 135.261C130.419 134.061 130.952 133.146 132.017 132.516C133.097 131.871 134.8 131.421 137.125 131.166C137.125 130.701 137.058 130.258 136.923 129.838C136.803 129.418 136.578 129.081 136.247 128.826C135.932 128.556 135.475 128.421 134.875 128.421C134.245 128.421 133.652 128.541 133.097 128.781C132.542 129.021 132.047 129.291 131.612 129.591L130.892 128.308C131.402 127.978 132.025 127.663 132.76 127.363C133.51 127.048 134.32 126.891 135.19 126.891C136.525 126.891 137.493 127.303 138.093 128.128C138.693 128.938 138.993 130.026 138.993 131.391V138.097H137.463L137.305 136.792H137.238C136.728 137.212 136.165 137.579 135.55 137.894C134.95 138.209 134.305 138.367 133.615 138.367ZM134.155 136.882C134.68 136.882 135.175 136.754 135.64 136.499C136.105 136.244 136.6 135.884 137.125 135.419V132.381C135.31 132.606 134.035 132.944 133.3 133.394C132.58 133.844 132.22 134.421 132.22 135.126C132.22 135.742 132.407 136.192 132.782 136.477C133.157 136.747 133.615 136.882 134.155 136.882ZM144.874 138.367C144.184 138.367 143.682 138.157 143.367 137.737C143.067 137.302 142.917 136.687 142.917 135.892V122.075H144.762V136.027C144.762 136.312 144.814 136.522 144.919 136.657C145.024 136.777 145.144 136.837 145.279 136.837C145.339 136.837 145.392 136.837 145.437 136.837C145.497 136.822 145.579 136.807 145.684 136.792L145.932 138.187C145.812 138.247 145.669 138.292 145.504 138.322C145.339 138.352 145.129 138.367 144.874 138.367ZM62.3181 160.367C61.358 160.367 60.4879 160.142 59.7078 159.692C58.9278 159.242 58.3127 158.589 57.8626 157.734C57.4126 156.879 57.1876 155.851 57.1876 154.651C57.1876 153.421 57.4276 152.378 57.9077 151.523C58.4027 150.668 59.0478 150.016 59.8429 149.566C60.6529 149.116 61.523 148.891 62.4531 148.891C63.1732 148.891 63.7883 149.018 64.2983 149.273C64.8234 149.528 65.2734 149.828 65.6485 150.173L64.7034 151.388C64.3883 151.103 64.0508 150.871 63.6908 150.691C63.3457 150.511 62.9557 150.421 62.5206 150.421C61.8606 150.421 61.268 150.601 60.743 150.961C60.2329 151.306 59.8279 151.801 59.5278 152.446C59.2428 153.076 59.1003 153.811 59.1003 154.651C59.1003 155.896 59.4078 156.909 60.0229 157.689C60.6529 158.454 61.4705 158.837 62.4756 158.837C62.9857 158.837 63.4582 158.732 63.8933 158.522C64.3283 158.297 64.7109 158.034 65.0409 157.734L65.851 158.972C65.3559 159.407 64.8084 159.752 64.2083 160.007C63.6083 160.247 62.9782 160.367 62.3181 160.367ZM68.743 160.097V149.161H70.2732L70.4307 151.141H70.4982C70.8732 150.451 71.3308 149.903 71.8708 149.498C72.4109 149.093 72.9885 148.891 73.6035 148.891C74.0386 148.891 74.4286 148.966 74.7736 149.116L74.4136 150.736C74.2336 150.676 74.0686 150.631 73.9186 150.601C73.7685 150.571 73.581 150.556 73.356 150.556C72.8909 150.556 72.4034 150.743 71.8933 151.118C71.3983 151.493 70.9632 152.146 70.5882 153.076V160.097H68.743ZM81.0603 160.367C80.1752 160.367 79.3427 160.142 78.5626 159.692C77.7975 159.242 77.1749 158.589 76.6949 157.734C76.2298 156.879 75.9973 155.851 75.9973 154.651C75.9973 153.421 76.2298 152.378 76.6949 151.523C77.1749 150.668 77.7975 150.016 78.5626 149.566C79.3427 149.116 80.1752 148.891 81.0603 148.891C81.9604 148.891 82.793 149.116 83.5581 149.566C84.3232 150.016 84.9383 150.668 85.4033 151.523C85.8834 152.378 86.1234 153.421 86.1234 154.651C86.1234 155.851 85.8834 156.879 85.4033 157.734C84.9383 158.589 84.3232 159.242 83.5581 159.692C82.793 160.142 81.9604 160.367 81.0603 160.367ZM81.0603 158.837C82.0054 158.837 82.763 158.454 83.3331 157.689C83.9181 156.909 84.2107 155.896 84.2107 154.651C84.2107 153.391 83.9181 152.371 83.3331 151.591C82.763 150.811 82.0054 150.421 81.0603 150.421C80.1302 150.421 79.3727 150.811 78.7876 151.591C78.2025 152.371 77.91 153.391 77.91 154.651C77.91 155.896 78.2025 156.909 78.7876 157.689C79.3727 158.454 80.1302 158.837 81.0603 158.837ZM89.4865 164.71V149.161H91.0167L91.1742 150.421H91.2417C91.7368 150.001 92.2768 149.641 92.8619 149.341C93.4619 149.041 94.0845 148.891 94.7296 148.891C96.1397 148.891 97.2123 149.401 97.9474 150.421C98.6825 151.426 99.05 152.776 99.05 154.471C99.05 155.701 98.825 156.759 98.375 157.644C97.9399 158.529 97.3624 159.204 96.6423 159.669C95.9372 160.134 95.1646 160.367 94.3245 160.367C93.8145 160.367 93.3044 160.254 92.7944 160.029C92.2993 159.804 91.7968 159.497 91.2867 159.107L91.3317 161.019V164.71H89.4865ZM94.0095 158.814C94.9096 158.814 95.6522 158.432 96.2372 157.667C96.8373 156.886 97.1373 155.821 97.1373 154.471C97.1373 153.271 96.9123 152.303 96.4623 151.568C96.0272 150.818 95.2921 150.443 94.257 150.443C93.792 150.443 93.3194 150.571 92.8394 150.826C92.3743 151.081 91.8718 151.448 91.3317 151.928V157.667C91.8268 158.087 92.3068 158.387 92.7719 158.567C93.2369 158.732 93.6495 158.814 94.0095 158.814ZM105.309 160.367C104.529 160.367 103.786 160.224 103.081 159.939C102.376 159.639 101.761 159.279 101.236 158.859L102.159 157.622C102.639 157.997 103.134 158.312 103.644 158.567C104.154 158.807 104.732 158.927 105.377 158.927C106.097 158.927 106.637 158.762 106.997 158.432C107.357 158.087 107.537 157.682 107.537 157.216C107.537 156.841 107.409 156.526 107.154 156.271C106.914 156.016 106.599 155.806 106.209 155.641C105.834 155.461 105.444 155.296 105.039 155.146C104.529 154.951 104.027 154.734 103.531 154.494C103.036 154.239 102.631 153.916 102.316 153.526C102.001 153.121 101.844 152.611 101.844 151.996C101.844 151.111 102.174 150.376 102.834 149.791C103.509 149.191 104.439 148.891 105.624 148.891C106.299 148.891 106.929 149.011 107.514 149.251C108.099 149.491 108.602 149.783 109.022 150.128L108.122 151.298C107.747 151.013 107.357 150.781 106.952 150.601C106.547 150.421 106.104 150.331 105.624 150.331C104.934 150.331 104.424 150.488 104.094 150.803C103.779 151.118 103.621 151.486 103.621 151.906C103.621 152.251 103.734 152.536 103.959 152.761C104.184 152.971 104.477 153.159 104.837 153.324C105.197 153.474 105.579 153.631 105.984 153.796C106.509 153.991 107.027 154.216 107.537 154.471C108.047 154.711 108.467 155.041 108.797 155.461C109.142 155.866 109.315 156.414 109.315 157.104C109.315 157.689 109.157 158.229 108.842 158.724C108.542 159.219 108.092 159.617 107.492 159.917C106.907 160.217 106.179 160.367 105.309 160.367Z" fill="#57AC49"/>
<path d="M82.624 22.5254C60.1245 22.5254 41.8384 40.8113 41.8384 63.3103C41.8384 85.8094 60.1245 104.095 82.624 104.095C105.123 104.095 123.41 85.8094 123.41 63.3103C123.41 54.1539 120.361 45.6832 115.252 38.8703C115.248 40.7878 114.86 42.78 114.264 44.765C117.135 49.6576 118.938 55.2686 119.267 61.2698H105.82C105.059 62.4049 104.138 63.5479 103.271 64.392C102.96 64.6637 102.953 65.3479 100.977 65.3479C99.0009 65.3479 98.9945 64.6637 98.6823 64.392C97.6744 63.4881 96.8174 62.269 96.1332 61.2698H84.6622V46.9634C85.8863 46.9428 87.1323 46.9193 88.3906 46.8674C87.8878 45.5246 87.4411 44.1612 87.1481 42.8204C86.3067 42.8531 85.4916 42.8673 84.6631 42.8844V28.6101C86.1922 29.0148 87.6561 29.8455 89.0288 31.0639C89.8325 29.8356 90.8289 28.7432 91.9606 27.8135C93.6029 26.6897 95.3454 25.6293 96.9636 25.1371C92.5019 23.4579 87.6683 22.524 82.6249 22.524L82.624 22.5254ZM100.977 25.5845C93.6809 25.5845 87.722 31.5433 87.722 38.8397C87.722 43.7678 90.4539 49.6384 93.2029 54.612C95.1412 57.767 96.8616 61.1788 99.3523 63.6289C99.6033 63.848 99.6389 64.3302 100.977 64.3302C102.316 64.3302 102.351 63.8487 102.603 63.6289C105.144 60.9384 107.197 57.412 108.752 54.612C111.5 49.6384 114.233 43.7678 114.233 38.8397C114.233 31.5433 108.274 25.5845 100.977 25.5845ZM73.3198 27.7828C70.4364 31.0751 68.0025 35.8588 66.2456 41.6433C62.3865 40.9513 58.7278 39.9108 55.6033 38.425C60.2968 33.329 66.4022 29.5801 73.3198 27.7828ZM80.5843 28.5794V42.8858C76.945 42.8254 73.1262 42.6127 69.4 42.1212C72.0536 34.7863 76.0131 29.7301 80.5843 28.5794ZM100.977 29.6626C106.07 29.6626 110.154 33.7473 110.154 38.8389C110.154 42.0678 107.787 47.9228 105.183 52.6353C103.853 54.9127 102.465 57.3279 100.976 59.2624C99.4122 57.1495 97.8772 54.6288 96.7698 52.6353C94.1652 47.9219 91.7989 42.0671 91.7989 38.8389C91.7989 33.7464 95.8837 29.6626 100.975 29.6626H100.977ZM100.977 32.7217C97.6222 32.7217 94.8589 35.4849 94.8589 38.8398C94.8589 42.1947 97.6222 44.9579 100.977 44.9579C104.332 44.9579 107.095 42.1947 107.095 38.8398C107.095 35.4849 104.332 32.7217 100.977 32.7217ZM100.977 36.7998C102.127 36.7998 103.016 37.6888 103.016 38.8389C103.016 39.9896 102.127 40.8779 100.977 40.8779C99.8271 40.8779 98.938 39.9889 98.938 38.8389C98.938 37.6881 99.8271 36.7998 100.977 36.7998ZM52.9266 41.6745C56.6257 43.6061 60.837 44.8586 65.1941 45.6574C64.0903 50.4112 63.4153 55.6779 63.2823 61.2704H45.9486C46.349 53.9702 48.8817 47.2214 52.9266 41.6754V41.6745ZM68.126 46.1354C72.3344 46.7178 76.577 46.9134 80.5849 46.9639V61.2703H66.0548C66.2049 55.7917 66.919 50.6495 68.126 46.1354ZM45.9488 65.3498H63.2825C63.4148 70.9449 64.0599 76.216 65.1623 80.9627C60.8173 81.7551 56.6159 82.9898 52.9268 84.9136C48.8819 79.3674 46.3492 72.6499 45.9488 65.3496V65.3498ZM66.0557 65.3498H80.5858V79.6562C76.5786 79.7081 72.3354 79.9086 68.1269 80.4847C66.9192 75.9698 66.2043 70.8326 66.0557 65.3498ZM84.6642 65.3498H99.1942C99.0449 70.8326 98.3002 75.9699 97.091 80.4848C92.8912 79.9115 88.6628 79.7088 84.6642 79.6562V65.3498ZM101.935 65.3498H119.268C118.869 72.6406 116.326 79.3397 112.29 84.881C108.6 82.9628 104.398 81.7196 100.055 80.9301C101.154 76.1913 101.803 70.9324 101.935 65.3492V65.3498ZM80.586 83.7357V98.0421C76.0134 96.8914 72.0552 91.8345 69.4016 84.5003C73.3824 84.0871 77.0389 83.7137 80.586 83.7357ZM84.6642 83.7357C88.2944 83.7976 92.0988 84.0174 95.8165 84.5003C93.1734 91.7975 89.2132 96.8259 84.6642 98.0101V83.7357ZM66.2469 84.9783C68.0158 90.7968 70.471 95.5905 73.3842 98.8708C66.4305 97.0785 60.3159 93.2855 55.6046 88.1646C58.7291 86.6817 62.3892 85.664 66.2469 84.9783ZM98.9719 84.9783C102.841 85.6639 106.514 86.6774 109.646 88.1646C104.935 93.2869 98.7891 97.0784 91.8346 98.8708C94.7486 95.5913 97.201 90.7954 98.9719 84.9783Z" fill="#F5C46A"/>
<rect x="1.99038" y="1.42801" width="161.267" height="178.144" rx="24.8464" stroke="#57AC49" stroke-width="2.8128"/>
</svg>
