<svg width="60" height="60" viewBox="0 0 60 60" fill="none" xmlns="http://www.w3.org/2000/svg">
<rect width="60" height="60" rx="30" fill="#E5E5FE"/>
<path d="M29.7001 12.6C25.1648 12.6 20.8154 14.4332 17.6084 17.6962C14.4017 20.9594 12.6001 25.3852 12.6001 30C12.6001 34.6147 14.4017 39.0406 17.6084 42.3038C20.8154 45.5668 25.1649 47.4 29.7001 47.4C34.2353 47.4 38.5848 45.5668 41.7918 42.3038C44.9985 39.0406 46.8001 34.6147 46.8001 30C46.8001 26.9457 46.01 23.9452 44.5092 21.3001C43.0084 18.6549 40.8498 16.4584 38.2502 14.9313C35.6506 13.4041 32.7019 12.6002 29.7003 12.6002L29.7001 12.6ZM36.8762 15.4999H22.5234C24.7486 14.356 27.2068 13.7602 29.6994 13.7602C32.1921 13.7602 34.6505 14.356 36.8755 15.4999H36.8762ZM20.6141 16.6599H38.7855C40.1499 17.6244 41.3594 18.7984 42.3706 20.1399H17.029C18.0402 18.7984 19.2497 17.6244 20.6141 16.6599ZM14.5895 35.2197H44.7991C44.3879 36.4413 43.837 37.6094 43.1574 38.6997H16.2367C15.5533 37.6106 15.0001 36.4423 14.5896 35.2197H14.5895ZM14.2475 34.0597C13.9533 32.9223 13.7833 31.7553 13.7401 30.5798H45.6597C45.6221 31.7545 45.4577 32.9215 45.1696 34.0597H14.2475ZM13.7401 29.4198C13.7777 28.245 13.9421 27.0781 14.2302 25.9398H45.1525C45.4466 27.0773 45.6166 28.2443 45.6599 29.4198H13.7401ZM14.5721 24.7798C14.9828 23.5572 15.5358 22.3889 16.2195 21.2999H43.1688C43.8485 22.3902 44.3994 23.5582 44.8103 24.7798H14.5721ZM22.5234 44.4996H36.8761C34.6509 45.6436 32.1928 46.2393 29.7001 46.2393C27.2074 46.2393 24.749 45.6435 22.524 44.4996H22.5234ZM38.7855 43.3396H20.6141C19.2497 42.3751 18.0402 41.2011 17.029 39.8597H42.3706C41.3594 41.2011 40.1499 42.3751 38.7855 43.3396Z" fill="#5251FA"/>
</svg>
