<svg width="274" height="48" viewBox="0 0 274 48" fill="none" xmlns="http://www.w3.org/2000/svg">
<path d="M33.7751 40.7303C32.2327 42.9581 30.3905 44.5862 28.2483 45.6144C26.0205 46.557 23.5784 47.0282 20.9221 47.0282C14.5813 47.0282 9.56865 44.9289 5.88413 40.7303C2.11393 36.6173 0.228821 30.962 0.228821 23.7643C0.228821 16.6524 2.07108 11.0399 5.7556 6.92694C9.6115 2.64261 14.7098 0.500445 21.0507 0.500445C26.5346 0.500445 31.076 1.82859 34.6748 4.48487C38.188 7.31253 40.2873 10.997 40.9728 15.5384H34.8033C33.0039 15.5384 31.6758 14.7244 30.8189 13.0964C30.2191 12.0681 29.3622 11.1256 28.2483 10.2687C26.5346 9.0691 24.2639 8.46929 21.4362 8.46929C17.7517 8.46929 14.8384 9.79743 12.6962 12.4537C10.554 15.2814 9.48297 19.0516 9.48297 23.7643C9.48297 28.5628 10.5969 32.333 12.8247 35.075C14.9669 37.7312 18.0088 39.0594 21.9504 39.0594C24.8637 39.0594 27.2629 38.2454 29.148 36.6173C31.0331 34.9036 32.2327 32.5472 32.7469 29.5482H27.3486C26.0633 29.5482 24.9494 29.1198 24.0068 28.2629C23.15 27.3203 22.7215 26.2064 22.7215 24.9211V21.9649H41.1013V46H38.6592C36.26 46 34.7605 44.8004 34.1607 42.4012L33.7751 40.7303ZM45.0857 46V29.4197C45.0857 26.0779 45.557 23.2931 46.4996 21.0652C47.5278 18.7517 48.8988 16.9094 50.6125 15.5384C52.2406 14.2531 54.1257 13.3106 56.2678 12.7108C58.4957 12.111 60.7664 11.8111 63.0799 11.8111C63.2513 11.8111 63.4655 11.8111 63.7226 11.8111C63.9796 11.8111 64.1938 11.8111 64.3652 11.8111V20.9367H61.409C58.9241 20.9367 57.0818 21.5365 55.8822 22.7361C54.6826 23.9357 54.0828 25.8208 54.0828 28.3914V46H45.0857ZM71.5629 42.9153C69.7635 41.3729 68.4782 39.3164 67.707 36.7459C66.9358 34.0896 66.5502 31.3476 66.5502 28.5199C66.5502 26.2064 66.8501 23.8929 67.4499 21.5793C68.1354 19.2658 69.1636 17.3379 70.5346 15.7955C72.7625 13.2249 75.633 11.7254 79.1461 11.2969C82.6593 10.7828 85.8297 11.0399 88.6573 12.0681C91.9134 13.3534 94.3126 15.5813 95.855 18.7517C97.3117 21.5793 98.04 24.8783 98.04 28.6485C98.04 31.3904 97.7401 33.7468 97.1403 35.7176C96.5405 37.6884 95.7693 39.3593 94.8268 40.7303C92.7703 43.5579 90.1569 45.3145 86.9865 46C84.1588 46.7712 81.2883 46.814 78.375 46.1285C75.5473 45.5287 73.2766 44.4576 71.5629 42.9153ZM77.7323 20.294C75.9329 22.2648 75.1189 25.221 75.2902 29.1626C75.4616 33.0185 76.1899 35.7176 77.4752 37.26C77.9894 37.9455 78.8891 38.5453 80.1744 39.0594C81.4597 39.4878 82.745 39.5307 84.0303 39.1879C85.4012 38.7595 86.6009 37.7741 87.6291 36.2317C88.6573 34.6894 89.2143 32.2045 89.3 28.777C89.3 25.6923 88.7859 23.3788 87.7576 21.8364C86.8151 20.294 85.7012 19.3086 84.4159 18.8802C83.1306 18.4518 81.8453 18.4518 80.56 18.8802C79.2747 19.223 78.3321 19.6942 77.7323 20.294ZM139.427 46H130.43L125.16 21.5793L119.89 46H110.893L101.51 11.8111H110.25L115.649 35.4606L120.533 11.8111H129.658L134.285 35.4606L139.041 14.8958C139.555 12.8393 140.926 11.8111 143.154 11.8111H148.809L139.427 46ZM153.179 46V6.41282C153.179 5.12752 153.608 4.05644 154.465 3.19957C155.407 2.25702 156.521 1.78574 157.806 1.78574H162.305V46H153.179ZM194.566 46H190.067C188.782 46 187.711 45.6144 186.854 44.8432C186.083 43.9864 185.697 42.9153 185.697 41.63V24.1499C185.697 22.0935 185.055 20.5939 183.769 19.6514C182.57 18.7088 181.199 18.2376 179.656 18.2376C178.114 18.2376 176.743 18.7088 175.543 19.6514C174.344 20.5939 173.744 22.0935 173.744 24.1499V46H164.747V25.9493C164.747 20.1227 166.247 16.2239 169.246 14.2531C172.33 12.2823 175.715 11.2113 179.399 11.0399C183.17 11.0399 186.64 12.0253 189.81 13.9961C192.981 15.9669 194.566 19.9513 194.566 25.9493V46ZM220.657 1.65721H225.027C226.227 1.65721 227.255 2.12849 228.112 3.07104C228.969 3.92791 229.397 4.9133 229.397 6.02723V31.0905C229.397 37.1743 227.641 41.2872 224.128 43.4294C220.615 45.5716 216.802 46.6426 212.689 46.6426C210.461 46.6426 208.276 46.2999 206.134 45.6144C203.991 44.8432 202.278 43.6436 200.992 42.0156C198.507 38.8452 197.265 34.518 197.265 29.0341C197.265 23.6358 198.507 19.3086 200.992 16.0526C203.563 12.7108 206.862 11.0399 210.889 11.0399C213.031 11.0399 214.916 11.4683 216.545 12.3252C218.258 13.3534 219.629 14.6816 220.657 16.3096V1.65721ZM206.005 28.6485C206.005 32.0759 206.648 34.6894 207.933 36.4888C209.218 38.2882 211.061 39.1879 213.46 39.1879C215.773 39.1879 217.573 38.2882 218.858 36.4888C220.058 34.6894 220.657 32.0759 220.657 28.6485C220.657 25.5638 220.015 23.1217 218.73 21.3223C217.359 19.6085 215.516 18.7517 213.203 18.7517C210.975 18.7517 209.218 19.6514 207.933 21.4508C206.648 23.1645 206.005 25.5638 206.005 28.6485ZM233.768 11.8111H238.395C239.594 11.8111 240.622 12.2395 241.479 13.0964C242.336 13.9532 242.765 14.9815 242.765 16.1811V46H233.768V11.8111ZM233.768 1.78574H238.395C239.594 1.78574 240.622 2.21418 241.479 3.07104C242.336 3.92791 242.765 4.95615 242.765 6.15576V8.85488H233.768V1.78574ZM265 28.777C263.801 29.3768 262.13 29.9338 259.988 30.4479C258.017 30.8763 257.031 31.0905 257.031 31.0905C255.489 31.519 254.375 32.0759 253.69 32.7614C253.09 33.704 252.79 34.6465 252.79 35.5891C252.79 36.8744 253.175 37.9026 253.947 38.6738C254.718 39.3593 255.832 39.702 257.288 39.702C259.688 39.702 261.573 39.0165 262.944 37.6456C264.315 36.2746 265 34.3895 265 31.9902V28.777ZM267.057 44.5862C265.257 45.5287 263.329 46.0857 261.273 46.2571C259.302 46.5141 257.546 46.6426 256.003 46.6426C252.918 46.6426 250.219 45.8286 247.906 44.2006C245.592 42.4869 244.435 39.702 244.435 35.8461C244.435 32.2473 245.464 29.6767 247.52 28.1344C249.662 26.592 252.361 25.5638 255.618 25.0496C256.046 25.0496 256.56 25.0068 257.16 24.9211C257.76 24.7497 258.445 24.6212 259.216 24.5355C262.987 24.0214 264.872 22.9075 264.872 21.1937C264.872 19.9084 264.186 19.0944 262.815 18.7517C261.53 18.3232 260.33 18.109 259.216 18.109C258.017 18.109 256.946 18.2804 256.003 18.6231C255.061 18.9659 254.375 19.6085 253.947 20.5511H245.335C245.678 17.8948 246.878 15.7098 248.934 13.9961C251.248 12.0253 254.546 11.0399 258.831 11.0399C263.629 11.0399 267.228 11.8539 269.627 13.482C272.112 15.1957 273.355 17.5949 273.355 20.6796V32.3758C273.355 35.8033 272.712 38.5024 271.427 40.4732C270.227 42.3583 268.77 43.7293 267.057 44.5862Z" fill="white"/>
</svg>
