<svg width="60" height="60" viewBox="0 0 60 60" fill="none" xmlns="http://www.w3.org/2000/svg">
<rect width="60" height="60" rx="30" fill="#E8F9EE"/>
<path d="M29.7001 12.6C25.1648 12.6 20.8154 14.4332 17.6084 17.6962C14.4017 20.9594 12.6001 25.3852 12.6001 30C12.6001 34.6147 14.4017 39.0406 17.6084 42.3038C20.8154 45.5668 25.1649 47.4 29.7001 47.4C34.2353 47.4 38.5848 45.5668 41.7918 42.3038C44.9985 39.0406 46.8001 34.6147 46.8001 30C46.8001 25.3852 44.9985 20.9594 41.7918 17.6962C38.5848 14.4332 34.2353 12.6 29.7001 12.6ZM29.1301 13.8817V46.118C26.8501 45.1784 24.5702 38.8273 24.5702 30.0002C24.5702 21.173 26.8501 14.8216 29.1301 13.8823V13.8817ZM30.2701 46.1174V13.8817C32.5501 14.8213 34.83 21.1723 34.83 29.9995C34.83 38.8267 32.5501 45.1781 30.2701 46.1174ZM23.4302 29.9995C23.4302 36.2808 24.6956 42.7189 26.9242 45.6938C22.2902 43.8555 18.87 37.5394 18.87 29.9995C18.87 22.4596 22.29 16.1433 26.9242 14.3052C24.6956 17.2806 23.4302 23.7183 23.4302 29.9995ZM35.97 29.9995C35.97 23.7182 34.7046 17.2801 32.476 14.3052C37.11 16.1436 40.5302 22.4596 40.5302 29.9995C40.5302 37.5394 37.1102 43.8557 32.476 45.6938C34.7046 42.7185 35.97 36.2807 35.97 29.9995ZM13.7403 29.9995C13.7408 26.7684 14.6887 23.6105 16.4625 20.9304C18.2363 18.2505 20.7555 16.1698 23.6978 14.9544C20.1295 17.9763 17.73 23.5847 17.73 29.9998C17.73 36.4148 20.1295 42.0232 23.6978 45.0451C20.7552 43.8297 18.2361 41.749 16.4625 39.0691C14.6887 36.389 13.7408 33.2312 13.7403 30V29.9995ZM35.7023 45.0449C39.2706 42.0229 41.6702 36.4146 41.6702 29.9995C41.6702 23.5845 39.2706 17.9761 35.7023 14.9542C38.6436 16.1703 41.1615 18.2516 42.9344 20.9317C44.7072 23.6116 45.6541 26.7687 45.6541 29.9995C45.6541 33.2303 44.7072 36.3872 42.9344 39.0673C41.1618 41.7475 38.6439 43.8287 35.7023 45.0449Z" fill="#0EBC93"/>
</svg>
