<svg width="569" height="625" viewBox="0 0 569 625" fill="none" xmlns="http://www.w3.org/2000/svg">
<g opacity="0.4" clip-path="url(#clip0_55_488)">
<path fill-rule="evenodd" clip-rule="evenodd" d="M102.78 0C104.238 1.65038 105.396 3.55796 106.103 5.7013C104.646 3.53652 103.038 1.65038 101.344 0H77.5454C90.4094 20.1689 117.102 14.7248 117.102 14.7248C128.079 15.7107 128.294 45.7176 128.294 45.7176C128.294 45.7176 133.89 34.2507 127.415 22.6766C121.54 13.6531 125.164 6.88014 125.164 6.88014C126.75 4.45816 128.015 2.16478 129.001 0H118.431C123.534 8.98062 122.205 14.0389 122.205 14.0389C118.71 8.44479 115.216 3.81516 111.807 0H102.78Z" fill="#E5E5E5"/>
<path fill-rule="evenodd" clip-rule="evenodd" d="M34.8371 0C36.2736 1.52178 37.4099 3.38649 37.5815 5.52984C36.7667 3.27932 35.5661 1.45748 34.3011 0H25.7466C29.2199 10.1166 41.3978 10.7167 41.3978 10.7167C46.1146 12.3671 42.8343 25.5701 42.8343 25.5701C42.8343 25.5701 46.5648 21.1548 45.0211 15.3678C43.456 10.7596 45.793 8.18759 45.793 8.18759C49.2019 5.03687 50.6813 2.20765 51.2816 0.0214335H45.4928C45.1069 2.72205 45.5357 4.37243 45.5357 4.37243C45.5357 4.37243 44.8711 2.52915 44.8711 0.0214335H42.1482C42.4912 1.28601 42.8771 2.12191 42.8771 2.12191C45.257 8.23045 43.7347 10.9954 43.7347 10.9954C42.2125 6.25857 40.4115 2.67918 38.5248 0.0214335H34.8371V0Z" fill="#E5E5E5"/>
<path fill-rule="evenodd" clip-rule="evenodd" d="M-46.3347 124.121C-45.1341 126.072 -35.5933 142.254 -41.8538 153.442C-38.1661 138.289 -45.2627 125.857 -46.3347 124.121C-46.3133 124.121 -46.3133 124.121 -46.3347 124.121ZM-48.8646 113.254C-73.199 144.204 -41.1034 167.631 -41.1034 167.631C-34.4355 176.419 -56.4758 196.781 -56.4758 196.781C-56.4758 196.781 -44.2336 193.18 -40.0314 180.598C-37.3299 170.16 -29.8902 168.296 -29.8902 168.296C-6.79935 164.502 -4.18367 151.492 -4.18367 151.492C-1.11775 140.732 8.42303 138.525 8.42303 138.525C-23.0294 120.628 -27.9606 153.507 -27.9606 153.507C-30.9837 167.674 -37.1584 170.932 -37.1584 170.932C-24.1872 124.336 -48.8646 113.254 -48.8646 113.254ZM-25.7309 160.922C-25.7309 160.922 -21.3357 142.597 -3.62623 140.775C-21.5501 148.877 -25.7309 160.922 -25.7309 160.922Z" fill="#E5E5E5"/>
<path fill-rule="evenodd" clip-rule="evenodd" d="M34.4511 52.3406C36.1663 53.8623 49.9737 66.6153 47.2079 79.111C46.3503 63.5503 35.9733 53.6909 34.4511 52.3406ZM28.8767 42.6741C14.4905 79.3253 51.989 92.5069 51.989 92.5069C60.9081 98.9798 45.6857 124.85 45.6857 124.85C45.6857 124.85 56.3628 117.863 56.7487 104.617C56.3199 93.8572 62.9234 89.9134 62.9234 89.9134C83.9346 79.6254 82.6911 66.4224 82.6911 66.4224C82.5196 55.2341 91.0313 50.3901 91.0313 50.3901C55.741 42.3097 60.5221 75.2315 60.5221 75.2315C61.7228 89.6562 56.7273 94.5645 56.7273 94.5645C55.7196 46.1463 28.8767 42.6741 28.8767 42.6741ZM64.7887 81.6187C64.7887 81.6187 63.6953 62.8001 80.1397 55.9414C65.3033 68.9086 64.7887 81.6187 64.7887 81.6187Z" fill="#E5E5E5"/>
<path fill-rule="evenodd" clip-rule="evenodd" d="M81.4261 138.353C83.6773 138.782 102.073 142.64 106.104 154.793C97.3775 141.868 83.4201 138.739 81.4261 138.353ZM71.6924 132.909C78.1673 171.746 117.102 163.795 117.102 163.795C128.08 164.781 128.294 194.787 128.294 194.787C128.294 194.787 133.89 183.32 127.415 171.746C121.54 162.723 125.164 155.95 125.164 155.95C137.921 136.338 130.074 125.643 130.074 125.643C124.199 116.127 129.002 107.596 129.002 107.596C94.5689 118.784 115.559 144.569 115.559 144.569C123.985 156.336 122.226 163.109 122.226 163.109C96.4985 122.128 71.6924 132.909 71.6924 132.909ZM122.484 147.912C122.484 147.912 111.892 132.309 122.484 117.991C116.416 136.746 122.484 147.912 122.484 147.912Z" fill="#E5E5E5"/>
<path fill-rule="evenodd" clip-rule="evenodd" d="M-27.9176 91.9067C-26.9099 91.7138 -18.5269 90.2563 -14.7749 94.6931C-20.6065 90.7279 -26.9957 91.7353 -27.9176 91.9067C-27.8961 91.9067 -27.8961 91.9067 -27.9176 91.9067ZM-32.9131 91.2423C-23.6939 106.503 -8.64302 96.6435 -8.64302 96.6435C-3.8619 95.2075 1.24082 107.81 1.24082 107.81C1.24082 107.81 1.66963 102.045 -2.98285 98.251C-6.97069 95.4433 -6.58478 91.9925 -6.58478 91.9925C-4.5051 81.5972 -9.58638 78.4251 -9.58638 78.4251C-13.66 75.403 -13.0597 71.0091 -13.0597 71.0091C-25.6664 81.4686 -12.5237 88.8203 -12.5237 88.8203C-7.01357 92.3568 -6.60622 95.5076 -6.60622 95.5076C-24.2728 82.5617 -32.9131 91.2423 -32.9131 91.2423ZM-9.02895 89.0561C-9.02895 89.0561 -16.1041 84.2764 -14.0245 76.4746C-13.467 85.3695 -9.02895 89.0561 -9.02895 89.0561Z" fill="#E5E5E5"/>
<path fill-rule="evenodd" clip-rule="evenodd" d="M28.5551 144.655C29.4985 145.083 37.1311 148.834 37.5599 154.621C35.1801 147.977 29.3913 145.04 28.5551 144.655C28.5766 144.655 28.5766 144.655 28.5551 144.655ZM24.9103 141.161C23.4095 158.929 41.3763 159.787 41.3763 159.787C46.0931 161.437 42.8127 174.64 42.8127 174.64C42.8127 174.64 46.5433 170.225 44.9996 164.438C43.4345 159.829 45.7715 157.257 45.7715 157.257C53.5542 150.077 51.303 144.504 51.303 144.504C49.7807 139.682 52.8467 136.467 52.8467 136.467C36.4879 137.517 42.8127 151.192 42.8127 151.192C45.1926 157.3 43.6703 160.065 43.6703 160.065C37.0025 139.21 24.9103 141.161 24.9103 141.161ZM45.5142 153.442C45.5142 153.442 42.5983 145.426 48.8588 140.325C44.0991 147.848 45.5142 153.442 45.5142 153.442Z" fill="#E5E5E5"/>
<path fill-rule="evenodd" clip-rule="evenodd" d="M116.609 68.3513C116.845 69.3587 118.582 77.6963 114.272 81.5758C118.046 75.5958 116.824 69.2301 116.609 68.3513ZM117.102 63.3145C102.159 73.0452 112.536 87.77 112.536 87.77C114.122 92.5068 101.708 98.0367 101.708 98.0367C101.708 98.0367 107.476 98.2724 111.099 93.4928C113.779 89.4204 117.231 89.6991 117.231 89.6991C127.672 91.4352 130.695 86.2268 130.695 86.2268C133.568 82.0687 137.985 82.4974 137.985 82.4974C127.093 70.2375 120.211 83.6334 120.211 83.6334C116.867 89.2704 113.736 89.7634 113.736 89.7634C126.086 71.6521 117.102 63.3145 117.102 63.3145ZM120.104 87.1056C120.104 87.1056 124.649 79.8825 132.518 81.6829C123.642 82.5617 120.104 87.1056 120.104 87.1056Z" fill="#E5E5E5"/>
<path fill-rule="evenodd" clip-rule="evenodd" d="M-46.3347 273.212C-45.1341 275.163 -35.5933 291.345 -41.8538 302.533C-38.1661 287.38 -45.2627 274.949 -46.3347 273.212C-46.3133 273.212 -46.3133 273.212 -46.3347 273.212ZM-48.8646 262.346C-73.199 293.296 -41.1034 316.722 -41.1034 316.722C-34.4355 325.51 -56.4758 345.872 -56.4758 345.872C-56.4758 345.872 -44.2336 342.271 -40.0314 329.69C-37.3299 319.252 -29.8902 317.387 -29.8902 317.387C-6.79935 313.593 -4.18367 300.583 -4.18367 300.583C-1.11775 289.823 8.42303 287.616 8.42303 287.616C-23.0294 269.719 -27.9606 302.598 -27.9606 302.598C-30.9837 316.765 -37.1584 320.023 -37.1584 320.023C-24.1872 273.405 -48.8646 262.346 -48.8646 262.346ZM-25.7309 309.992C-25.7309 309.992 -21.3357 291.667 -3.62623 289.845C-21.5501 297.968 -25.7309 309.992 -25.7309 309.992Z" fill="#E5E5E5"/>
<path fill-rule="evenodd" clip-rule="evenodd" d="M34.4511 201.432C36.1663 202.954 49.9737 215.706 47.2079 228.202C46.3503 212.641 35.9733 202.782 34.4511 201.432ZM28.8767 191.765C14.4905 228.416 51.989 241.598 51.989 241.598C60.9081 248.071 45.6857 273.941 45.6857 273.941C45.6857 273.941 56.3628 266.954 56.7487 253.708C56.3199 242.948 62.9234 239.005 62.9234 239.005C83.9346 228.717 82.6911 215.514 82.6911 215.514C82.5196 204.325 91.0313 199.481 91.0313 199.481C55.741 191.401 60.5221 224.323 60.5221 224.323C61.7228 238.747 56.7273 243.656 56.7273 243.656C55.7196 195.237 28.8767 191.765 28.8767 191.765ZM64.7887 230.71C64.7887 230.71 63.6953 211.891 80.1397 205.033C65.3033 218 64.7887 230.71 64.7887 230.71Z" fill="#E5E5E5"/>
<path fill-rule="evenodd" clip-rule="evenodd" d="M81.4261 287.444C83.6773 287.873 102.073 291.731 106.104 303.884C97.3775 290.959 83.4201 287.83 81.4261 287.444ZM71.6924 282C78.1673 320.838 117.102 312.886 117.102 312.886C128.08 313.872 128.294 343.879 128.294 343.879C128.294 343.879 133.89 332.412 127.415 320.838C121.54 311.814 125.164 305.041 125.164 305.041C137.921 285.43 130.074 274.734 130.074 274.734C124.199 265.218 129.002 256.687 129.002 256.687C94.5689 267.876 115.559 293.66 115.559 293.66C123.985 305.427 122.226 312.2 122.226 312.2C96.4985 271.219 71.6924 282 71.6924 282ZM122.484 297.004C122.484 297.004 111.892 281.4 122.484 267.082C116.416 285.837 122.484 297.004 122.484 297.004Z" fill="#E5E5E5"/>
<path fill-rule="evenodd" clip-rule="evenodd" d="M-27.9176 240.998C-26.9099 240.805 -18.5269 239.348 -14.7749 243.784C-20.6065 239.798 -26.9957 240.827 -27.9176 240.998C-27.8961 240.998 -27.8961 240.998 -27.9176 240.998ZM-32.9131 240.334C-23.6939 255.594 -8.64302 245.735 -8.64302 245.735C-3.8619 244.299 1.24082 256.902 1.24082 256.902C1.24082 256.902 1.66963 251.136 -2.98285 247.342C-6.97069 244.534 -6.58478 241.084 -6.58478 241.084C-4.5051 230.688 -9.58638 227.516 -9.58638 227.516C-13.66 224.494 -13.0597 220.1 -13.0597 220.1C-25.6664 230.56 -12.5237 237.912 -12.5237 237.912C-7.01357 241.448 -6.60622 244.599 -6.60622 244.599C-24.2728 231.653 -32.9131 240.334 -32.9131 240.334ZM-9.02895 238.147C-9.02895 238.147 -16.1041 233.368 -14.0245 225.566C-13.467 234.461 -9.02895 238.147 -9.02895 238.147Z" fill="#E5E5E5"/>
<path fill-rule="evenodd" clip-rule="evenodd" d="M28.5551 293.724C29.4985 294.153 37.1311 297.904 37.5599 303.691C35.1801 297.068 29.3913 294.131 28.5551 293.724C28.5766 293.724 28.5766 293.724 28.5551 293.724ZM24.9103 290.252C23.4095 308.02 41.3763 308.878 41.3763 308.878C46.0931 310.528 42.8127 323.731 42.8127 323.731C42.8127 323.731 46.5433 319.316 44.9996 313.529C43.4345 308.921 45.7715 306.349 45.7715 306.349C53.5542 299.168 51.303 293.596 51.303 293.596C49.7807 288.773 52.8467 285.558 52.8467 285.558C36.4879 286.608 42.8127 300.283 42.8127 300.283C45.1926 306.391 43.6703 309.156 43.6703 309.156C37.0025 288.302 24.9103 290.252 24.9103 290.252ZM45.5142 302.512C45.5142 302.512 42.5983 294.496 48.8588 289.395C44.0991 296.939 45.5142 302.512 45.5142 302.512Z" fill="#E5E5E5"/>
<path fill-rule="evenodd" clip-rule="evenodd" d="M116.609 217.421C116.845 218.429 118.582 226.766 114.272 230.646C118.046 224.687 116.824 218.321 116.609 217.421ZM117.102 212.406C102.159 222.136 112.536 236.861 112.536 236.861C114.122 241.598 101.708 247.128 101.708 247.128C101.708 247.128 107.476 247.364 111.099 242.584C113.779 238.512 117.231 238.79 117.231 238.79C127.672 240.526 130.695 235.318 130.695 235.318C133.568 231.16 137.985 231.589 137.985 231.589C127.093 219.329 120.211 232.725 120.211 232.725C116.867 238.362 113.736 238.855 113.736 238.855C126.086 220.743 117.102 212.406 117.102 212.406ZM120.104 236.197C120.104 236.197 124.649 228.974 132.518 230.774C123.642 231.653 120.104 236.197 120.104 236.197Z" fill="#E5E5E5"/>
<path fill-rule="evenodd" clip-rule="evenodd" d="M-46.3347 422.304C-45.1341 424.254 -35.5933 440.436 -41.8538 451.625C-38.1661 436.45 -45.2627 424.04 -46.3347 422.304C-46.3133 422.304 -46.3133 422.304 -46.3347 422.304ZM-48.8646 411.437C-73.199 442.387 -41.1034 465.814 -41.1034 465.814C-34.4355 474.601 -56.4758 494.963 -56.4758 494.963C-56.4758 494.963 -44.2336 491.362 -40.0314 478.781C-37.3299 468.343 -29.8902 466.478 -29.8902 466.478C-6.79935 462.684 -4.18367 449.674 -4.18367 449.674C-1.11775 438.915 8.42303 436.707 8.42303 436.707C-23.0294 418.81 -27.9606 451.689 -27.9606 451.689C-30.9837 465.856 -37.1584 469.114 -37.1584 469.114C-24.1872 422.497 -48.8646 411.437 -48.8646 411.437ZM-25.7309 459.083C-25.7309 459.083 -21.3357 440.758 -3.62623 438.936C-21.5501 447.059 -25.7309 459.083 -25.7309 459.083Z" fill="#E5E5E5"/>
<path fill-rule="evenodd" clip-rule="evenodd" d="M34.4511 350.502C36.1663 352.023 49.9737 364.776 47.2079 377.272C46.3503 361.733 35.9733 351.873 34.4511 350.502C34.4511 350.523 34.4511 350.523 34.4511 350.502ZM28.8767 340.857C14.4905 377.508 51.989 390.689 51.989 390.689C60.9081 397.162 45.6857 423.032 45.6857 423.032C45.6857 423.032 56.3628 416.045 56.7487 402.799C56.3199 392.04 62.9234 388.096 62.9234 388.096C83.9346 377.808 82.6911 364.605 82.6911 364.605C82.5196 353.417 91.0313 348.573 91.0313 348.573C55.741 340.492 60.5221 373.414 60.5221 373.414C61.7228 387.839 56.7273 392.747 56.7273 392.747C55.7196 344.329 28.8767 340.857 28.8767 340.857ZM64.7887 379.801C64.7887 379.801 63.6953 360.983 80.1397 354.124C65.3033 367.091 64.7887 379.801 64.7887 379.801Z" fill="#E5E5E5"/>
<path fill-rule="evenodd" clip-rule="evenodd" d="M81.4261 436.535C83.6773 436.964 102.073 440.822 106.104 452.975C97.3775 440.051 83.4201 436.921 81.4261 436.535ZM71.6924 431.091C78.1673 469.929 117.102 461.977 117.102 461.977C128.08 462.963 128.294 492.97 128.294 492.97C128.294 492.97 133.89 481.503 127.415 469.929C121.54 460.905 125.164 454.132 125.164 454.132C137.921 434.521 130.074 423.825 130.074 423.825C124.199 414.309 129.002 405.778 129.002 405.778C94.5689 416.967 115.559 442.751 115.559 442.751C123.985 454.518 122.226 461.291 122.226 461.291C96.4985 420.31 71.6924 431.091 71.6924 431.091ZM122.484 446.095C122.484 446.095 111.892 430.491 122.484 416.174C116.416 434.907 122.484 446.095 122.484 446.095Z" fill="#E5E5E5"/>
<path fill-rule="evenodd" clip-rule="evenodd" d="M-27.9176 390.089C-26.9099 389.896 -18.5269 388.439 -14.7749 392.876C-20.6065 388.889 -26.9957 389.918 -27.9176 390.089C-27.8961 390.089 -27.8961 390.089 -27.9176 390.089ZM-32.9131 389.425C-23.6939 404.685 -8.64302 394.826 -8.64302 394.826C-3.8619 393.39 1.24082 405.993 1.24082 405.993C1.24082 405.993 1.66963 400.227 -2.98285 396.433C-6.97069 393.626 -6.58478 390.175 -6.58478 390.175C-4.5051 379.78 -9.58638 376.608 -9.58638 376.608C-13.66 373.585 -13.0597 369.192 -13.0597 369.192C-25.6664 379.651 -12.5237 387.003 -12.5237 387.003C-7.01357 390.539 -6.60622 393.69 -6.60622 393.69C-24.2728 380.723 -32.9131 389.425 -32.9131 389.425ZM-9.02895 387.238C-9.02895 387.238 -16.1041 382.459 -14.0245 374.657C-13.467 383.552 -9.02895 387.238 -9.02895 387.238Z" fill="#E5E5E5"/>
<path fill-rule="evenodd" clip-rule="evenodd" d="M28.5551 442.815C29.4985 443.244 37.1311 446.995 37.5599 452.782C35.1801 446.138 29.3913 443.223 28.5551 442.815C28.5766 442.815 28.5766 442.815 28.5551 442.815ZM24.9103 439.343C23.4095 457.112 41.3763 457.969 41.3763 457.969C46.0931 459.619 42.8127 472.822 42.8127 472.822C42.8127 472.822 46.5433 468.407 44.9996 462.62C43.4345 458.012 45.7715 455.44 45.7715 455.44C53.5542 448.26 51.303 442.687 51.303 442.687C49.7807 437.864 52.8467 434.649 52.8467 434.649C36.4879 435.7 42.8127 449.374 42.8127 449.374C45.1926 455.483 43.6703 458.248 43.6703 458.248C37.0025 437.393 24.9103 439.343 24.9103 439.343ZM45.5142 451.603C45.5142 451.603 42.5983 443.566 48.8588 438.486C44.0991 446.031 45.5142 451.603 45.5142 451.603Z" fill="#E5E5E5"/>
<path fill-rule="evenodd" clip-rule="evenodd" d="M116.609 366.512C116.845 367.52 118.582 375.857 114.272 379.737C118.046 373.778 116.824 367.413 116.609 366.512ZM117.102 361.497C102.159 371.228 112.536 385.952 112.536 385.952C114.122 390.689 101.708 396.219 101.708 396.219C101.708 396.219 107.476 396.455 111.099 391.675C113.779 387.603 117.231 387.881 117.231 387.881C127.672 389.618 130.695 384.409 130.695 384.409C133.568 380.251 137.985 380.68 137.985 380.68C127.093 368.42 120.211 381.816 120.211 381.816C116.867 387.453 113.736 387.946 113.736 387.946C126.086 369.835 117.102 361.497 117.102 361.497ZM120.104 385.288C120.104 385.288 124.649 378.065 132.518 379.865C123.642 380.744 120.104 385.288 120.104 385.288Z" fill="#E5E5E5"/>
<path fill-rule="evenodd" clip-rule="evenodd" d="M-46.3347 571.373C-45.134 573.324 -35.5932 589.506 -41.8537 600.694C-38.166 585.541 -45.2627 573.11 -46.3347 571.373C-46.3132 571.395 -46.3132 571.395 -46.3347 571.373ZM-39.0879 625C-35.9148 617.07 -29.8687 615.548 -29.8687 615.548C-6.77787 611.754 -4.16218 598.744 -4.16218 598.744C-1.09626 587.984 8.44452 585.777 8.44452 585.777C-23.008 567.88 -27.9391 600.759 -27.9391 600.759C-30.9622 614.926 -37.1369 618.184 -37.1369 618.184C-24.1657 571.566 -48.8432 560.507 -48.8432 560.507C-73.1776 591.457 -41.0819 614.883 -41.0819 614.883C-39.088 617.498 -39.6454 621.163 -41.4249 624.979H-39.0879V625ZM-25.7308 608.175C-25.7308 608.175 -21.3356 589.849 -3.62618 588.027C-21.55 596.151 -25.7308 608.175 -25.7308 608.175Z" fill="#E5E5E5"/>
<path fill-rule="evenodd" clip-rule="evenodd" d="M34.4511 499.593C36.1663 501.115 49.9737 513.867 47.2079 526.363C46.3503 510.802 35.9733 500.964 34.4511 499.593ZM28.8767 489.926C14.4905 526.578 51.989 539.759 51.989 539.759C60.9081 546.232 45.6857 572.102 45.6857 572.102C45.6857 572.102 56.3628 565.115 56.7487 551.869C56.3199 541.109 62.9234 537.166 62.9234 537.166C83.9346 526.878 82.6911 513.675 82.6911 513.675C82.5196 502.486 91.0313 497.642 91.0313 497.642C55.741 489.562 60.5221 522.484 60.5221 522.484C61.7228 536.908 56.7273 541.817 56.7273 541.817C55.7196 493.42 28.8767 489.926 28.8767 489.926ZM64.7887 528.892C64.7887 528.892 63.6953 510.074 80.1397 503.215C65.3033 516.182 64.7887 528.892 64.7887 528.892Z" fill="#E5E5E5"/>
<path fill-rule="evenodd" clip-rule="evenodd" d="M81.4261 585.605C83.6773 586.034 102.073 589.892 106.104 602.045C97.3775 589.142 83.4201 586.013 81.4261 585.605ZM129.773 625C129.28 623.05 128.53 621.035 127.394 619.02C121.519 609.997 125.142 603.224 125.142 603.224C137.899 583.612 130.052 572.917 130.052 572.917C124.178 563.4 128.98 554.87 128.98 554.87C94.5474 566.058 115.537 591.842 115.537 591.842C123.963 603.609 122.205 610.382 122.205 610.382C96.4985 569.38 71.6924 580.183 71.6924 580.183C78.1673 619.02 117.102 611.09 117.102 611.09C122.119 611.54 124.885 618.056 126.429 625.021H129.773V625ZM122.484 595.186C122.484 595.186 111.892 579.582 122.484 565.265C116.416 583.998 122.484 595.186 122.484 595.186Z" fill="#E5E5E5"/>
<path fill-rule="evenodd" clip-rule="evenodd" d="M-27.9176 539.18C-26.9099 538.988 -18.5269 537.53 -14.7749 541.967C-20.6065 537.98 -26.9957 539.009 -27.9176 539.18C-27.8961 539.159 -27.8961 539.159 -27.9176 539.18ZM-32.9131 538.516C-23.6939 553.777 -8.64302 543.917 -8.64302 543.917C-3.8619 542.481 1.24082 555.084 1.24082 555.084C1.24082 555.084 1.66963 549.318 -2.98285 545.525C-6.97069 542.717 -6.58478 539.266 -6.58478 539.266C-4.5051 528.871 -9.58638 525.699 -9.58638 525.699C-13.66 522.677 -13.0597 518.283 -13.0597 518.283C-25.6664 528.742 -12.5237 536.094 -12.5237 536.094C-7.01357 539.63 -6.60622 542.781 -6.60622 542.781C-24.2728 529.814 -32.9131 538.516 -32.9131 538.516ZM-9.02895 536.33C-9.02895 536.33 -16.1041 531.55 -14.0245 523.748C-13.467 532.643 -9.02895 536.33 -9.02895 536.33Z" fill="#E5E5E5"/>
<path fill-rule="evenodd" clip-rule="evenodd" d="M28.5551 591.907C29.4985 592.357 37.1311 596.086 37.5599 601.873C35.1801 595.229 29.3913 592.293 28.5551 591.907C28.5766 591.907 28.5766 591.907 28.5551 591.907ZM24.9103 588.434C23.4095 606.203 41.3763 607.06 41.3763 607.06C46.0931 608.711 42.8127 621.914 42.8127 621.914C42.8127 621.914 46.5433 617.498 44.9996 611.711C43.4345 607.103 45.7715 604.531 45.7715 604.531C53.5542 597.351 51.303 591.778 51.303 591.778C49.7807 586.956 52.8467 583.741 52.8467 583.741C36.4879 584.791 42.8127 598.465 42.8127 598.465C45.1926 604.574 43.6703 607.339 43.6703 607.339C37.0025 586.463 24.9103 588.434 24.9103 588.434ZM45.5142 600.694C45.5142 600.694 42.5983 592.678 48.8588 587.577C44.0991 595.1 45.5142 600.694 45.5142 600.694Z" fill="#E5E5E5"/>
<path fill-rule="evenodd" clip-rule="evenodd" d="M116.609 515.604C116.845 516.611 118.582 524.949 114.272 528.828C118.046 522.87 116.824 516.504 116.609 515.604ZM117.102 510.567C102.159 520.298 112.536 535.022 112.536 535.022C114.122 539.759 101.708 545.289 101.708 545.289C101.708 545.289 107.476 545.525 111.099 540.745C113.779 536.673 117.231 536.951 117.231 536.951C127.672 538.687 130.695 533.479 130.695 533.479C133.568 529.321 137.985 529.75 137.985 529.75C127.093 517.49 120.211 530.886 120.211 530.886C116.867 536.523 113.736 537.016 113.736 537.016C126.086 518.904 117.102 510.567 117.102 510.567ZM120.104 534.379C120.104 534.379 124.649 527.156 132.518 528.957C123.642 529.835 120.104 534.379 120.104 534.379Z" fill="#E5E5E5"/>
<path fill-rule="evenodd" clip-rule="evenodd" d="M233.157 1.01309e-05C233.265 2.52916 232.922 5.07974 231.892 7.48029C232.235 4.86541 232.278 2.35769 232.107 1.01309e-05H215.77C220.829 13.846 234.165 21.5192 234.165 21.5192C241.755 29.5353 222.03 52.1476 222.03 52.1476C222.03 52.1476 233.822 47.2394 236.631 34.2936C238.196 23.6411 245.4 20.9619 245.4 20.9619C267.933 14.7034 269.112 1.50035 269.112 1.50035C269.198 0.98595 269.305 0.49298 269.412 1.01309e-05H256.763C250.095 7.09449 248.701 13.1816 248.701 13.1816C248.701 13.1816 249.58 6.25858 254.19 1.01309e-05H246.686C245.807 3.4508 245.7 6.06568 245.7 6.06568C244.242 20.469 238.432 24.3699 238.432 24.3699C240.018 14.7248 240.233 6.66582 239.568 -0.0214233H233.157V1.01309e-05Z" fill="#E5E5E5"/>
<path fill-rule="evenodd" clip-rule="evenodd" d="M354.251 8.46622C356.502 8.05898 375.047 5.07973 383.195 14.9606C370.395 6.02281 356.245 8.10185 354.251 8.46622ZM385.339 0C387.075 1.35031 388.319 2.05761 388.319 2.05761C400.411 10.0309 401.183 16.9753 401.183 16.9753C362.505 -12.0885 343.209 6.88014 343.209 6.88014C363.17 40.8308 396.68 19.4616 396.68 19.4616C407.293 16.4395 418.228 44.3887 418.228 44.3887C418.228 44.3887 419.342 31.6787 409.137 23.191C400.411 16.8681 401.376 9.25926 401.376 9.25926C402.105 5.8299 402.469 2.76492 402.576 0.0214335H393.614C395.008 1.84328 396.016 2.70062 396.016 2.70062C396.016 2.70062 394.686 1.77898 392.907 0.0214335H385.339V0Z" fill="#E5E5E5"/>
<path fill-rule="evenodd" clip-rule="evenodd" d="M533.767 2.02656e-05C533.253 0.707325 532.674 1.3932 532.031 2.0362C532.417 1.35033 532.781 0.685891 533.103 2.02656e-05H521.246C523.712 9.30215 528.772 15.8608 528.772 15.8608C532.738 26.1489 505.874 39.5448 505.874 39.5448C505.874 39.5448 518.631 39.5019 526.178 28.5923C531.688 19.333 539.363 19.6116 539.363 19.6116C562.583 22.4194 568.736 10.6525 568.736 10.6525C574.675 1.17886 584.452 1.73613 584.452 1.73613C583.851 1.11456 583.251 0.535857 582.672 -0.0214132H549.161C546.653 3.15074 545.345 5.95853 545.345 5.95853C538.506 18.7114 531.645 20.1046 531.645 20.1046C536.276 12.6243 539.385 5.91566 541.379 -0.0428467H533.767V2.02656e-05ZM545.409 13.7174C545.409 13.7174 554.736 -2.65773 572.274 0.535857C552.763 3.32221 545.409 13.7174 545.409 13.7174Z" fill="#E5E5E5"/>
<path fill-rule="evenodd" clip-rule="evenodd" d="M156.23 0H172.118C168.194 2.16478 162.427 3.77229 156.23 0ZM185.325 0H187.254C188.969 2.35768 189.377 4.71536 189.377 4.71536C189.377 4.71536 187.64 2.31481 185.325 0Z" fill="#E5E5E5"/>
<path fill-rule="evenodd" clip-rule="evenodd" d="M312.636 0H313.729C313.557 0.364369 313.407 0.771605 313.279 1.20027C311.092 6.79441 305.475 8.14472 305.475 8.14472C305.475 8.14472 310.513 3.94376 312.636 0Z" fill="#E5E5E5"/>
<path fill-rule="evenodd" clip-rule="evenodd" d="M448.865 0H462.458C463.187 1.24314 463.895 2.59345 464.581 4.07236C464.581 4.07236 465.117 2.70062 464.474 0H467.111C466.853 0.321502 466.596 0.664438 466.296 1.00737C466.296 1.00737 464.302 3.85803 466.446 8.23045C468.719 13.7817 465.588 18.6471 465.588 18.6471C465.588 18.6471 467.132 5.14403 462.244 4.11523C462.265 4.09379 454.418 4.7368 448.865 0Z" fill="#E5E5E5"/>
<path fill-rule="evenodd" clip-rule="evenodd" d="M172.696 47.0679C173.79 49.0827 182.516 65.715 175.719 76.5818C180.136 61.5998 173.661 48.8469 172.696 47.0679ZM170.702 36.094C144.867 65.8008 175.762 90.7922 175.762 90.7922C182.001 99.88 158.975 119.149 158.975 119.149C158.975 119.149 171.388 116.148 176.191 103.802C179.407 93.5143 186.932 92.0139 186.932 92.0139C210.173 89.3562 213.432 76.5175 213.432 76.5175C217.034 65.9294 226.661 64.1933 226.661 64.1933C196.13 44.7531 189.591 77.3534 189.591 77.3534C185.882 91.3495 179.536 94.2859 179.536 94.2859C194.801 48.3539 170.702 36.094 170.702 36.094ZM191.456 84.8337C191.456 84.8337 196.752 66.7439 214.526 65.8008C196.194 73.0239 191.456 84.8337 191.456 84.8337Z" fill="#E5E5E5"/>
<path fill-rule="evenodd" clip-rule="evenodd" d="M224.281 127.915C225.674 129.715 236.909 144.783 231.913 156.571C233.907 141.118 225.503 129.522 224.281 127.915ZM220.572 117.391C199.711 150.784 234.165 170.61 234.165 170.61C241.754 178.627 222.03 201.239 222.03 201.239C222.03 201.239 233.822 196.331 236.63 183.385C238.195 172.732 245.399 170.053 245.399 170.053C267.933 163.795 269.133 150.57 269.133 150.57C271.02 139.553 280.261 136.317 280.261 136.317C247.05 121.914 245.721 155.135 245.721 155.135C244.263 169.539 238.453 173.44 238.453 173.44C246.321 125.729 220.572 117.391 220.572 117.391ZM248.722 162.273C248.722 162.273 251.102 143.561 268.512 139.853C251.553 149.863 248.722 162.273 248.722 162.273Z" fill="#E5E5E5"/>
<path fill-rule="evenodd" clip-rule="evenodd" d="M304.402 58.2991C306.653 58.7277 325.049 62.5858 329.08 74.7386C320.354 61.8142 306.396 58.6849 304.402 58.2991ZM294.668 52.8764C301.143 91.7139 340.078 83.762 340.078 83.762C351.056 84.748 351.27 114.755 351.27 114.755C351.27 114.755 356.866 103.288 350.391 91.7139C344.516 82.6904 348.14 75.9174 348.14 75.9174C360.897 56.3058 353.05 45.6105 353.05 45.6105C347.175 36.094 351.978 27.5635 351.978 27.5635C317.545 38.7517 338.535 64.5362 338.535 64.5362C346.961 76.3032 345.203 83.0762 345.203 83.0762C319.475 42.0739 294.668 52.8764 294.668 52.8764ZM345.46 67.8798C345.46 67.8798 334.868 52.2763 345.46 37.9587C339.392 56.6916 345.46 67.8798 345.46 67.8798Z" fill="#E5E5E5"/>
<path fill-rule="evenodd" clip-rule="evenodd" d="M354.251 157.557C356.502 157.15 375.047 154.171 383.195 164.052C370.395 155.114 356.245 157.193 354.251 157.557ZM343.209 155.971C363.17 189.922 396.68 168.553 396.68 168.553C407.293 165.531 418.228 193.48 418.228 193.48C418.228 193.48 419.342 180.77 409.137 172.282C400.411 165.959 401.376 158.35 401.376 158.35C406.243 135.46 395.094 128.301 395.094 128.301C386.196 121.528 387.611 111.84 387.611 111.84C359.482 134.624 388.319 151.17 388.319 151.17C400.411 159.144 401.183 166.088 401.183 166.088C362.505 137.003 343.209 155.971 343.209 155.971ZM396.016 151.77C396.016 151.77 380.536 141.011 385.296 123.843C386.325 143.519 396.016 151.77 396.016 151.77Z" fill="#E5E5E5"/>
<path fill-rule="evenodd" clip-rule="evenodd" d="M454.247 85.1124C455.512 83.2048 466.274 67.7941 479.031 68.8229C463.745 71.8022 455.404 83.4406 454.247 85.1124C454.268 85.1124 454.268 85.1124 454.247 85.1124ZM445.435 91.9496C483.705 101.187 491.638 62.2428 491.638 62.2428C496.848 52.5121 524.527 64.0861 524.527 64.0861C524.527 64.0861 516.165 54.4411 502.98 55.8771C492.367 57.7633 487.564 51.7833 487.564 51.7833C474.507 32.3646 461.6 35.4081 461.6 35.4081C450.537 37.1014 444.577 29.3425 444.577 29.3425C441.383 65.3936 473.328 56.1772 473.328 56.1772C487.457 53.0265 492.989 57.2917 492.989 57.2917C445.22 64.9006 445.435 91.9496 445.435 91.9496ZM479.138 51.076C479.138 51.076 460.636 54.7197 451.609 39.3733C466.467 52.2977 479.138 51.076 479.138 51.076Z" fill="#E5E5E5"/>
<path fill-rule="evenodd" clip-rule="evenodd" d="M535.911 121.721C536.512 123.928 541.164 142.125 532.031 151.127C539.771 137.581 536.447 123.671 535.911 121.721ZM536.49 110.575C504.48 133.509 528.772 164.952 528.772 164.952C532.738 175.24 505.874 188.636 505.874 188.636C505.874 188.636 518.631 188.593 526.178 177.684C531.688 168.424 539.363 168.703 539.363 168.703C562.583 171.511 568.736 159.744 568.736 159.744C574.675 150.27 584.452 150.827 584.452 150.827C559.238 124.85 545.345 155.05 545.345 155.05C538.506 167.803 531.645 169.196 531.645 169.196C557.116 128.108 536.49 110.575 536.49 110.575ZM545.409 162.787C545.409 162.787 554.736 146.412 572.274 149.606C552.763 152.413 545.409 162.787 545.409 162.787Z" fill="#E5E5E5"/>
<path fill-rule="evenodd" clip-rule="evenodd" d="M157.26 145.34C158.203 144.912 165.986 141.482 170.681 144.89C164.056 142.425 158.096 144.955 157.26 145.34ZM152.243 145.898C164.849 158.501 177.113 145.319 177.113 145.319C181.422 142.79 189.398 153.785 189.398 153.785C189.398 153.785 188.433 148.084 183.009 145.533C178.464 143.754 178.014 140.304 178.014 140.304C177.542 129.715 171.839 127.851 171.839 127.851C167.165 125.9 166.693 121.485 166.693 121.485C156.959 134.667 171.474 138.653 171.474 138.653C177.671 140.775 178.807 143.733 178.807 143.733C158.546 135.395 152.243 145.898 152.243 145.898ZM174.905 138.053C174.905 138.053 166.908 135.095 167.036 127.036C169.716 135.524 174.905 138.053 174.905 138.053Z" fill="#E5E5E5"/>
<path fill-rule="evenodd" clip-rule="evenodd" d="M243.448 79.9468C244.477 79.8182 252.946 78.9609 256.355 83.6548C250.802 79.2824 244.349 79.8397 243.448 79.9468ZM238.496 78.9395C246.621 94.8002 262.337 86.034 262.337 86.034C267.204 84.9408 271.406 97.8652 271.406 97.8652C271.406 97.8652 272.242 92.1425 267.868 88.0487C264.095 84.9623 264.717 81.5544 264.717 81.5544C267.525 71.3306 262.68 67.7941 262.68 67.7941C258.842 64.4933 259.743 60.1638 259.743 60.1638C246.428 69.7231 259.014 77.9535 259.014 77.9535C264.266 81.8759 264.438 85.0266 264.438 85.0266C247.715 70.8805 238.496 78.9395 238.496 78.9395ZM262.487 78.4465C262.487 78.4465 255.776 73.1739 258.37 65.5436C258.328 74.4599 262.487 78.4465 262.487 78.4465Z" fill="#E5E5E5"/>
<path fill-rule="evenodd" clip-rule="evenodd" d="M311.692 124.593C312.185 125.493 316.152 133.038 313.064 137.946C315.058 131.194 312.142 125.407 311.692 124.593ZM310.792 119.62C299.085 133.08 313.086 144.376 313.086 144.376C315.916 148.491 305.475 157.215 305.475 157.215C305.475 157.215 311.092 155.864 313.279 150.27C314.737 145.619 318.146 144.933 318.146 144.933C328.673 143.733 330.152 137.903 330.152 137.903C331.781 133.102 336.134 132.33 336.134 132.33C322.305 123.521 319.346 138.289 319.346 138.289C317.674 144.633 314.801 145.962 314.801 145.962C321.705 125.193 310.792 119.62 310.792 119.62ZM320.182 141.697C320.182 141.697 322.584 133.509 330.624 133.08C322.348 136.36 320.182 141.697 320.182 141.697Z" fill="#E5E5E5"/>
<path fill-rule="evenodd" clip-rule="evenodd" d="M392.671 81.6616C393.7 81.5115 402.126 80.397 405.685 84.9837C400.025 80.7614 393.593 81.533 392.671 81.6616ZM387.697 80.8042C396.294 96.4292 411.731 87.17 411.731 87.17C416.576 85.9483 421.165 98.7226 421.165 98.7226C421.165 98.7226 421.829 92.9784 417.327 89.0132C413.468 86.034 413.982 82.6046 413.982 82.6046C416.491 72.3166 411.517 68.9301 411.517 68.9301C407.572 65.7579 408.343 61.3855 408.343 61.3855C395.308 71.3306 408.151 79.1967 408.151 79.1967C413.532 82.9476 413.789 86.1197 413.789 86.1197C396.68 72.4666 387.697 80.8042 387.697 80.8042ZM411.645 79.5825C411.645 79.5825 404.784 74.5028 407.143 66.8082C407.379 75.7245 411.645 79.5825 411.645 79.5825Z" fill="#E5E5E5"/>
<path fill-rule="evenodd" clip-rule="evenodd" d="M447.621 139.789C448.608 140.111 456.669 142.833 457.827 148.513C454.589 142.254 448.5 140.089 447.621 139.789ZM443.526 136.831C444.32 154.643 462.265 153.185 462.265 153.185C467.153 154.214 465.61 167.717 465.61 167.717C465.61 167.717 468.74 162.873 466.467 157.3C464.323 152.928 466.317 150.077 466.317 150.077C473.114 141.954 470.176 136.724 470.176 136.724C468.054 132.137 470.669 128.558 470.669 128.558C454.589 131.709 462.608 144.44 462.608 144.44C465.76 150.184 464.602 153.142 464.602 153.142C455.275 133.316 443.526 136.831 443.526 136.831ZM465.545 146.326C465.545 146.326 461.622 138.739 467.175 132.888C463.423 140.989 465.545 146.326 465.545 146.326Z" fill="#E5E5E5"/>
<path fill-rule="evenodd" clip-rule="evenodd" d="M536.983 87.0842C538.012 86.9556 546.481 86.1197 549.89 90.8136C544.337 86.4198 537.884 86.977 536.983 87.0842ZM532.031 86.0554C540.135 101.938 555.851 93.1927 555.851 93.1927C560.717 92.1211 564.92 105.045 564.92 105.045C564.92 105.045 565.756 99.3227 561.382 95.2075C557.609 92.1211 558.252 88.6917 558.252 88.6917C561.082 78.4894 556.237 74.9314 556.237 74.9314C552.399 71.6307 553.299 67.2797 553.299 67.2797C539.964 76.8176 552.549 85.0694 552.549 85.0694C557.802 88.9918 557.952 92.1639 557.952 92.1639C541.271 78.0178 532.031 86.0554 532.031 86.0554ZM556.022 85.6053C556.022 85.6053 549.311 80.3112 551.927 72.6809C551.863 81.5972 556.022 85.6053 556.022 85.6053Z" fill="#E5E5E5"/>
<path fill-rule="evenodd" clip-rule="evenodd" d="M172.696 196.138C173.79 198.152 182.516 214.785 175.719 225.652C180.136 210.691 173.661 197.938 172.696 196.138C172.696 196.159 172.696 196.159 172.696 196.138ZM170.702 185.185C144.867 214.892 175.762 239.883 175.762 239.883C182.001 248.971 158.975 268.24 158.975 268.24C158.975 268.24 171.388 265.239 176.191 252.894C179.407 242.605 186.932 241.105 186.932 241.105C210.173 238.447 213.432 225.609 213.432 225.609C217.034 215.021 226.661 213.284 226.661 213.284C196.13 193.844 189.591 226.445 189.591 226.445C185.882 240.441 179.536 243.377 179.536 243.377C194.801 197.445 170.702 185.185 170.702 185.185ZM191.456 233.925C191.456 233.925 196.752 215.835 214.526 214.892C196.194 222.115 191.456 233.925 191.456 233.925Z" fill="#E5E5E5"/>
<path fill-rule="evenodd" clip-rule="evenodd" d="M224.281 277.006C225.674 278.807 236.909 293.874 231.913 305.663C233.907 290.209 225.503 278.614 224.281 277.006ZM220.572 266.482C199.711 299.876 234.165 319.702 234.165 319.702C241.754 327.718 222.03 350.33 222.03 350.33C222.03 350.33 233.822 345.422 236.63 332.476C238.195 321.824 245.399 319.144 245.399 319.144C267.933 312.886 269.133 299.661 269.133 299.661C271.02 288.645 280.261 285.408 280.261 285.408C247.05 271.005 245.721 304.227 245.721 304.227C244.263 318.63 238.453 322.531 238.453 322.531C246.321 274.82 220.572 266.482 220.572 266.482ZM248.722 311.364C248.722 311.364 251.102 292.653 268.512 288.945C251.553 298.954 248.722 311.364 248.722 311.364Z" fill="#E5E5E5"/>
<path fill-rule="evenodd" clip-rule="evenodd" d="M304.402 207.39C306.653 207.819 325.049 211.677 329.08 223.83C320.354 210.905 306.396 207.776 304.402 207.39ZM294.668 201.946C301.143 240.784 340.078 232.832 340.078 232.832C351.056 233.818 351.27 263.825 351.27 263.825C351.27 263.825 356.866 252.358 350.391 240.784C344.516 231.76 348.14 224.987 348.14 224.987C360.897 205.376 353.05 194.68 353.05 194.68C347.175 185.164 351.978 176.633 351.978 176.633C317.545 187.822 338.535 213.606 338.535 213.606C346.961 225.373 345.203 232.146 345.203 232.146C319.475 191.165 294.668 201.946 294.668 201.946ZM345.46 216.95C345.46 216.95 334.868 201.346 345.46 187.028C339.392 205.783 345.46 216.95 345.46 216.95Z" fill="#E5E5E5"/>
<path fill-rule="evenodd" clip-rule="evenodd" d="M354.251 306.627C356.502 306.22 375.047 303.241 383.195 313.122C370.395 304.205 356.245 306.284 354.251 306.627ZM343.209 305.041C363.17 338.992 396.68 317.623 396.68 317.623C407.293 314.601 418.228 342.55 418.228 342.55C418.228 342.55 419.342 329.84 409.137 321.352C400.411 315.029 401.376 307.42 401.376 307.42C406.243 284.529 395.094 277.371 395.094 277.371C386.196 270.598 387.611 260.91 387.611 260.91C359.482 283.693 388.319 300.24 388.319 300.24C400.411 308.213 401.183 315.158 401.183 315.158C362.505 286.094 343.209 305.041 343.209 305.041ZM396.016 300.862C396.016 300.862 380.536 290.102 385.296 272.934C386.325 292.588 396.016 300.862 396.016 300.862Z" fill="#E5E5E5"/>
<path fill-rule="evenodd" clip-rule="evenodd" d="M454.247 234.204C455.512 232.296 466.274 216.885 479.031 217.914C463.745 220.893 455.404 232.51 454.247 234.204C454.268 234.204 454.268 234.204 454.247 234.204ZM445.435 241.041C483.705 250.279 491.638 211.334 491.638 211.334C496.848 201.603 524.527 213.177 524.527 213.177C524.527 213.177 516.165 203.532 502.98 204.968C492.367 206.854 487.564 200.875 487.564 200.875C474.507 181.456 461.6 184.499 461.6 184.499C450.537 186.193 444.577 178.434 444.577 178.434C441.383 214.485 473.328 205.268 473.328 205.268C487.457 202.118 492.989 206.383 492.989 206.383C445.22 213.992 445.435 241.041 445.435 241.041ZM479.138 200.146C479.138 200.146 460.636 203.789 451.609 188.443C466.467 201.367 479.138 200.146 479.138 200.146Z" fill="#E5E5E5"/>
<path fill-rule="evenodd" clip-rule="evenodd" d="M535.911 270.79C536.512 272.998 541.164 291.195 532.031 300.197C539.771 286.673 536.447 272.762 535.911 270.79C535.911 270.812 535.911 270.812 535.911 270.79ZM536.49 259.667C504.48 282.6 528.772 314.043 528.772 314.043C532.738 324.331 505.874 337.727 505.874 337.727C505.874 337.727 518.631 337.684 526.178 326.775C531.688 317.515 539.363 317.794 539.363 317.794C562.583 320.602 568.736 308.835 568.736 308.835C574.675 299.361 584.452 299.919 584.452 299.919C559.238 273.941 545.345 304.141 545.345 304.141C538.506 316.894 531.645 318.287 531.645 318.287C557.116 277.178 536.49 259.667 536.49 259.667ZM545.409 311.878C545.409 311.878 554.736 295.503 572.274 298.697C552.763 301.505 545.409 311.878 545.409 311.878Z" fill="#E5E5E5"/>
<path fill-rule="evenodd" clip-rule="evenodd" d="M157.26 294.432C158.203 294.003 165.986 290.574 170.681 293.982C164.056 291.517 158.096 294.046 157.26 294.432ZM152.243 294.989C164.849 307.592 177.113 294.41 177.113 294.41C181.422 291.881 189.398 302.876 189.398 302.876C189.398 302.876 188.433 297.175 183.009 294.625C178.464 292.846 178.014 289.395 178.014 289.395C177.542 278.807 171.839 276.942 171.839 276.942C167.165 274.991 166.693 270.576 166.693 270.576C156.959 283.758 171.474 287.744 171.474 287.744C177.671 289.866 178.807 292.824 178.807 292.824C158.546 284.486 152.243 294.989 152.243 294.989ZM174.905 287.144C174.905 287.144 166.908 284.186 167.036 276.127C169.716 284.615 174.905 287.144 174.905 287.144Z" fill="#E5E5E5"/>
<path fill-rule="evenodd" clip-rule="evenodd" d="M243.448 229.038C244.477 228.909 252.946 228.052 256.355 232.746C250.802 228.374 244.349 228.931 243.448 229.038ZM238.496 228.031C246.621 243.891 262.337 235.125 262.337 235.125C267.204 234.032 271.406 246.956 271.406 246.956C271.406 246.956 272.242 241.234 267.868 237.14C264.095 234.054 264.717 230.646 264.717 230.646C267.525 220.422 262.68 216.885 262.68 216.885C258.842 213.585 259.743 209.255 259.743 209.255C246.428 218.814 259.014 227.045 259.014 227.045C264.266 230.967 264.438 234.139 264.438 234.139C247.715 219.972 238.496 228.031 238.496 228.031ZM262.487 227.538C262.487 227.538 255.776 222.265 258.37 214.635C258.328 223.551 262.487 227.538 262.487 227.538Z" fill="#E5E5E5"/>
<path fill-rule="evenodd" clip-rule="evenodd" d="M311.692 273.684C312.185 274.584 316.152 282.129 313.064 287.037C315.058 280.264 312.142 274.498 311.692 273.684ZM310.792 268.711C299.085 282.172 313.086 293.467 313.086 293.467C315.916 297.582 305.475 306.306 305.475 306.306C305.475 306.306 311.092 304.955 313.279 299.361C314.737 294.71 318.146 294.024 318.146 294.024C328.673 292.824 330.152 286.994 330.152 286.994C331.781 282.193 336.134 281.421 336.134 281.421C322.305 272.612 319.346 287.38 319.346 287.38C317.674 293.724 314.801 295.053 314.801 295.053C321.705 274.284 310.792 268.711 310.792 268.711ZM320.182 290.788C320.182 290.788 322.584 282.6 330.624 282.172C322.348 285.451 320.182 290.788 320.182 290.788Z" fill="#E5E5E5"/>
<path fill-rule="evenodd" clip-rule="evenodd" d="M392.671 230.753C393.7 230.603 402.126 229.488 405.685 234.075C400.025 229.853 393.593 230.624 392.671 230.753ZM387.697 229.895C396.294 245.52 411.731 236.261 411.731 236.261C416.576 235.039 421.165 247.814 421.165 247.814C421.165 247.814 421.829 242.07 417.327 238.104C413.468 235.125 413.982 231.696 413.982 231.696C416.491 221.408 411.517 218.021 411.517 218.021C407.572 214.849 408.343 210.477 408.343 210.477C395.308 220.422 408.151 228.288 408.151 228.288C413.532 232.039 413.789 235.211 413.789 235.211C396.68 221.558 387.697 229.895 387.697 229.895ZM411.645 228.674C411.645 228.674 404.784 223.594 407.143 215.899C407.379 224.816 411.645 228.674 411.645 228.674Z" fill="#E5E5E5"/>
<path fill-rule="evenodd" clip-rule="evenodd" d="M447.621 288.88C448.608 289.202 456.669 291.924 457.827 297.604C454.589 291.345 448.5 289.18 447.621 288.88ZM443.526 285.922C444.32 303.734 462.265 302.276 462.265 302.276C467.153 303.305 465.61 316.808 465.61 316.808C465.61 316.808 468.74 311.964 466.467 306.391C464.323 302.019 466.317 299.168 466.317 299.168C473.114 291.045 470.176 285.815 470.176 285.815C468.054 281.229 470.669 277.649 470.669 277.649C454.589 280.8 462.608 293.531 462.608 293.531C465.76 299.276 464.602 302.233 464.602 302.233C455.275 282.407 443.526 285.922 443.526 285.922ZM465.545 295.418C465.545 295.418 461.622 287.83 467.175 281.979C463.423 290.059 465.545 295.418 465.545 295.418Z" fill="#E5E5E5"/>
<path fill-rule="evenodd" clip-rule="evenodd" d="M536.983 236.175C538.012 236.047 546.481 235.211 549.89 239.905C544.337 235.511 537.884 236.068 536.983 236.175ZM532.031 235.147C540.135 251.029 555.851 242.284 555.851 242.284C560.717 241.212 564.92 254.137 564.92 254.137C564.92 254.137 565.756 248.414 561.382 244.299C557.609 241.212 558.252 237.783 558.252 237.783C561.082 227.581 556.237 224.023 556.237 224.023C552.399 220.722 553.299 216.371 553.299 216.371C539.964 225.909 552.549 234.161 552.549 234.161C557.802 238.083 557.952 241.255 557.952 241.255C541.271 227.109 532.031 235.147 532.031 235.147ZM556.022 234.697C556.022 234.697 549.311 229.402 551.927 221.794C551.863 230.688 556.022 234.697 556.022 234.697Z" fill="#E5E5E5"/>
<path fill-rule="evenodd" clip-rule="evenodd" d="M172.696 345.229C173.79 347.244 182.516 363.876 175.719 374.743C180.136 359.782 173.661 347.029 172.696 345.229ZM170.702 334.255C144.867 363.962 175.762 388.953 175.762 388.953C182.001 398.041 158.975 417.31 158.975 417.31C158.975 417.31 171.388 414.309 176.191 401.963C179.407 391.675 186.932 390.175 186.932 390.175C210.173 387.517 213.432 374.679 213.432 374.679C217.034 364.09 226.661 362.354 226.661 362.354C196.13 342.914 189.591 375.514 189.591 375.514C185.882 389.51 179.536 392.447 179.536 392.447C194.801 346.536 170.702 334.255 170.702 334.255ZM191.456 382.995C191.456 382.995 196.752 364.905 214.526 363.962C196.194 371.206 191.456 382.995 191.456 382.995Z" fill="#E5E5E5"/>
<path fill-rule="evenodd" clip-rule="evenodd" d="M224.281 426.097C225.674 427.898 236.909 442.966 231.913 454.754C233.907 439.3 225.503 427.705 224.281 426.097ZM220.572 415.574C199.711 448.967 234.165 468.793 234.165 468.793C241.754 476.809 222.03 499.421 222.03 499.421C222.03 499.421 233.822 494.513 236.63 481.567C238.195 470.915 245.399 468.236 245.399 468.236C267.933 461.977 269.133 448.753 269.133 448.753C271.02 437.736 280.261 434.499 280.261 434.499C247.05 420.096 245.721 453.318 245.721 453.318C244.263 467.721 238.453 471.622 238.453 471.622C246.321 423.911 220.572 415.574 220.572 415.574ZM248.722 460.434C248.722 460.434 251.102 441.722 268.512 438.014C251.553 448.045 248.722 460.434 248.722 460.434Z" fill="#E5E5E5"/>
<path fill-rule="evenodd" clip-rule="evenodd" d="M304.402 356.481C306.653 356.91 325.049 360.768 329.08 372.921C320.354 359.997 306.396 356.867 304.402 356.481ZM294.668 351.037C301.143 389.875 340.078 381.944 340.078 381.944C351.056 382.93 351.27 412.937 351.27 412.937C351.27 412.937 356.866 401.47 350.391 389.896C344.516 380.873 348.14 374.1 348.14 374.1C360.897 354.488 353.05 343.793 353.05 343.793C347.175 334.276 351.978 325.746 351.978 325.746C317.545 336.934 338.535 362.719 338.535 362.719C346.961 374.486 345.203 381.259 345.203 381.259C319.475 340.256 294.668 351.037 294.668 351.037ZM345.46 366.041C345.46 366.041 334.868 350.437 345.46 336.12C339.392 354.874 345.46 366.041 345.46 366.041Z" fill="#E5E5E5"/>
<path fill-rule="evenodd" clip-rule="evenodd" d="M354.251 455.718C356.502 455.311 375.047 452.332 383.195 462.213C370.395 453.296 356.245 455.375 354.251 455.718ZM343.209 454.132C363.17 488.083 396.68 466.714 396.68 466.714C407.293 463.692 418.228 491.641 418.228 491.641C418.228 491.641 419.342 478.931 409.137 470.443C400.411 464.12 401.376 456.511 401.376 456.511C406.243 433.621 395.094 426.462 395.094 426.462C386.196 419.689 387.611 410.001 387.611 410.001C359.482 432.785 388.319 449.331 388.319 449.331C400.411 457.305 401.183 464.249 401.183 464.249C362.505 435.164 343.209 454.132 343.209 454.132ZM396.016 449.953C396.016 449.953 380.536 439.193 385.296 422.025C386.325 441.68 396.016 449.953 396.016 449.953Z" fill="#E5E5E5"/>
<path fill-rule="evenodd" clip-rule="evenodd" d="M454.247 383.295C455.512 381.387 466.274 365.977 479.031 367.005C463.745 369.985 455.404 381.602 454.247 383.295C454.268 383.295 454.268 383.295 454.247 383.295ZM445.435 390.132C483.705 399.37 491.638 360.425 491.638 360.425C496.848 350.694 524.527 362.269 524.527 362.269C524.527 362.269 516.165 352.624 502.98 354.06C492.367 355.946 487.564 349.966 487.564 349.966C474.507 330.547 461.601 333.591 461.601 333.591C450.537 335.284 444.577 327.525 444.577 327.525C441.404 363.576 473.35 354.36 473.35 354.36C487.479 351.209 493.01 355.474 493.01 355.474C445.22 363.062 445.435 390.132 445.435 390.132ZM479.138 349.237C479.138 349.237 460.636 352.881 451.609 337.534C466.467 350.459 479.138 349.237 479.138 349.237Z" fill="#E5E5E5"/>
<path fill-rule="evenodd" clip-rule="evenodd" d="M535.911 419.882C536.512 422.089 541.164 440.308 532.031 449.288C539.771 435.764 536.447 421.854 535.911 419.882ZM536.49 408.758C504.48 431.692 528.772 463.134 528.772 463.134C532.738 473.423 505.874 486.818 505.874 486.818C505.874 486.818 518.631 486.776 526.178 475.866C531.688 466.607 539.363 466.885 539.363 466.885C562.583 469.693 568.736 457.926 568.736 457.926C574.675 448.453 584.452 449.01 584.452 449.01C559.238 423.032 545.345 453.232 545.345 453.232C538.506 465.985 531.645 467.378 531.645 467.378C557.116 426.269 536.49 408.758 536.49 408.758ZM545.409 460.97C545.409 460.97 554.736 444.594 572.274 447.788C552.763 450.596 545.409 460.97 545.409 460.97Z" fill="#E5E5E5"/>
<path fill-rule="evenodd" clip-rule="evenodd" d="M157.26 443.523C158.203 443.094 165.986 439.665 170.681 443.073C164.056 440.608 158.096 443.137 157.26 443.523C157.26 443.501 157.26 443.501 157.26 443.523ZM152.243 444.08C164.849 456.683 177.113 443.501 177.113 443.501C181.422 440.972 189.398 451.968 189.398 451.968C189.398 451.968 188.433 446.266 183.009 443.716C178.464 441.937 178.014 438.486 178.014 438.486C177.542 427.898 171.839 426.033 171.839 426.033C167.165 424.083 166.693 419.667 166.693 419.667C156.959 432.849 171.474 436.836 171.474 436.836C177.671 438.957 178.807 441.915 178.807 441.915C158.546 433.556 152.243 444.08 152.243 444.08ZM174.905 436.235C174.905 436.235 166.908 433.278 167.036 425.219C169.716 433.706 174.905 436.235 174.905 436.235Z" fill="#E5E5E5"/>
<path fill-rule="evenodd" clip-rule="evenodd" d="M243.448 378.129C244.477 378.001 252.946 377.143 256.355 381.837C250.802 377.465 244.349 378.022 243.448 378.129ZM238.496 377.122C246.621 392.983 262.337 384.216 262.337 384.216C267.204 383.123 271.406 396.048 271.406 396.048C271.406 396.048 272.242 390.325 267.868 386.231C264.095 383.145 264.717 379.737 264.717 379.737C267.525 369.513 262.68 365.977 262.68 365.977C258.842 362.676 259.743 358.346 259.743 358.346C246.428 367.906 259.014 376.136 259.014 376.136C264.266 380.058 264.438 383.23 264.438 383.23C247.715 369.063 238.496 377.122 238.496 377.122ZM262.487 376.607C262.487 376.607 255.776 371.335 258.37 363.705C258.328 372.621 262.487 376.607 262.487 376.607Z" fill="#E5E5E5"/>
<path fill-rule="evenodd" clip-rule="evenodd" d="M311.692 422.775C312.185 423.675 316.152 431.22 313.064 436.128C315.058 429.355 312.142 423.59 311.692 422.775ZM310.792 417.803C299.085 431.263 313.086 442.558 313.086 442.558C315.916 446.674 305.475 455.397 305.475 455.397C305.475 455.397 311.092 454.047 313.279 448.453C314.737 443.801 318.146 443.116 318.146 443.116C328.673 441.915 330.152 436.085 330.152 436.085C331.781 431.284 336.134 430.513 336.134 430.513C322.305 421.704 319.346 436.471 319.346 436.471C317.674 442.816 314.801 444.144 314.801 444.144C321.705 423.354 310.792 417.803 310.792 417.803ZM320.182 439.879C320.182 439.879 322.584 431.692 330.624 431.263C322.348 434.521 320.182 439.879 320.182 439.879Z" fill="#E5E5E5"/>
<path fill-rule="evenodd" clip-rule="evenodd" d="M392.671 379.844C393.7 379.694 402.126 378.579 405.685 383.166C400.025 378.944 393.593 379.694 392.671 379.844ZM387.697 378.987C396.294 394.612 411.731 385.352 411.731 385.352C416.576 384.131 421.165 396.905 421.165 396.905C421.165 396.905 421.829 391.161 417.327 387.196C413.468 384.216 413.982 380.787 413.982 380.787C416.491 370.499 411.517 367.113 411.517 367.113C407.572 363.94 408.343 359.568 408.343 359.568C395.308 369.513 408.151 377.379 408.151 377.379C413.532 381.13 413.789 384.302 413.789 384.302C396.68 370.649 387.697 378.987 387.697 378.987ZM411.645 377.765C411.645 377.765 404.784 372.685 407.143 364.991C407.379 373.886 411.645 377.765 411.645 377.765Z" fill="#E5E5E5"/>
<path fill-rule="evenodd" clip-rule="evenodd" d="M447.621 437.972C448.608 438.293 456.669 441.015 457.827 446.695C454.589 440.415 448.5 438.25 447.621 437.972ZM443.526 434.992C444.32 452.804 462.265 451.346 462.265 451.346C467.153 452.375 465.61 465.878 465.61 465.878C465.61 465.878 468.74 461.034 466.467 455.461C464.323 451.089 466.317 448.238 466.317 448.238C473.114 440.115 470.176 434.885 470.176 434.885C468.054 430.298 470.669 426.719 470.669 426.719C454.589 429.87 462.608 442.601 462.608 442.601C465.76 448.345 464.602 451.303 464.602 451.303C455.275 431.499 443.526 434.992 443.526 434.992ZM465.545 444.509C465.545 444.509 461.622 436.921 467.175 431.07C463.423 439.15 465.545 444.509 465.545 444.509Z" fill="#E5E5E5"/>
<path fill-rule="evenodd" clip-rule="evenodd" d="M536.983 385.245C538.012 385.117 546.481 384.281 549.89 388.975C544.337 384.602 537.884 385.16 536.983 385.245ZM532.031 384.238C540.135 400.12 555.851 391.375 555.851 391.375C560.717 390.304 564.92 403.228 564.92 403.228C564.92 403.228 565.756 397.505 561.382 393.39C557.609 390.304 558.252 386.874 558.252 386.874C561.082 376.672 556.237 373.114 556.237 373.114C552.399 369.813 553.299 365.462 553.299 365.462C539.964 375 552.549 383.252 552.549 383.252C557.802 387.174 557.952 390.346 557.952 390.346C541.271 376.2 532.031 384.238 532.031 384.238ZM556.022 383.766C556.022 383.766 549.311 378.472 551.927 370.842C551.863 379.78 556.022 383.766 556.022 383.766Z" fill="#E5E5E5"/>
<path fill-rule="evenodd" clip-rule="evenodd" d="M172.696 494.32C173.79 496.335 182.516 512.967 175.719 523.834C180.136 508.873 173.661 496.121 172.696 494.32ZM170.702 483.346C144.867 513.053 175.762 538.044 175.762 538.044C182.001 547.132 158.975 566.401 158.975 566.401C158.975 566.401 171.388 563.422 176.191 551.055C179.407 540.766 186.932 539.266 186.932 539.266C210.173 536.608 213.432 523.77 213.432 523.77C217.034 513.182 226.661 511.445 226.661 511.445C196.13 492.005 189.591 524.606 189.591 524.606C185.882 538.602 179.536 541.538 179.536 541.538C194.801 495.628 170.702 483.346 170.702 483.346ZM191.456 532.086C191.456 532.086 196.752 513.996 214.526 513.053C196.194 520.276 191.456 532.086 191.456 532.086Z" fill="#E5E5E5"/>
<path fill-rule="evenodd" clip-rule="evenodd" d="M224.281 575.167C225.674 576.968 236.909 592.035 231.913 603.824C233.907 588.37 225.503 576.796 224.281 575.167C224.281 575.189 224.281 575.189 224.281 575.167ZM238.195 625C240.854 618.999 245.378 617.305 245.378 617.305C267.911 611.047 269.112 597.822 269.112 597.822C270.999 586.806 280.239 583.591 280.239 583.591C247.029 569.187 245.699 602.409 245.699 602.409C244.242 616.812 238.431 620.713 238.431 620.713C246.3 572.981 220.572 564.643 220.572 564.643C199.711 598.037 234.165 617.863 234.165 617.863C235.858 619.642 236.18 622.171 235.687 625H238.195ZM248.722 609.525C248.722 609.525 251.102 590.814 268.512 587.106C251.553 597.115 248.722 609.525 248.722 609.525Z" fill="#E5E5E5"/>
<path fill-rule="evenodd" clip-rule="evenodd" d="M304.402 505.573C306.653 506.001 325.049 509.859 329.08 522.012C320.354 509.088 306.396 505.959 304.402 505.573ZM294.668 500.129C301.143 538.966 340.078 531.036 340.078 531.036C351.056 532.022 351.27 562.028 351.27 562.028C351.27 562.028 356.866 550.562 350.391 538.987C344.516 529.964 348.14 523.191 348.14 523.191C360.897 503.579 353.05 492.884 353.05 492.884C347.175 483.368 351.978 474.837 351.978 474.837C317.545 486.025 338.535 511.81 338.535 511.81C346.961 523.577 345.203 530.35 345.203 530.35C319.475 489.348 294.668 500.129 294.668 500.129ZM345.46 515.132C345.46 515.132 334.868 499.528 345.46 485.211C339.392 503.944 345.46 515.132 345.46 515.132Z" fill="#E5E5E5"/>
<path fill-rule="evenodd" clip-rule="evenodd" d="M354.251 604.81C356.502 604.402 375.047 601.423 383.195 611.304C370.395 602.388 356.245 604.467 354.251 604.81ZM414.004 625C412.76 623.092 411.174 621.228 409.137 619.534C400.411 613.212 401.376 605.603 401.376 605.603C406.243 582.712 395.094 575.553 395.094 575.553C386.196 568.78 387.611 559.092 387.611 559.092C359.482 581.876 388.319 598.423 388.319 598.423C400.411 606.396 401.183 613.34 401.183 613.34C362.505 584.276 343.209 603.245 343.209 603.245C363.17 637.196 396.68 615.826 396.68 615.826C401.419 614.476 406.2 619.277 410.059 625.021H414.004V625ZM396.016 599.023C396.016 599.023 380.536 588.263 385.296 571.095C386.325 590.771 396.016 599.023 396.016 599.023Z" fill="#E5E5E5"/>
<path fill-rule="evenodd" clip-rule="evenodd" d="M454.247 532.386C455.512 530.478 466.274 515.068 479.031 516.097C463.745 519.076 455.404 530.693 454.247 532.386C454.268 532.386 454.268 532.365 454.247 532.386ZM445.435 539.223C483.705 548.461 491.638 509.516 491.638 509.516C496.848 499.786 524.527 511.36 524.527 511.36C524.527 511.36 516.165 501.715 502.98 503.151C492.367 505.037 487.564 499.057 487.564 499.057C474.507 479.638 461.601 482.682 461.601 482.682C450.537 484.375 444.577 476.616 444.577 476.616C441.404 512.667 473.35 503.451 473.35 503.451C487.479 500.3 493.01 504.565 493.01 504.565C445.22 512.153 445.435 539.223 445.435 539.223ZM479.138 498.328C479.138 498.328 460.636 501.972 451.609 486.626C466.467 499.55 479.138 498.328 479.138 498.328Z" fill="#E5E5E5"/>
<path fill-rule="evenodd" clip-rule="evenodd" d="M535.911 568.973C536.512 571.181 541.164 589.378 532.031 598.38C539.77 584.855 536.447 570.945 535.911 568.973ZM526.156 625L526.177 624.957C531.688 615.698 539.363 615.977 539.363 615.977C562.583 618.784 568.736 607.017 568.736 607.017C574.675 597.544 584.451 598.101 584.451 598.101C559.238 572.124 545.345 602.323 545.345 602.323C538.505 615.076 531.645 616.469 531.645 616.469C557.137 575.339 536.512 557.806 536.512 557.806C504.502 580.74 528.793 612.183 528.793 612.183C530.38 616.298 527.035 620.906 522.447 624.957H526.156V625ZM545.409 610.061C545.409 610.061 554.736 593.686 572.273 596.879C552.763 599.666 545.409 610.061 545.409 610.061Z" fill="#E5E5E5"/>
<path fill-rule="evenodd" clip-rule="evenodd" d="M157.26 592.593C158.203 592.164 165.986 588.735 170.681 592.142C164.056 589.699 158.096 592.228 157.26 592.593ZM152.243 593.171C164.849 605.774 177.113 592.593 177.113 592.593C181.422 590.063 189.398 601.059 189.398 601.059C189.398 601.059 188.433 595.358 183.009 592.807C178.464 591.028 178.014 587.577 178.014 587.577C177.542 576.989 171.839 575.124 171.839 575.124C167.165 573.174 166.693 568.759 166.693 568.759C156.959 581.94 171.474 585.927 171.474 585.927C177.671 588.049 178.807 591.007 178.807 591.007C158.546 582.647 152.243 593.171 152.243 593.171ZM174.905 585.305C174.905 585.305 166.908 582.347 167.036 574.288C169.716 582.797 174.905 585.305 174.905 585.305Z" fill="#E5E5E5"/>
<path fill-rule="evenodd" clip-rule="evenodd" d="M243.448 527.221C244.477 527.092 252.946 526.235 256.355 530.929C250.802 526.535 244.349 527.113 243.448 527.221ZM238.496 526.213C246.621 542.074 262.337 533.308 262.337 533.308C267.204 532.214 271.406 545.139 271.406 545.139C271.406 545.139 272.242 539.416 267.868 535.322C264.095 532.236 264.717 528.828 264.717 528.828C267.525 518.604 262.68 515.068 262.68 515.068C258.842 511.767 259.743 507.437 259.743 507.437C246.428 516.997 259.014 525.227 259.014 525.227C264.266 529.15 264.438 532.3 264.438 532.3C247.715 518.133 238.496 526.213 238.496 526.213ZM262.487 525.699C262.487 525.699 255.776 520.426 258.37 512.796C258.328 521.712 262.487 525.699 262.487 525.699Z" fill="#E5E5E5"/>
<path fill-rule="evenodd" clip-rule="evenodd" d="M311.692 571.866C312.185 572.767 316.152 580.311 313.064 585.219C315.058 578.446 312.142 572.66 311.692 571.866ZM310.792 566.894C299.085 580.354 313.086 591.65 313.086 591.65C315.916 595.765 305.475 604.488 305.475 604.488C305.475 604.488 311.092 603.138 313.279 597.544C314.737 592.893 318.146 592.207 318.146 592.207C328.673 591.007 330.152 585.177 330.152 585.177C331.781 580.376 336.134 579.604 336.134 579.604C322.305 570.795 319.346 585.562 319.346 585.562C317.674 591.907 314.801 593.236 314.801 593.236C321.705 572.445 310.792 566.894 310.792 566.894ZM320.182 588.97C320.182 588.97 322.584 580.783 330.624 580.354C322.348 583.612 320.182 588.97 320.182 588.97Z" fill="#E5E5E5"/>
<path fill-rule="evenodd" clip-rule="evenodd" d="M392.671 528.914C393.7 528.764 402.126 527.649 405.685 532.236C400.025 528.035 393.593 528.785 392.671 528.914ZM387.697 528.056C396.294 543.681 411.731 534.422 411.731 534.422C416.576 533.2 421.165 545.975 421.165 545.975C421.165 545.975 421.829 540.231 417.327 536.265C413.468 533.286 413.982 529.857 413.982 529.857C416.491 519.569 411.517 516.182 411.517 516.182C407.572 513.01 408.343 508.638 408.343 508.638C395.308 518.583 408.151 526.449 408.151 526.449C413.532 530.2 413.789 533.372 413.789 533.372C396.68 519.719 387.697 528.056 387.697 528.056ZM411.645 526.835C411.645 526.835 404.784 521.755 407.143 514.06C407.379 522.977 411.645 526.835 411.645 526.835Z" fill="#E5E5E5"/>
<path fill-rule="evenodd" clip-rule="evenodd" d="M447.621 587.063C448.608 587.384 456.669 590.106 457.827 595.786C454.589 589.506 448.5 587.341 447.621 587.063ZM443.526 584.084C444.32 601.895 462.265 600.437 462.265 600.437C467.153 601.466 465.61 614.969 465.61 614.969C465.61 614.969 468.74 610.125 466.467 604.552C464.323 600.18 466.317 597.329 466.317 597.329C473.114 589.206 470.176 583.976 470.176 583.976C468.054 579.39 470.669 575.81 470.669 575.81C454.589 578.961 462.608 591.692 462.608 591.692C465.76 597.437 464.602 600.394 464.602 600.394C455.275 580.59 443.526 584.084 443.526 584.084ZM465.545 593.6C465.545 593.6 461.622 586.013 467.175 580.161C463.423 588.242 465.545 593.6 465.545 593.6Z" fill="#E5E5E5"/>
<path fill-rule="evenodd" clip-rule="evenodd" d="M536.983 534.336C538.012 534.208 546.481 533.372 549.89 538.066C544.337 533.672 537.884 534.229 536.983 534.336ZM532.031 533.329C540.135 549.211 555.851 540.466 555.851 540.466C560.717 539.395 564.92 552.319 564.92 552.319C564.92 552.319 565.756 546.596 561.382 542.481C557.609 539.395 558.252 535.965 558.252 535.965C561.082 525.763 556.237 522.205 556.237 522.205C552.399 518.904 553.299 514.553 553.299 514.553C539.964 524.091 552.549 532.343 552.549 532.343C557.802 536.265 557.952 539.438 557.952 539.438C541.271 525.27 532.031 533.329 532.031 533.329ZM556.022 532.858C556.022 532.858 549.311 527.563 551.927 519.933C551.863 528.871 556.022 532.858 556.022 532.858Z" fill="#E5E5E5"/>
<path fill-rule="evenodd" clip-rule="evenodd" d="M351.442 625H348.869C349.834 624.614 350.863 624.25 351.935 623.907C351.935 623.907 351.721 624.293 351.442 625Z" fill="#E5E5E5"/>
</g>
<defs>
<clipPath id="clip0_55_488">
<rect width="1072" height="625" fill="white" transform="translate(-276)"/>
</clipPath>
</defs>
</svg>
