<svg width="28" height="28" viewBox="0 0 28 28" fill="none" xmlns="http://www.w3.org/2000/svg">
<path d="M6.00008 16.6667H16.6667V14H6.00008V16.6667ZM6.00008 12.6667H22.0001V10H6.00008V12.6667ZM6.00008 8.66666H22.0001V6H6.00008V8.66666ZM0.666748 27.3333V3.33333C0.666748 2.6 0.928081 1.972 1.45075 1.44933C1.97253 0.927553 2.60008 0.666664 3.33341 0.666664H24.6667C25.4001 0.666664 26.0281 0.927553 26.5507 1.44933C27.0725 1.972 27.3334 2.6 27.3334 3.33333V19.3333C27.3334 20.0667 27.0725 20.6947 26.5507 21.2173C26.0281 21.7391 25.4001 22 24.6667 22H6.00008L0.666748 27.3333Z" fill="#34364A"/>
</svg>
