<svg width="192" height="164" viewBox="0 0 192 164" fill="none" xmlns="http://www.w3.org/2000/svg">
<path d="M138.084 117.459C161.548 93.9946 161.548 55.951 138.084 32.4864C114.619 9.02176 76.5753 9.02175 53.1107 32.4864C29.6461 55.951 29.6461 93.9946 53.1107 117.459C76.5753 140.924 114.619 140.924 138.084 117.459Z" fill="#FFCB4A"/>
<path d="M124.661 22.3839C140.583 33.1837 151.011 51.4432 151.011 72.1149C151.011 105.294 124.105 132.2 90.9259 132.2C80.3859 132.2 70.4768 129.491 61.8667 124.704C71.4789 131.235 83.0952 135.058 95.6021 135.058C128.781 135.058 155.688 108.151 155.688 74.9726C155.688 52.3339 143.181 32.627 124.661 22.3839Z" fill="#F2AF41"/>
<path d="M94.8968 116.65C118.099 116.65 136.908 97.8409 136.908 74.6386C136.908 51.4362 118.099 32.627 94.8968 32.627C71.6945 32.627 52.8853 51.4362 52.8853 74.6386C52.8853 97.8409 71.6945 116.65 94.8968 116.65Z" fill="#FFE878"/>
<path d="M58.3779 77.5705C58.3779 54.3751 77.1941 35.5589 100.39 35.5589C106.476 35.5589 112.266 36.8579 117.461 39.196C110.93 35.0393 103.173 32.627 94.8597 32.627C71.6643 32.627 52.8481 51.4431 52.8481 74.6386C52.8481 91.7475 63.0913 106.481 77.7508 113.013C66.1345 105.553 58.3779 92.4527 58.3779 77.5705Z" fill="#F2AF41"/>
<g opacity="0.26">
<path d="M41.3062 64.5068C40.4526 68.4778 40.0072 72.8942 42.0855 76.3828C42.4196 76.9024 42.8278 77.4591 43.3845 77.6818C44.869 78.2756 46.3164 76.6055 46.7988 75.0468C47.8751 71.7066 47.3555 68.0696 47.4669 64.581C47.6896 57.8265 50.3246 51.3689 53.9245 45.6535C56.9677 40.8289 60.679 36.4867 64.5016 32.2558C66.3201 30.2146 68.2129 27.8765 64.1676 29.1755C55.7059 31.8105 50.7699 40.6804 47.0586 48.1401C44.4979 53.2987 42.5309 58.8285 41.3062 64.5068Z" fill="white"/>
</g>
<g opacity="0.26">
<path d="M42.2339 89.5579C43.0504 90.9681 44.4607 92.0815 46.0565 92.3042C46.3534 92.3413 46.6503 92.3413 46.9101 92.23C47.207 92.0815 47.3926 91.8217 47.5411 91.5619C48.1349 90.4857 48.0977 89.1867 47.9864 87.962C47.7637 85.6981 47.3926 79.2034 43.57 80.0941C39.8587 80.9848 40.8979 87.2569 42.2339 89.5579Z" fill="white"/>
</g>
<path d="M114.641 96.535L97.5691 87.5167L80.4602 96.4608L83.7632 77.4591L69.9573 63.913L89.0703 61.2038L97.6805 43.8721L106.179 61.2409L125.292 64.0614L111.412 77.4962L114.641 96.535Z" fill="#FFCB4A"/>
<path d="M104.064 58.4203L104.843 58.5316L97.6802 43.8721L97.3091 44.6144L104.064 58.4203Z" fill="#F2AF41"/>
<path d="M81.6478 74.6386L70.6253 63.8388L69.9573 63.913L81.5364 75.2695L81.6478 74.6386Z" fill="#F2AF41"/>
<path d="M125.292 64.0614L120.913 63.3934L109.296 74.6756L112.525 93.7144L95.4532 84.6961L81.202 92.1557L80.4597 96.4608L97.5687 87.5166L114.641 96.535L111.412 77.4962L125.292 64.0614Z" fill="#F2AF41"/>
<path d="M0 154.023C6.90296 152.724 14.0286 151.833 21.2656 151.388C18.2966 155.062 16.9605 159.144 17.4059 163.152C19.8924 160.888 22.379 158.587 25.7562 156.658C28.0201 155.359 30.618 154.282 33.253 153.206C42.9394 149.384 59.3432 145.672 60.0483 144.744C60.4195 144.262 52.7371 144.299 52.7 143.78C52.6258 142.963 52.2547 142.147 51.6238 141.441C49.7681 139.363 45.8713 138.064 42.0487 137.062C39.1168 136.283 33.3272 134.835 30.2097 136.06C29.0592 136.505 28.6139 137.211 27.3149 137.656C25.682 138.213 24.049 138.732 22.4903 139.326C16.2925 141.664 10.874 144.596 6.49472 147.936C3.93395 149.829 1.7443 151.87 0 154.023Z" fill="#EF0A0A"/>
<path d="M35.665 141.479C35.5166 142.184 35.5537 142.926 35.8506 143.631C36.0362 144.114 36.3331 144.596 36.964 144.93C37.8918 145.412 39.265 145.524 40.5268 145.598C46.6875 145.858 52.8853 145.45 59.046 145.004C59.4172 144.967 59.8254 144.93 60.0481 144.782C60.1965 144.67 60.2336 144.522 60.2336 144.373C60.6048 141.33 59.7883 138.25 57.8584 135.392C56.9306 134.056 55.743 132.72 53.7389 131.792C50.3988 130.233 45.2772 130.159 41.2691 131.161C38.4485 131.866 36.0362 133.054 34.7743 134.613C33.5125 136.134 33.5125 138.027 35.0341 139.474C35.0712 139.512 35.1455 139.512 35.1826 139.549L35.665 141.479Z" fill="#C1332D"/>
<path d="M7.45939 123.368C7.45939 123.368 5.12128 116.984 54.8894 113.199C76.4519 111.566 95.602 111.9 95.602 111.9V135.244C95.602 135.244 70.3283 135.281 59.3429 136.505C36.5929 139.066 36.964 144.819 36.964 144.819L7.45939 123.368Z" fill="#FF4936"/>
<path d="M191.204 154.023C184.301 152.724 177.176 151.833 169.939 151.388C172.908 155.062 174.244 159.144 173.799 163.152C171.312 160.888 168.825 158.587 165.448 156.658C163.184 155.359 160.586 154.282 157.951 153.206C148.265 149.384 131.861 145.672 131.156 144.744C130.785 144.262 138.467 144.299 138.504 143.78C138.579 142.963 138.95 142.147 139.581 141.441C141.436 139.363 145.333 138.064 149.156 137.062C152.088 136.283 157.877 134.835 160.995 136.06C162.145 136.505 162.591 137.211 163.889 137.656C165.522 138.213 167.155 138.732 168.714 139.326C174.912 141.664 180.33 144.596 184.71 147.936C187.27 149.829 189.46 151.87 191.204 154.023Z" fill="#EF0A0A"/>
<path d="M155.539 141.479C155.688 142.184 155.651 142.926 155.354 143.631C155.168 144.114 154.871 144.596 154.24 144.93C153.312 145.412 151.939 145.524 150.677 145.598C144.517 145.858 138.319 145.45 132.158 145.004C131.787 144.967 131.379 144.93 131.156 144.782C131.008 144.67 130.971 144.522 130.971 144.373C130.599 141.33 131.416 138.25 133.346 135.392C134.274 134.056 135.461 132.72 137.465 131.792C140.805 130.233 145.927 130.159 149.935 131.161C152.756 131.866 155.168 133.054 156.43 134.613C157.692 136.134 157.692 138.027 156.17 139.474C156.133 139.512 156.059 139.512 156.022 139.549L155.539 141.479Z" fill="#C1332D"/>
<path d="M183.745 123.368C183.745 123.368 186.083 116.984 136.315 113.199C114.752 111.566 95.6023 111.9 95.6023 111.9V135.244C95.6023 135.244 120.876 135.281 131.861 136.505C154.611 139.066 154.24 144.819 154.24 144.819L183.745 123.368Z" fill="#FF4936"/>
</svg>
